<svg xmlns="http://www.w3.org/2000/svg" width="20.533" height="20.533" viewBox="0 0 20.533 20.533">
  <g id="activity_tab" transform="translate(0)">
    <g id="track">
      <path id="Path_485" data-name="Path 485" d="M10.266,0a.342.342,0,0,0-.342.342V1.711a.342.342,0,0,0,.684,0V.693A9.582,9.582,0,1,1,.693,10.609H1.711a.342.342,0,1,0,0-.684H.342A.342.342,0,0,0,0,10.266,10.266,10.266,0,1,0,10.266,0Zm0,0" transform="translate(0)" fill="#f77"/>
      <path id="Path_486" data-name="Path 486" d="M305.849,120a1.711,1.711,0,0,0-.285,3.41c.048,0,.1.006.143.006a1.711,1.711,0,0,0,.141-3.416Zm-.228,2.729a1.027,1.027,0,0,1,.086-2.05.75.75,0,0,1,.086,0,1.027,1.027,0,1,1-.171,2.047Zm0,0" transform="translate(-290.992 -114.863)" fill="#f77"/>
      <path id="Path_487" data-name="Path 487" d="M169.036,143.221a1.051,1.051,0,0,0-1.452,0l-2.3,2.3a.856.856,0,0,0,1.21,1.21l1.814-1.814,1.352,1.351a.855.855,0,0,0,1.21-1.209Zm1.338,2.567a.163.163,0,0,1-.228,0l-1.593-1.594a.342.342,0,0,0-.484,0l-2.056,2.057a.171.171,0,0,1-.242-.242l2.3-2.3a.342.342,0,0,1,.484,0l1.836,1.836a.162.162,0,0,1,.048.119.175.175,0,0,1-.062.127Zm0,0" transform="translate(-157.978 -136.816)" fill="#f77"/>
      <path id="Path_488" data-name="Path 488" d="M219.635,259.315h0a.848.848,0,0,0,.6-.25l1.811-1.811a1.027,1.027,0,0,0,0-1.452l-2.3-2.3a.876.876,0,0,0-1.21,0,.855.855,0,0,0,0,1.21l1.814,1.814-1.327,1.327a.858.858,0,0,0-.007,1.2A.85.85,0,0,0,219.635,259.315Zm-.117-.975,1.569-1.569a.342.342,0,0,0,0-.484l-2.056-2.057a.171.171,0,1,1,.242-.242l2.3,2.3a.342.342,0,0,1,0,.484l-1.811,1.809a.168.168,0,0,1-.12.05.15.15,0,0,1-.123-.052.171.171,0,0,1,0-.238Zm0,0" transform="translate(-208.958 -242.427)" fill="#f77"/>
      <path id="Path_489" data-name="Path 489" d="M299.593,227.08a.856.856,0,0,0,0-1.711h-1.882v-1.027a.342.342,0,0,0-.532-.285l-1.027.684a.342.342,0,0,0-.152.285v1.027a1.027,1.027,0,0,0,1.027,1.027Zm-2.909-1.027v-.843l.342-.228v.729a.342.342,0,0,0,.342.342h2.224a.171.171,0,1,1,0,.342h-2.567A.342.342,0,0,1,296.684,226.053Zm0,0" transform="translate(-283.338 -214.418)" fill="#f77"/>
      <path id="Path_490" data-name="Path 490" d="M117.783,288.548c-.266-.266-.579-.587-.657-.678a.353.353,0,0,0-.052-.067.342.342,0,0,0-.483,0l-3.735,3.736a.856.856,0,0,0,1.21,1.21l3.717-3.718A.342.342,0,0,0,117.783,288.548Zm-4.2,3.717a.171.171,0,1,1-.242-.242l3.479-3.479c.068.072.148.153.239.245Zm0,0" transform="translate(-107.788 -275.398)" fill="#f77"/>
      <path id="Path_491" data-name="Path 491" d="M192.291,5.749a.359.359,0,0,0,.06-.005.342.342,0,0,0,.278-.4L192.389,4a.342.342,0,0,0-.674.119l.239,1.348a.342.342,0,0,0,.337.283Zm0,0" transform="translate(-183.511 -3.565)" fill="#f77"/>
      <path id="Path_492" data-name="Path 492" d="M153.191,15.875a.342.342,0,0,0,.321.225.329.329,0,0,0,.117-.021.342.342,0,0,0,.205-.438l-.469-1.286a.342.342,0,0,0-.643.234Zm0,0" transform="translate(-146.172 -13.531)" fill="#f77"/>
      <path id="Path_493" data-name="Path 493" d="M116.754,32.822a.342.342,0,1,0,.593-.342l-.684-1.186a.342.342,0,0,0-.593.342Zm0,0" transform="translate(-111.061 -29.794)" fill="#f77"/>
      <path id="Path_494" data-name="Path 494" d="M84.007,56.091a.343.343,0,0,0,.525-.44L83.651,54.6a.342.342,0,0,0-.524.44Zm0,0" transform="translate(-79.501 -52.158)" fill="#f77"/>
      <path id="Path_495" data-name="Path 495" d="M55.576,84.492a.342.342,0,0,0,.44-.524l-1.048-.88a.342.342,0,0,0-.44.524Zm0,0" transform="translate(-52.084 -79.462)" fill="#f77"/>
      <path id="Path_496" data-name="Path 496" d="M31.3,116.663l1.185.684a.342.342,0,1,0,.342-.593l-1.185-.684a.342.342,0,0,0-.342.593Zm0,0" transform="translate(-29.801 -111.062)" fill="#f77"/>
      <path id="Path_497" data-name="Path 497" d="M14.355,153.366l1.286.468a.337.337,0,0,0,.117.021.342.342,0,0,0,.117-.664l-1.286-.468a.342.342,0,0,0-.234.643Zm0,0" transform="translate(-13.531 -146.172)" fill="#f77"/>
      <path id="Path_498" data-name="Path 498" d="M3.805,192.352l1.348.238a.377.377,0,0,0,.06.005.342.342,0,0,0,.059-.679l-1.348-.239a.342.342,0,1,0-.119.674Zm0,0" transform="translate(-3.371 -183.472)" fill="#f77"/>
    </g>
  </g>
</svg>
