<svg xmlns="http://www.w3.org/2000/svg" width="53.317" height="60.97" viewBox="0 0 53.317 60.97">
  <g id="arrow" transform="translate(-0.001)">
    <path id="Path_501" data-name="Path 501" d="M44,11.523,33.875,1.4A4.093,4.093,0,0,0,31.02,0c-1.475,0-2.963,1.178-2.963,3.808V6.592A30.074,30.074,0,0,0,.014,32.915a1.786,1.786,0,0,0,3.214,1.272,25.2,25.2,0,0,1,24.829-9.952V27.3a4.661,4.661,0,0,0,.578,2.427,2.745,2.745,0,0,0,2.385,1.382,4.1,4.1,0,0,0,2.855-1.4L44,19.586a5.708,5.708,0,0,0,0-8.063Zm0,0" transform="translate(0)" fill="#00d8e0"/>
    <path id="Path_502" data-name="Path 502" d="M108.79,218.892a1.787,1.787,0,0,0-2.1.606,25.2,25.2,0,0,1-24.829,9.952v-3.065c0-2.63-1.488-3.808-2.963-3.808a4.092,4.092,0,0,0-2.855,1.4L65.92,234.1a5.709,5.709,0,0,0,0,8.064l10.125,10.124a4.091,4.091,0,0,0,2.855,1.4c1.475,0,2.963-1.178,2.963-3.808v-2.784a30.073,30.073,0,0,0,28.043-26.323,1.786,1.786,0,0,0-1.115-1.878Zm0,0" transform="translate(-56.601 -192.716)" fill="#54e360"/>
    <path id="Path_503" data-name="Path 503" d="M225.264,27.3a4.661,4.661,0,0,0,.578,2.427,2.745,2.745,0,0,0,2.385,1.382,4.1,4.1,0,0,0,2.855-1.4l10.124-10.125a5.708,5.708,0,0,0,0-8.063L231.083,1.4A4.093,4.093,0,0,0,228.228,0c-1.475,0-2.963,1.178-2.963,3.808V6.593q-.7.042-1.4.116V24.026c.467.058.934.127,1.4.21Zm0,0" transform="translate(-197.208 0)" fill="#00acb3"/>
    <path id="Path_504" data-name="Path 504" d="M249.4,218.892a1.787,1.787,0,0,0-2.1.606,25.178,25.178,0,0,1-23.431,10.161v17.317a30.075,30.075,0,0,0,26.646-26.206,1.786,1.786,0,0,0-1.115-1.878Zm0,0" transform="translate(-197.208 -192.716)" fill="#00ab5e"/>
  </g>
</svg>
