<svg id="bet" xmlns="http://www.w3.org/2000/svg" width="52.239" height="63.682" viewBox="0 0 52.239 63.682">
  <path id="Path_453" data-name="Path 453" d="M148.146,369.718H117.4l4.515-13.819h21.716Z" transform="translate(-108.519 -311.633)" fill="#6f7d96"/>
  <path id="Path_454" data-name="Path 454" d="M256.373,369.718H241V355.9h10.858Z" transform="translate(-216.746 -311.633)" fill="#66728b"/>
  <path id="Path_455" data-name="Path 455" d="M227.866,0,226,2.487V21.423l1.866,2.955,1.71.155,13.643-13.643,1.8-3.663A24.287,24.287,0,0,0,227.866,0Z" transform="translate(-203.612)" fill="#f40f78"/>
  <path id="Path_456" data-name="Path 456" d="M258.15,58.114,241,75.264l2.333,1.866h20.211l1.71-1.866A24.178,24.178,0,0,0,258.15,58.114Z" transform="translate(-216.746 -50.886)" fill="#ffbc33"/>
  <path id="Path_457" data-name="Path 457" d="M241,196l.472,2.338,12.944,12.944,3.734,1.868a24.178,24.178,0,0,0,7.1-17.15Z" transform="translate(-216.746 -171.622)" fill="#f40f78"/>
  <path id="Path_458" data-name="Path 458" d="M227.866,196,226,198.957v18.966l1.866,2.331a24.178,24.178,0,0,0,17.15-7.1Z" transform="translate(-203.612 -171.622)" fill="#ffbc33"/>
  <path id="Path_459" data-name="Path 459" d="M103.114,213.15a24.178,24.178,0,0,0,17.15,7.1V196l-3.459,1.594-13.6,13.6Z" transform="translate(-96.01 -171.622)" fill="#ff507e"/>
  <path id="Path_460" data-name="Path 460" d="M46,182.866a24.178,24.178,0,0,0,7.1,17.15l17.15-17.15L67.845,181H49.188Z" transform="translate(-46 -158.488)" fill="#ffda2d"/>
  <path id="Path_461" data-name="Path 461" d="M53.1,58.114A24.178,24.178,0,0,0,46,75.264H70.254l-1.317-3.183L55.223,58.367Z" transform="translate(-46 -50.886)" fill="#ff507e"/>
  <path id="Path_462" data-name="Path 462" d="M103.114,7.228l17.15,17.15V0A24.287,24.287,0,0,0,103.114,7.228Z" transform="translate(-96.01)" fill="#ffda2d"/>
  <path id="Path_463" data-name="Path 463" d="M117.045,455.731a3.742,3.742,0,0,1-3.731,3.731H79.731a3.731,3.731,0,1,1,0-7.463h33.582A3.742,3.742,0,0,1,117.045,455.731Z" transform="translate(-72.269 -395.781)" fill="#495a79"/>
  <path id="Path_464" data-name="Path 464" d="M261.522,455.731a3.742,3.742,0,0,1-3.731,3.731H241V452h16.791A3.742,3.742,0,0,1,261.522,455.731Z" transform="translate(-216.746 -395.781)" fill="#42516d"/>
  <path id="Path_465" data-name="Path 465" d="M358.239,136.176l-11.194,5.6a1.872,1.872,0,0,0,0,3.358l11.194,5.6a1.873,1.873,0,0,0,2.686-1.679V137.855A1.873,1.873,0,0,0,358.239,136.176Z" transform="translate(-308.687 -119.074)" fill="#495a79"/>
  <path id="Path_466" data-name="Path 466" d="M360.925,196v5.6a1.873,1.873,0,0,1-2.686,1.679l-11.194-5.6A1.91,1.91,0,0,1,346,196Z" transform="translate(-308.687 -171.622)" fill="#42516d"/>
  <path id="Path_467" data-name="Path 467" d="M207.194,156.6a5.6,5.6,0,1,1-5.6-5.6A5.59,5.59,0,0,1,207.194,156.6Z" transform="translate(-177.343 -132.219)" fill="#495a79"/>
  <path id="Path_468" data-name="Path 468" d="M246.6,156.6a5.59,5.59,0,0,1-5.6,5.6V151A5.589,5.589,0,0,1,246.6,156.6Z" transform="translate(-216.746 -132.219)" fill="#42516d"/>
  <path id="Path_469" data-name="Path 469" d="M229.731,182.866A1.866,1.866,0,1,1,227.866,181,1.848,1.848,0,0,1,229.731,182.866Z" transform="translate(-203.612 -158.488)" fill="#e1e4fb"/>
  <path id="Path_470" data-name="Path 470" d="M242.866,182.866A1.848,1.848,0,0,1,241,184.731V181A1.847,1.847,0,0,1,242.866,182.866Z" transform="translate(-216.746 -158.488)" fill="#a8aff1"/>
</svg>
