<svg id="buy" xmlns="http://www.w3.org/2000/svg" width="61" height="61" viewBox="0 0 61 61">
  <circle id="Ellipse_59" data-name="Ellipse 59" cx="30.5" cy="30.5" r="30.5" fill="#ff7069"/>
  <path id="Path_507" data-name="Path 507" d="M260.539,334l6.187-3.732c1.433-.866,2.2.795,1.334,1.277l-4.839,2.668Z" transform="translate(-229.588 -290.819)" fill="#fec982"/>
  <g id="Group_123" data-name="Group 123" transform="translate(0.837 36.276)">
    <path id="Path_508" data-name="Path 508" d="M283.356,328.374,290,324.287c1.561-.965,2.384.993,1.533,1.49l-4.555,2.668-3.619-.057v-.014Z" transform="translate(-250.532 -321.806)" fill="#ffd190"/>
    <path id="Path_509" data-name="Path 509" d="M23.822,313.349l-12.6,2.881a30.564,30.564,0,0,1-4.172-9.593L22.786,305.6c2.526-.355,4.853-.341,5.889.227,1.831,1.022,1.632,3.25,5.818,4.413l5.975,1.036,9.593-2.356c1.76-.312,2.114,1.66.951,2.129l-12.886,4.57C36.4,316.229,32.223,314.824,23.822,313.349Z" transform="translate(-7.048 -305.362)" fill="#ffd190"/>
  </g>
  <path id="Path_510" data-name="Path 510" d="M189.429,351.209c.653.7-.653,1.079-2.512,1.476-1.334.284-3.122.624-3.988.837-1.675.057-5.975-.965-9-2.072,1.547-.028,8.018,1.9,9.04,1.7s5.918-1.49,6.244-1.675S189.386,351.322,189.429,351.209Z" transform="translate(-153.27 -309.487)" fill="#f0b97d"/>
  <path id="Path_511" data-name="Path 511" d="M15.658,300.558l1.689,12.5L11.2,314.139a30.166,30.166,0,0,1-5.946-12.772Z" transform="translate(-4.632 -264.853)" fill="#6b7f9e"/>
  <path id="Path_512" data-name="Path 512" d="M95.09,301.275,96.736,313l-2.271.3-1.646-11.736Z" transform="translate(-81.792 -265.485)" fill="#fff"/>
  <path id="Path_513" data-name="Path 513" d="M85.457,385.944a.83.83,0,1,1-.937-.738A.838.838,0,0,1,85.457,385.944Z" transform="translate(-73.848 -339.44)" fill="#8597b1"/>
  <path id="Path_514" data-name="Path 514" d="M158.7,305.209c3.136-.5,5.222,1.348,6.8,3.562l2.852.667a10.81,10.81,0,0,1,4.1-.142c1.419.44,1.859,1.589,1.306,1.9s-5.222,1.135-6.244,1.334-6.854-1.008-9.026-1.689-3.448-4.853.213-5.648Z" transform="translate(-137.807 -268.88)" fill="#ffd190"/>
  <path id="Path_515" data-name="Path 515" d="M366.572,348.422l1.518-.5c.185-.057.028-.539-.213-.539s-1.618.341-1.618.341A.93.93,0,0,1,366.572,348.422Z" transform="translate(-322.75 -306.118)" fill="#fff1df"/>
  <path id="Path_516" data-name="Path 516" d="M282.544,348.961l1.93-.426c.156-.028.028-.78-.341-.937a7.347,7.347,0,0,0-1.973.185,3.622,3.622,0,0,1,.369,1.164Z" transform="translate(-248.641 -306.274)" fill="#fff"/>
  <path id="Path_517" data-name="Path 517" d="M220.411,135.993l4.2-.326a8.767,8.767,0,0,0,2.185-1.036l-1.518-2.554-3.917-.468-3.023,2.781-1.164,2.384c-.7,1.249-2.98,1.008-2.427-.582l1.32-3.988s3.307-3.562,4.527-4.059,9.806-.922,9.806-.922,7.025,3.832,9.636,5.492l8.288-.114a30.479,30.479,0,0,1,1.533,7.124l-10.445-.241s-6.642,1.291-8.9.965a43.345,43.345,0,0,1-5.407-1.306s-3.959.071-5.08-.44a1.372,1.372,0,0,1,.4-2.711h-.014Z" transform="translate(-189.162 -112.109)" fill="#ffd190"/>
  <path id="Path_518" data-name="Path 518" d="M213.491,198.555l.454.184-.383,1.164s-.454.213-.383-.284a5.36,5.36,0,0,1,.312-1.079v.014Z" transform="translate(-187.847 -174.955)" fill="#fff"/>
  <path id="Path_519" data-name="Path 519" d="M188.863,166.569c-.043-.184-.085-.369-.142-.553a5.911,5.911,0,0,0-1.306-2.214,5.807,5.807,0,1,0,.568,7.266,5.627,5.627,0,0,0,.852-1.9c.043-.17.071-.341.1-.511a5.974,5.974,0,0,0,.071-.88,5.874,5.874,0,0,0-.128-1.235h0Z" transform="translate(-156.322 -142.742)" fill="#ffe356"/>
  <path id="Path_520" data-name="Path 520" d="M190.487,168.732c-.043-.17-.085-.355-.142-.525a5.449,5.449,0,0,0-1.249-2.1,5.535,5.535,0,1,0,.539,6.939,5.393,5.393,0,0,0,.809-1.816c.043-.156.071-.326.1-.5a5.416,5.416,0,0,0,.057-.837,5.348,5.348,0,0,0-.128-1.178h0Z" transform="translate(-158.217 -144.848)" fill="#fcd34e"/>
  <g id="Group_124" data-name="Group 124" transform="translate(22.536 20.733)">
    <path id="Path_521" data-name="Path 521" d="M194.028,174.529a4.328,4.328,0,1,0,4.328,4.328,4.327,4.327,0,0,0-4.328-4.328Zm0,.539a3.789,3.789,0,1,1-3.789,3.789A3.8,3.8,0,0,1,194.028,175.068Z" transform="translate(-189.7 -174.529)" fill="#ffe356"/>
    <path id="Path_522" data-name="Path 522" d="M215.057,194.037v-.61a2.576,2.576,0,0,1-1.107-.284l.2-.766a2.2,2.2,0,0,0,1.079.284c.369,0,.624-.142.624-.4s-.213-.4-.681-.568c-.7-.227-1.164-.553-1.164-1.192a1.186,1.186,0,0,1,1.093-1.149v-.61h.639v.568a2.274,2.274,0,0,1,.937.213l-.185.738a2.153,2.153,0,0,0-.937-.227c-.426,0-.553.184-.553.369,0,.213.227.355.78.553.766.27,1.079.624,1.079,1.22a1.256,1.256,0,0,1-1.149,1.206v.667h-.639Z" transform="translate(-211.069 -187.055)" fill="#ffe356"/>
  </g>
  <path id="Path_523" data-name="Path 523" d="M251.927,190.943c1.859-.142,3.59-.3,4.2-.326a8.767,8.767,0,0,0,2.185-1.036s4.13,1.7,3.86,3.42-.639,1.774-1.107,2.242c-2.1-.412-4.456-1.135-4.456-1.135s-3.959.071-5.08-.44a1.372,1.372,0,0,1,.4-2.711v-.014Z" transform="translate(-220.678 -167.059)" fill="#ffd190"/>
  <path id="Path_524" data-name="Path 524" d="M431.843,158.586l.7,11.012,2.909-.184-.7-11.012Z" transform="translate(-380.542 -139.584)" fill="#fff"/>
  <path id="Path_525" data-name="Path 525" d="M451.927,146.108l.852,13.326,6.272-.1v-.511a30.394,30.394,0,0,0-2.952-13.084l-4.186.355Z" transform="translate(-398.227 -128.426)" fill="#6b7f9e"/>
  <path id="Path_526" data-name="Path 526" d="M251.057,214.007l2.015-.057v1.22a6.037,6.037,0,0,1-2.072-.2.626.626,0,0,1,.057-.951Z" transform="translate(-221.015 -188.534)" fill="#fff"/>
  <path id="Path_527" data-name="Path 527" d="M470.831,240.085a.83.83,0,1,1-.937-.738A.838.838,0,0,1,470.831,240.085Z" transform="translate(-413.441 -210.908)" fill="#8597b1"/>
</svg>
