<svg xmlns="http://www.w3.org/2000/svg" width="20.96" height="18.422" viewBox="0 0 20.96 18.422">
  <g id="buy_tab" transform="translate(0 0)">
    <path id="Path_528" data-name="Path 528" d="M6.753,12.282H17.89a.614.614,0,0,0,.59-.445l2.456-8.6a.614.614,0,0,0-.59-.783H5.337L4.9.481A.614.614,0,0,0,4.3,0H.614a.614.614,0,0,0,0,1.228H3.806l2.217,9.977a1.842,1.842,0,0,0,.732,3.533H17.89a.614.614,0,1,0,0-1.228H6.755a.614.614,0,0,1,0-1.228Zm12.779-8.6-2.105,7.369H7.247L5.61,3.685Zm0,0" fill="#f77"/>
    <path id="Path_529" data-name="Path 529" d="M150,361.842A1.842,1.842,0,1,0,151.842,360,1.844,1.844,0,0,0,150,361.842Zm1.842-.614a.614.614,0,1,1-.614.614A.615.615,0,0,1,151.842,361.228Zm0,0" transform="translate(-143.859 -345.262)" fill="#f77"/>
    <path id="Path_530" data-name="Path 530" d="M362,361.842A1.842,1.842,0,1,0,363.842,360,1.844,1.844,0,0,0,362,361.842Zm1.842-.614a.614.614,0,1,1-.614.614A.615.615,0,0,1,363.842,361.228Zm0,0" transform="translate(-347.18 -345.262)" fill="#f77"/>
  </g>
</svg>
