<svg xmlns="http://www.w3.org/2000/svg" width="29.875" height="27.159" viewBox="0 0 29.875 27.159">
  <g id="cash" transform="translate(-5.464 -8.607)">
    <g id="money" transform="translate(5.464 8.607)">
      <path id="Path_88" data-name="Path 88" d="M28.517,40.925H1.358A1.362,1.362,0,0,1,0,39.568V24.63a1.362,1.362,0,0,1,1.358-1.358H28.517a1.362,1.362,0,0,1,1.358,1.358V39.568A1.362,1.362,0,0,1,28.517,40.925Z" transform="translate(0 -23.272)" fill="#0e9347"/>
      <path id="Path_89" data-name="Path 89" d="M256.323,232.727a4.544,4.544,0,0,0-3.8,1.969,5.064,5.064,0,0,0-2.309-.611,4.751,4.751,0,0,0-4.685,4.074h14.191A1.381,1.381,0,0,0,261.076,237,4.836,4.836,0,0,0,256.323,232.727Z" transform="translate(-231.201 -220.505)" fill="#0d8944"/>
      <path id="Path_90" data-name="Path 90" d="M47.716,61.483H25.989a2.724,2.724,0,0,0-2.716-2.716V49.262a2.724,2.724,0,0,0,2.716-2.716H47.716a2.724,2.724,0,0,0,2.716,2.716v9.506A2.724,2.724,0,0,0,47.716,61.483Z" transform="translate(-21.915 -45.188)" fill="#3bb54a"/>
      <g id="Group_15" data-name="Group 15" transform="translate(5.432 2.716)">
        <path id="Path_91" data-name="Path 91" d="M262.9,232.727a4.544,4.544,0,0,0-3.8,1.969,5.064,5.064,0,0,0-2.308-.611,4.664,4.664,0,0,0-4.278,2.716h11.067a2.71,2.71,0,0,1,2.648-2.716A4.908,4.908,0,0,0,262.9,232.727Z" transform="translate(-243.207 -223.221)" fill="#0e9347"/>
        <ellipse id="Ellipse_18" data-name="Ellipse 18" cx="5.432" cy="6.111" rx="5.432" ry="6.111" transform="translate(4.074 0)" fill="#0e9347"/>
        <circle id="Ellipse_19" data-name="Ellipse 19" cx="1.358" cy="1.358" r="1.358" transform="translate(0 4.753)" fill="#0e9347"/>
        <circle id="Ellipse_20" data-name="Ellipse 20" cx="1.358" cy="1.358" r="1.358" transform="translate(16.295 4.753)" fill="#0e9347"/>
      </g>
      <path id="Path_92" data-name="Path 92" d="M212.85,108.124h-1.358a.679.679,0,0,1,0-1.358h2.037a.679.679,0,1,0,0-1.358h-.679a.679.679,0,0,0-1.358,0,2.037,2.037,0,0,0,0,4.074h1.358a.679.679,0,1,1,0,1.358h-2.037a.679.679,0,0,0,0,1.358h.679a.679.679,0,0,0,1.358,0,2.037,2.037,0,0,0,0-4.074Z" transform="translate(-197.233 -99.976)" fill="#89c763"/>
      <circle id="Ellipse_21" data-name="Ellipse 21" cx="4.753" cy="4.753" r="4.753" transform="translate(12.901 13.58)" fill="#ffca5d"/>
      <circle id="Ellipse_22" data-name="Ellipse 22" cx="4.753" cy="4.753" r="4.753" transform="translate(19.011 12.222)" fill="#f6b545"/>
      <path id="Path_93" data-name="Path 93" d="M330.571,232.727a4.753,4.753,0,1,0,4.753,4.753A4.724,4.724,0,0,0,330.571,232.727Zm0,8.148a3.395,3.395,0,1,1,3.395-3.395A3.362,3.362,0,0,1,330.571,240.875Z" transform="translate(-306.807 -220.505)" fill="#ffcb5b"/>
      <path id="Path_94" data-name="Path 94" d="M407.273,318.867h0a4.667,4.667,0,0,0,4.753-4.685h-.068a.722.722,0,0,0-.679.611,4.105,4.105,0,0,1-1.29,2.444,3.847,3.847,0,0,1-2.1,1.018A.609.609,0,0,0,407.273,318.867Z" transform="translate(-383.509 -297.207)" fill="#f6b545"/>
      <path id="Path_95" data-name="Path 95" d="M330.571,233.866h0a4.667,4.667,0,0,0-4.753,4.685h.068a.722.722,0,0,0,.679-.611,4.105,4.105,0,0,1,1.29-2.444,3.848,3.848,0,0,1,2.1-1.018A.608.608,0,0,0,330.571,233.866Z" transform="translate(-306.807 -221.576)" fill="#ffe27a"/>
      <path id="Path_96" data-name="Path 96" d="M349.566,259.87a3.362,3.362,0,0,1,3.395-3.395,3.2,3.2,0,0,1,2.173.815,3.384,3.384,0,0,0-6.043,2.1,3.255,3.255,0,0,0,1.222,2.58A3.184,3.184,0,0,1,349.566,259.87Z" transform="translate(-328.722 -242.42)" fill="#f19920"/>
      <path id="Path_97" data-name="Path 97" d="M437.251,310.808a.249.249,0,0,1-.2-.068.328.328,0,0,1,0-.475,2.266,2.266,0,0,0,.611-1.562.34.34,0,1,1,.679,0,3.135,3.135,0,0,1-.747,2.037A.738.738,0,0,1,437.251,310.808Z" transform="translate(-411.45 -291.729)" fill="#ffcb5b"/>
      <g id="Group_16" data-name="Group 16" transform="translate(19.079 13.58)">
        <path id="Path_98" data-name="Path 98" d="M396.316,283.348a.641.641,0,0,1-.679-.679v-2.716a.679.679,0,1,1,1.358,0v2.716A.641.641,0,0,1,396.316,283.348Z" transform="translate(-391.631 -277.916)" fill="#f19920"/>
        <path id="Path_99" data-name="Path 99" d="M334.178,263.4a5.517,5.517,0,0,0-3.259-3.666,5.676,5.676,0,0,0-2.58-3.734,4.908,4.908,0,0,0-1.358,3.327,4.724,4.724,0,0,0,4.753,4.753A3.938,3.938,0,0,0,334.178,263.4Z" transform="translate(-326.981 -256)" fill="#f19920"/>
      </g>
      <g id="Group_17" data-name="Group 17" transform="translate(20.369 14.462)">
        <path id="Path_100" data-name="Path 100" d="M350.312,276.22a3.571,3.571,0,0,1-.815-2.173,3.287,3.287,0,0,1,1.086-2.444,2.953,2.953,0,0,0-.407-.475,3.326,3.326,0,0,0-1.086,2.512A3.256,3.256,0,0,0,350.312,276.22Z" transform="translate(-349.09 -271.128)" fill="#e78825"/>
        <path id="Path_101" data-name="Path 101" d="M395.636,321.164v.951a.679.679,0,0,0,1.358,0v-.136A5.547,5.547,0,0,0,395.636,321.164Z" transform="translate(-392.92 -318.244)" fill="#e78825"/>
      </g>
      <path id="Path_102" data-name="Path 102" d="M333.083,264.5a4.34,4.34,0,0,0-.543-1.29,3.285,3.285,0,0,1-1.969.679,3.362,3.362,0,0,1-3.395-3.395,3.326,3.326,0,0,1,1.086-2.512,4.142,4.142,0,0,0-1.086-.815,4.908,4.908,0,0,0-1.358,3.327,4.724,4.724,0,0,0,4.753,4.753A4.552,4.552,0,0,0,333.083,264.5Z" transform="translate(-306.807 -243.515)" fill="#f6b545"/>
      <path id="Path_103" data-name="Path 103" d="M409.581,372.364a4.693,4.693,0,0,1-1.7.679.722.722,0,0,0-.611.679h0a4.553,4.553,0,0,0,2.512-.747Z" transform="translate(-383.508 -351.995)" fill="#f19920"/>
      <path id="Path_104" data-name="Path 104" d="M327.176,257.164a4.908,4.908,0,0,0-1.358,3.327h.068a.722.722,0,0,0,.679-.611,4.225,4.225,0,0,1,1.222-2.376A2.755,2.755,0,0,1,327.176,257.164Z" transform="translate(-306.807 -243.516)" fill="#ffcb5b"/>
      <circle id="Ellipse_23" data-name="Ellipse 23" cx="4.753" cy="4.753" r="4.753" transform="translate(12.901 13.58)" fill="#f6b545"/>
      <path id="Path_105" data-name="Path 105" d="M290.909,318.934a4.7,4.7,0,0,0,.2,1.358h.475a4.737,4.737,0,0,0,4.549-6.111h-.475A4.724,4.724,0,0,0,290.909,318.934Z" transform="translate(-273.935 -297.206)" fill="#f19920"/>
      <path id="Path_106" data-name="Path 106" d="M225.843,256a4.753,4.753,0,1,0,4.753,4.753A4.724,4.724,0,0,0,225.843,256Zm0,8.148a3.395,3.395,0,1,1,3.395-3.395A3.362,3.362,0,0,1,225.843,264.148Z" transform="translate(-208.189 -242.42)" fill="#ffcb5b"/>
      <path id="Path_107" data-name="Path 107" d="M302.545,342.14h0a4.667,4.667,0,0,0,4.753-4.685h-.068a.722.722,0,0,0-.679.611,4.105,4.105,0,0,1-1.29,2.444,3.847,3.847,0,0,1-2.1,1.018A.608.608,0,0,0,302.545,342.14Z" transform="translate(-284.892 -319.122)" fill="#f6b545"/>
      <path id="Path_108" data-name="Path 108" d="M225.843,257.139h0a4.667,4.667,0,0,0-4.753,4.685h.068a.722.722,0,0,0,.679-.611,4.105,4.105,0,0,1,1.29-2.444,3.847,3.847,0,0,1,2.1-1.018A.608.608,0,0,0,225.843,257.139Z" transform="translate(-208.189 -243.491)" fill="#ffe27a"/>
      <path id="Path_109" data-name="Path 109" d="M244.838,283.143a3.362,3.362,0,0,1,3.395-3.395,3.2,3.2,0,0,1,2.173.815,3.384,3.384,0,0,0-6.043,2.1,3.255,3.255,0,0,0,1.222,2.58A3.185,3.185,0,0,1,244.838,283.143Z" transform="translate(-230.104 -264.335)" fill="#f19920"/>
      <path id="Path_110" data-name="Path 110" d="M332.524,334.08a.25.25,0,0,1-.2-.068.328.328,0,0,1,0-.475,2.266,2.266,0,0,0,.611-1.562.339.339,0,0,1,.679,0,3.135,3.135,0,0,1-.747,2.037A.739.739,0,0,1,332.524,334.08Z" transform="translate(-312.834 -313.643)" fill="#ffcb5b"/>
      <path id="Path_111" data-name="Path 111" d="M291.588,306.621a.641.641,0,0,1-.679-.679v-2.716a.679.679,0,1,1,1.358,0v2.716A.641.641,0,0,1,291.588,306.621Z" transform="translate(-273.935 -286.251)" fill="#f19920"/>
      <g id="Group_18" data-name="Group 18" transform="translate(16.295 16.974)">
        <path id="Path_112" data-name="Path 112" d="M294.712,314.249a3.97,3.97,0,0,1,.272,1.29,3.362,3.362,0,0,1-3.395,3.395,2.309,2.309,0,0,1-.679-.068v.068a4.705,4.705,0,0,0,.2,1.358h.475a4.737,4.737,0,0,0,4.549-6.111h-.475A4.485,4.485,0,0,0,294.712,314.249Z" transform="translate(-290.231 -314.181)" fill="#f6b545"/>
        <circle id="Ellipse_24" data-name="Ellipse 24" cx="4.753" cy="4.753" r="4.753" transform="translate(0 0.679)" fill="#f6b545"/>
      </g>
      <path id="Path_113" data-name="Path 113" d="M284.025,325.818a4.753,4.753,0,1,0,4.753,4.753A4.724,4.724,0,0,0,284.025,325.818Zm0,8.148a3.395,3.395,0,1,1,3.395-3.395A3.362,3.362,0,0,1,284.025,333.966Z" transform="translate(-262.977 -308.165)" fill="#ffcb5b"/>
      <path id="Path_114" data-name="Path 114" d="M360.727,411.958h0a4.667,4.667,0,0,0,4.753-4.685h-.068a.722.722,0,0,0-.679.611,4.105,4.105,0,0,1-1.29,2.444,3.847,3.847,0,0,1-2.1,1.018A.609.609,0,0,0,360.727,411.958Z" transform="translate(-339.679 -384.867)" fill="#f6b545"/>
      <path id="Path_115" data-name="Path 115" d="M284.025,326.957h0a4.667,4.667,0,0,0-4.753,4.685h.068a.722.722,0,0,0,.679-.611,4.105,4.105,0,0,1,1.29-2.444,3.847,3.847,0,0,1,2.1-1.018A.609.609,0,0,0,284.025,326.957Z" transform="translate(-262.977 -309.236)" fill="#ffe27a"/>
      <path id="Path_116" data-name="Path 116" d="M303.02,352.961a3.362,3.362,0,0,1,3.395-3.395,3.2,3.2,0,0,1,2.173.815,3.384,3.384,0,0,0-6.043,2.1,3.255,3.255,0,0,0,1.222,2.58A3.184,3.184,0,0,1,303.02,352.961Z" transform="translate(-284.892 -330.079)" fill="#f19920"/>
      <path id="Path_117" data-name="Path 117" d="M390.705,403.9a.249.249,0,0,1-.2-.068.328.328,0,0,1,0-.475,2.266,2.266,0,0,0,.611-1.562.339.339,0,0,1,.679,0,3.135,3.135,0,0,1-.747,2.037A.738.738,0,0,1,390.705,403.9Z" transform="translate(-367.62 -379.387)" fill="#ffcb5b"/>
      <path id="Path_118" data-name="Path 118" d="M349.77,376.438a.641.641,0,0,1-.679-.679v-2.716a.679.679,0,0,1,1.358,0v2.716A.641.641,0,0,1,349.77,376.438Z" transform="translate(-328.722 -351.995)" fill="#f19920"/>
    </g>
  </g>
</svg>
