<svg xmlns="http://www.w3.org/2000/svg" width="26.614" height="26.614" viewBox="0 0 26.614 26.614">
  <g id="coins" transform="translate(-9.837 -7.44)">
    <g id="cost" transform="translate(9.837 7.44)">
      <path id="Path_71" data-name="Path 71" d="M10.188,169.6a7.491,7.491,0,0,0-.827.031H9.315C4.2,170.117,0,174.972,0,180.383c0,6.285,5.838,7.017,10.188,7.017,4.32,0,9.357-.655,10.058-5.817.733-6.051-4.07-11.982-10.058-11.982Zm0,0" transform="translate(0 -160.786)" fill="#ff637b"/>
      <path id="Path_72" data-name="Path 72" d="M206.058,181.584c-.7,5.162-5.739,5.817-10.058,5.817V169.6C201.988,169.6,206.791,175.533,206.058,181.584Zm0,0" transform="translate(-185.812 -160.786)" fill="#e63950"/>
      <path id="Path_73" data-name="Path 73" d="M101.835,2.589l-1.559,4.73h-7.7l-1.559-4.73a.752.752,0,0,1,.093-.7.813.813,0,0,1,.639-.328h2.479a2.33,2.33,0,0,1,4.4,0H101.1a.813.813,0,0,1,.639.328.751.751,0,0,1,.093.7Zm0,0" transform="translate(-86.235 0)" fill="#ff637b"/>
      <path id="Path_74" data-name="Path 74" d="M201.411,2.589l-1.559,4.73H196V0a2.347,2.347,0,0,1,2.2,1.559h2.48a.813.813,0,0,1,.639.328.752.752,0,0,1,.093.7Zm0,0" transform="translate(-185.812 0)" fill="#e63950"/>
      <path id="Path_75" data-name="Path 75" d="M155.377,249.251a2.313,2.313,0,0,1-1.544,2.183v.7a.78.78,0,0,1-1.559,0v-.686a2.361,2.361,0,0,1-1.575-2.2.782.782,0,0,1,.78-.78.772.772,0,0,1,.78.78.792.792,0,0,0,.78.78h.016a.778.778,0,0,0,.764-.78.769.769,0,0,0-.764-.78h-.016a2.356,2.356,0,0,1-2.339-2.339,2.331,2.331,0,0,1,1.575-2.2V242.78a.78.78,0,1,1,1.559,0v1.154a2.333,2.333,0,0,1,1.544,2.2.782.782,0,0,1-.78.78.792.792,0,0,1-.78-.78.769.769,0,0,0-.764-.78h-.016a.782.782,0,0,0-.78.78.792.792,0,0,0,.78.78h.016A2.333,2.333,0,0,1,155.377,249.251Zm0,0" transform="translate(-142.866 -229.421)" fill="#ffda2d"/>
      <path id="Path_76" data-name="Path 76" d="M311.968,273.559a1.564,1.564,0,0,1-1.56,1.559l-3.95,1.559-3.9-1.559a1.559,1.559,0,0,1,0-3.119h7.849A1.564,1.564,0,0,1,311.968,273.559Zm0,0" transform="translate(-285.354 -257.861)" fill="#ffda2d"/>
      <path id="Path_77" data-name="Path 77" d="M411.51,273.559a1.564,1.564,0,0,1-1.559,1.559L406,276.678V272h3.951A1.564,1.564,0,0,1,411.51,273.559Zm0,0" transform="translate(-384.896 -257.861)" fill="#fdbf00"/>
      <path id="Path_78" data-name="Path 78" d="M311.968,333.559a1.564,1.564,0,0,1-1.56,1.559l-3.95,1.559-3.9-1.559a1.559,1.559,0,0,1,0-3.119h7.849A1.564,1.564,0,0,1,311.968,333.559Zm0,0" transform="translate(-285.354 -314.742)" fill="#fdbf00"/>
      <path id="Path_79" data-name="Path 79" d="M411.51,333.559a1.564,1.564,0,0,1-1.559,1.559L406,336.678V332h3.951A1.564,1.564,0,0,1,411.51,333.559Zm0,0" transform="translate(-384.896 -314.742)" fill="#ff9100"/>
      <path id="Path_80" data-name="Path 80" d="M311.968,393.559a1.564,1.564,0,0,1-1.56,1.559l-3.95,1.559-3.9-1.559a1.559,1.559,0,0,1,0-3.119h7.849A1.564,1.564,0,0,1,311.968,393.559Zm0,0" transform="translate(-285.354 -371.624)" fill="#ffda2d"/>
      <path id="Path_81" data-name="Path 81" d="M411.51,393.559a1.564,1.564,0,0,1-1.559,1.559L406,396.678V392h3.951A1.564,1.564,0,0,1,411.51,393.559Zm0,0" transform="translate(-384.896 -371.624)" fill="#fdbf00"/>
      <path id="Path_82" data-name="Path 82" d="M311.968,453.559a1.564,1.564,0,0,1-1.56,1.559h-7.849a1.559,1.559,0,1,1,0-3.119h7.849A1.564,1.564,0,0,1,311.968,453.559Zm0,0" transform="translate(-285.354 -428.505)" fill="#fdbf00"/>
      <path id="Path_83" data-name="Path 83" d="M411.51,453.559a1.564,1.564,0,0,1-1.559,1.559H406V452h3.951A1.564,1.564,0,0,1,411.51,453.559Zm0,0" transform="translate(-384.896 -428.505)" fill="#ff9100"/>
      <path id="Path_84" data-name="Path 84" d="M101.916,122.559a1.564,1.564,0,0,1-1.559,1.559h-7.8a1.559,1.559,0,0,1,0-3.119h7.8A1.564,1.564,0,0,1,101.916,122.559Zm0,0" transform="translate(-86.27 -114.71)" fill="#ffda2d"/>
      <g id="Group_11" data-name="Group 11" transform="translate(10.188 6.29)">
        <path id="Path_85" data-name="Path 85" d="M198.323,338.839a2.313,2.313,0,0,1-1.544,2.183v.7a.772.772,0,0,1-.78.78v-2.885a.778.778,0,0,0,.764-.78.769.769,0,0,0-.764-.78V336.5A2.333,2.333,0,0,1,198.323,338.839Zm0,0" transform="translate(-196 -325.298)" fill="#fdbf00"/>
        <path id="Path_86" data-name="Path 86" d="M198.323,246.132a.782.782,0,0,1-.78.78.792.792,0,0,1-.78-.78.769.769,0,0,0-.764-.78V242a.772.772,0,0,1,.78.78v1.154A2.333,2.333,0,0,1,198.323,246.132Zm0,0" transform="translate(-196 -235.71)" fill="#fdbf00"/>
        <path id="Path_87" data-name="Path 87" d="M201.458,122.559a1.564,1.564,0,0,1-1.559,1.559H196V121h3.9A1.564,1.564,0,0,1,201.458,122.559Zm0,0" transform="translate(-196 -121)" fill="#fdbf00"/>
      </g>
    </g>
  </g>
</svg>
