<svg xmlns="http://www.w3.org/2000/svg" width="16.822" height="19.237" viewBox="0 0 16.822 19.237">
  <g id="exchange_tab" transform="translate(-0.001 -0.001)">
    <path id="Path_505" data-name="Path 505" d="M8.853,7.647v.967a1.471,1.471,0,0,0,.182.766.866.866,0,0,0,.752.436,1.292,1.292,0,0,0,.9-.441L13.883,6.18a1.8,1.8,0,0,0,0-2.544L10.688.442A1.291,1.291,0,0,0,9.788,0c-.465,0-.935.372-.935,1.2v.878A9.489,9.489,0,0,0,0,10.386a.564.564,0,0,0,1.014.4,7.951,7.951,0,0,1,7.834-3.14ZM1.634,8.5A8.367,8.367,0,0,1,9.416,3.191a.564.564,0,0,0,.564-.564v-1.3l3.106,3.106a.673.673,0,0,1,0,.95L9.98,8.489v-1.3a.564.564,0,0,0-.434-.548A9.054,9.054,0,0,0,1.634,8.5Zm0,0" fill="#f77"/>
    <path id="Path_506" data-name="Path 506" d="M78.3,218.807a.564.564,0,0,0-.662.191,7.952,7.952,0,0,1-7.834,3.14v-.967c0-.83-.469-1.2-.935-1.2a1.291,1.291,0,0,0-.9.441L64.779,223.6a1.8,1.8,0,0,0,0,2.544l3.194,3.194a1.291,1.291,0,0,0,.9.441c.465,0,.935-.372.935-1.2V227.7a9.489,9.489,0,0,0,8.848-8.305.564.564,0,0,0-.352-.593Zm-9.06,7.787a.564.564,0,0,0-.564.564v1.3l-3.106-3.106a.673.673,0,0,1,0-.95l3.106-3.106v1.3a.564.564,0,0,0,.434.549,9.054,9.054,0,0,0,7.912-1.858,8.367,8.367,0,0,1-7.782,5.308Zm0,0" transform="translate(-61.838 -210.547)" fill="#f77"/>
  </g>
</svg>
