<svg xmlns="http://www.w3.org/2000/svg" xmlns:xlink="http://www.w3.org/1999/xlink" width="80.783" height="69.5" viewBox="0 0 80.783 69.5">
  <defs>
    <linearGradient id="linear-gradient" x1="0.5" y1="1" x2="0.5" gradientUnits="objectBoundingBox">
      <stop offset="0" stop-color="gray" stop-opacity="0.251"/>
      <stop offset="0.54" stop-color="gray" stop-opacity="0.122"/>
      <stop offset="1" stop-color="gray" stop-opacity="0.102"/>
    </linearGradient>
    <linearGradient id="linear-gradient-2" x1="0.5" y1="1" x2="0.5" y2="0" xlink:href="#linear-gradient"/>
  </defs>
  <g id="gaming" transform="translate(0.044 0.008)">
    <path id="Path_145" data-name="Path 145" d="M185.258,67.555c-3.139,5.352-2.711,12.548-1.489,18.2a14.509,14.509,0,0,1,.461,6.028,9.692,9.692,0,0,1-4,5.9c-3.179,2.2-6.761,2.212-9.325.041-2.216-1.876-3.633-5.2-5.9-6.97-3.791-2.965-9.1-1.007-13.747,1.936-3.284,2.083-6.9,4.71-9.874,3.329-2.089-.972-3.348-3.812-3.9-6.92a13.914,13.914,0,0,0-1.071-4.277,4.355,4.355,0,0,0-1.506-1.481c-5.192-3.308-12.362-.3-17.356-4.059-3.374-2.54-5.216-7.892-5.742-13.647s.12-11.937.9-18.03c.553-4.328,1.279-8.966,3.452-12.523,2.3-3.763,5.842-5.5,8.886-5.211s5.652,2.316,7.886,4.812c2.791,3.121,5.286,7.129,8.959,8.078,2.5.646,5.265-.221,7.947-.735a56.024,56.024,0,0,1,13.25-.538c4.182.187,8.387.442,12.257,1.948,2.738,1.066,4.811,3.361,7.361,4.828,1.66.956,3.552,1.042,5.091,2.332a8.369,8.369,0,0,1,2.658,8.378C189.648,62.608,186.927,64.714,185.258,67.555Z" transform="translate(-111.66 -29.85)" fill="#91549c" opacity="0.1"/>
    <path id="Path_146" data-name="Path 146" d="M187,337.893s-5.518-9.14-3.97-17.341A16.172,16.172,0,0,0,181.72,310.4a27.214,27.214,0,0,0-2.6-4.243" transform="translate(-173.581 -283.314)" fill="none" stroke="#535461" stroke-miterlimit="10" stroke-width="2"/>
    <path id="Path_147" data-name="Path 147" d="M141,224.766c.318,1.214-.955,5.312-.955,5.312s-3.122-2.944-3.441-4.158a2.273,2.273,0,0,1,4.4-1.158Z" transform="translate(-134.511 -207.093)" fill="#91549c"/>
    <path id="Path_148" data-name="Path 148" d="M207,280.3c-.392,1.193-3.689,3.939-3.689,3.939s-1.021-4.168-.629-5.36A2.273,2.273,0,1,1,207,280.3Z" transform="translate(-195.112 -256.852)" fill="#91549c"/>
    <path id="Path_149" data-name="Path 149" d="M233.053,408.746c-.94.827-5.173,1.538-5.173,1.538s1.222-4.113,2.163-4.944a2.273,2.273,0,1,1,3.01,3.406Z" transform="translate(-218.308 -373.768)" fill="#91549c"/>
    <path id="Path_150" data-name="Path 150" d="M239.158,523.236c-.787.978-4.838,2.39-4.838,2.39s.509-4.261,1.3-5.239a2.273,2.273,0,1,1,3.542,2.848Z" transform="translate(-224.215 -479.045)" fill="#91549c"/>
    <path id="Path_151" data-name="Path 151" d="M142.835,331.067c1.093.617,5.376.428,5.376.428s-2.051-3.769-3.143-4.384a2.273,2.273,0,1,0-2.233,3.958Z" transform="translate(-139.19 -302.237)" fill="#91549c"/>
    <path id="Path_152" data-name="Path 152" d="M140.708,458.886c1.227.262,5.262-1.2,5.262-1.2s-3.083-2.982-4.313-3.245a2.273,2.273,0,1,0-.949,4.446Z" transform="translate(-136.696 -419.283)" fill="#91549c"/>
    <path id="Path_153" data-name="Path 153" d="M167.333,586.453c1.165.466,5.389-.294,5.389-.294s-2.537-3.461-3.7-3.927a2.273,2.273,0,0,0-1.686,4.218Z" transform="translate(-161.527 -536.429)" fill="#91549c"/>
    <path id="Path_154" data-name="Path 154" d="M141,224.766c.318,1.214-.955,5.312-.955,5.312s-3.122-2.944-3.441-4.158a2.273,2.273,0,0,1,4.4-1.158Z" transform="translate(-134.511 -207.093)" fill="#91549c"/>
    <path id="Path_155" data-name="Path 155" d="M207,280.3c-.392,1.193-3.689,3.939-3.689,3.939s-1.021-4.168-.629-5.36A2.273,2.273,0,1,1,207,280.3Z" transform="translate(-195.112 -256.852)" fill="#91549c"/>
    <path id="Path_156" data-name="Path 156" d="M233.053,408.746c-.94.827-5.173,1.538-5.173,1.538s1.222-4.113,2.163-4.944a2.273,2.273,0,1,1,3.01,3.406Z" transform="translate(-218.308 -373.768)" fill="#fc6681"/>
    <path id="Path_157" data-name="Path 157" d="M239.158,523.236c-.787.978-4.838,2.39-4.838,2.39s.509-4.261,1.3-5.239a2.273,2.273,0,1,1,3.542,2.848Z" transform="translate(-224.215 -479.045)" fill="#fc6681"/>
    <path id="Path_158" data-name="Path 158" d="M142.835,331.067c1.093.617,5.376.428,5.376.428s-2.051-3.769-3.143-4.384a2.273,2.273,0,1,0-2.233,3.958Z" transform="translate(-139.19 -302.237)" fill="#91549c"/>
    <path id="Path_159" data-name="Path 159" d="M140.708,458.886c1.227.262,5.262-1.2,5.262-1.2s-3.083-2.982-4.313-3.245a2.273,2.273,0,1,0-.949,4.446Z" transform="translate(-136.696 -419.283)" fill="#91549c"/>
    <path id="Path_160" data-name="Path 160" d="M167.333,586.453c1.165.466,5.389-.294,5.389-.294s-2.537-3.461-3.7-3.927a2.273,2.273,0,0,0-1.686,4.218Z" transform="translate(-161.527 -536.429)" fill="#91549c"/>
    <ellipse id="Ellipse_27" data-name="Ellipse 27" cx="39.741" cy="2.729" rx="39.741" ry="2.729" transform="translate(1.256 52.891)" fill="#91549c" opacity="0.1"/>
    <path id="Path_161" data-name="Path 161" d="M827.706,287.191s-.066-.089-.158-.188l.026-.009s-1.181-2.952-.918-4.2-1.049-4.264-1.049-4.264-1.936-3.965-1.02-7.129a8.512,8.512,0,0,0,.237-1.136c.274-1.874.177-2.26-.282-2.945l-.05-.074a.58.58,0,0,0,.131-.194c.394-1.05-1.836-2.952-1.243-4.723.548-1.642-.878-5.03-1.089-5.517h0l-.024-.055-.071.023a1.731,1.731,0,0,1,.468-1.136l.013-.013c.2-.181.436-.314.62-.509l.011-.012c.018-.017.037-.035.054-.053a.712.712,0,0,0,.208-.723c-.09-.225-.343-.362-.4-.6a3.123,3.123,0,0,1-.026-.318c-.048-.331-.37-.538-.662-.7a2.5,2.5,0,0,0-1.164-.419c-.567,0-1.075.38-1.638.428a2.317,2.317,0,0,0-.573.057,1.277,1.277,0,0,0-.376.241,1.856,1.856,0,0,0-.184.165.59.59,0,0,0-.231.428.467.467,0,0,0,.161.318,2.1,2.1,0,0,0,.76,3.125c.007.046.013.092.02.141a5.368,5.368,0,0,1-.089,2.188,13.39,13.39,0,0,0-2.673,1.629.248.248,0,0,0-.035.206.281.281,0,0,0-.005.1.9.9,0,0,1-.813-.3c-.787-.721-3.279-2.887-3.279-2.887s-1.115-2.755-1.9-2.233.918,3.083.918,3.083l3.733,4s.132.853,1.509.394c.455-.151.866-.3,1.213-.421l.083.07c-.31,1.815-.471,4.233.673,4.943a1.1,1.1,0,0,1,.19.4c-.006.022-.011.044-.016.065a6.3,6.3,0,0,0-.165,1.1,3.509,3.509,0,0,0-.29,1.566l-.438,6.245a6.326,6.326,0,0,0,.394,2.427c.459,1.05,1.9,6.3.918,6.691l.094.012a3.066,3.066,0,0,1-1.118.817c-.549.131-.4.973.822,1.113s1.364.129,2.22-.585c.754-.629.874-.91.892-.97l.043.006s-.459-1.705,0-2.427-1.049-5.116-1.049-5.116a14.177,14.177,0,0,1,.062-1.682c.232.606.4,1.026.4,1.026s.394,1.9.853,2.233,2.887,4.854,2.493,6.822l-.046.229.111-.032h.01a3.073,3.073,0,0,1-.731,1.184c-.459.331,0,1.05,1.181.721s1.312-.394,1.837-1.377S827.706,287.191,827.706,287.191Z" transform="translate(-752.511 -233.909)" fill="url(#linear-gradient)"/>
    <path id="Path_162" data-name="Path 162" d="M903.727,458.465l-.288-.355a3.43,3.43,0,0,0-.406,1.784L902.6,466a6.174,6.174,0,0,0,.385,2.373c.449,1.026,1.86,6.157.9,6.541l2.882.39s-.449-1.667,0-2.373-1.026-5-1.026-5-.128-3.591,1.09-4.426S903.727,458.465,903.727,458.465Z" transform="translate(-837.224 -422.696)" fill="#555388"/>
    <path id="Path_163" data-name="Path 163" d="M904.088,658.082s-.792.925-1.327,1.053-.386.95.8,1.089,1.333.127,2.171-.572.875-.96.875-.96-.165-.62-.366-.634S904.088,658.082,904.088,658.082Z" transform="translate(-837.099 -606.105)" fill="#603556"/>
    <path id="Path_164" data-name="Path 164" d="M903.929,458.658l-.48-.547a3.431,3.431,0,0,0-.406,1.784L902.614,466a6.177,6.177,0,0,0,.385,2.373c.449,1.026,1.86,6.157.9,6.541l2.881.39s-.449-1.667,0-2.373-1.026-5-1.026-5-.128-3.591,1.09-4.426S903.929,458.658,903.929,458.658Z" transform="translate(-837.233 -422.697)" opacity="0.1"/>
    <path id="Path_165" data-name="Path 165" d="M273.826,249.7s-.8-15.732-4.092-21.3c0,0-2.413-4.407-4.429-5.692V222.2c-3.29-2.278-7.339,0-7.339,0v.225l-.844.7-3.8-.013a1.83,1.83,0,0,0-1.41-.662H234.581a1.83,1.83,0,0,0-1.348.591h-3.945a2.522,2.522,0,0,0-.844-.543v-.3c-3.29-2.278-7.339,0-7.339,0v.611a1.083,1.083,0,0,0-.253.232s-3.332,2.233-4.092,5.019c0,0-4.092,12.274-4.176,21.89s3.628,10.966,5.567,11.219,5.4-.083,8.773-8.6l1.434-4.977s.253-2.953,3.29-1.1,5.736-1.012,5.736-1.012h11.389s3.792,2.359,7.254.5c0,0,1.35-1.772,2.615,4.218,0,0,3.881,12.316,9.87,11.051S273.826,249.7,273.826,249.7Z" transform="translate(-204.276 -205.372)" fill="url(#linear-gradient-2)"/>
    <path id="Path_166" data-name="Path 166" d="M320.84,227.832v-.91s3.97-2.233,7.2,0v.827Z" transform="translate(-303.58 -209.72)" fill="#535461"/>
    <path id="Path_167" data-name="Path 167" d="M757.84,227.832v-.91s3.97-2.233,7.2,0v.827Z" transform="translate(-704.436 -209.72)" fill="#535461"/>
    <path id="Path_168" data-name="Path 168" d="M320.84,227.832v-.91s3.97-2.233,7.2,0v.827Z" transform="translate(-303.58 -209.72)" opacity="0.1"/>
    <path id="Path_169" data-name="Path 169" d="M757.84,227.832v-.91s3.97-2.233,7.2,0v.827Z" transform="translate(-704.436 -209.72)" opacity="0.1"/>
    <path id="Path_170" data-name="Path 170" d="M240.088,235.958H236.2s-.993-1.158-4.3-1.075-3.97,1.075-3.97,1.075-3.267,2.192-4.011,4.921c0,0-4.011,12.034-4.094,21.463s3.556,10.752,5.459,11,5.293-.083,8.6-8.436l1.406-4.88s.248-2.895,3.226-1.075,5.624-.992,5.624-.992h11.166s3.722,2.316,7.113.5c0,0,1.323-1.737,2.564,4.135,0,0,3.8,12.075,9.677,10.835s5.211-11.331,5.211-11.331-.786-15.425-4.011-20.884c0,0-3.1-5.665-5.169-5.914,0,0-4.466-.827-6.2-.083l-.992.827Z" transform="translate(-210.918 -217.928)" fill="#535461"/>
    <circle id="Ellipse_28" data-name="Ellipse 28" cx="7.196" cy="7.196" r="7.196" transform="translate(12.96 18.94)" fill="#e2e2ec"/>
    <circle id="Ellipse_29" data-name="Ellipse 29" cx="7.196" cy="7.196" r="7.196" transform="translate(50.509 18.94)" fill="#e2e2ec"/>
    <path id="Path_171" data-name="Path 171" d="M341.509,292.04l-.959.849a.445.445,0,0,1-.588,0L339,292.04a.444.444,0,0,1-.151-.331v-2.335a.445.445,0,0,1,.445-.444h1.923a.444.444,0,0,1,.445.445v2.332A.444.444,0,0,1,341.509,292.04Z" transform="translate(-320.1 -267.509)" fill="#535461"/>
    <path id="Path_172" data-name="Path 172" d="M341.509,354.687l-.959-.848a.445.445,0,0,0-.588,0l-.961.849a.444.444,0,0,0-.151.331v2.332a.444.444,0,0,0,.445.445h1.923a.444.444,0,0,0,.445-.444v-2.332A.444.444,0,0,0,341.509,354.687Z" transform="translate(-320.1 -326.948)" fill="#535461"/>
    <path id="Path_173" data-name="Path 173" d="M301.987,331.6l.849-.961a.445.445,0,0,0,0-.588l-.849-.961a.445.445,0,0,0-.331-.151h-2.332a.445.445,0,0,0-.444.445v1.923a.444.444,0,0,0,.445.445h2.332A.444.444,0,0,0,301.987,331.6Z" transform="translate(-283.436 -304.21)" fill="#535461"/>
    <path id="Path_174" data-name="Path 174" d="M364.613,331.592l-.847-.962a.444.444,0,0,1,0-.588l.849-.961a.444.444,0,0,1,.331-.151h2.332a.444.444,0,0,1,.445.445V331.3a.444.444,0,0,1-.444.445h-2.332A.444.444,0,0,1,364.613,331.592Z" transform="translate(-342.853 -304.201)" fill="#535461"/>
    <path id="Path_175" data-name="Path 175" d="M229.18,240.155h2.481l-1.241-1.075Z" transform="translate(-210.265 -219.313)" fill="none" stroke="#535461" stroke-miterlimit="10" stroke-width="2"/>
    <path id="Path_176" data-name="Path 176" d="M229.18,380.08h2.481l-1.241,1.075Z" transform="translate(-210.265 -348.651)" fill="none" stroke="#535461" stroke-miterlimit="10" stroke-width="2"/>
    <path id="Path_177" data-name="Path 177" d="M168.255,301.08v2.481l-1.075-1.241Z" transform="translate(-153.393 -276.185)" fill="none" stroke="#535461" stroke-miterlimit="10" stroke-width="2"/>
    <path id="Path_178" data-name="Path 178" d="M308.18,301.08v2.481l1.075-1.241Z" transform="translate(-282.731 -276.185)" fill="none" stroke="#535461" stroke-miterlimit="10" stroke-width="2"/>
    <circle id="Ellipse_30" data-name="Ellipse 30" cx="5.211" cy="5.211" r="5.211" transform="translate(24.704 28.782)" fill="#e2e2ec"/>
    <circle id="Ellipse_31" data-name="Ellipse 31" cx="3.474" cy="3.474" r="3.474" transform="translate(26.276 29.692)" fill="#535461"/>
    <circle id="Ellipse_32" data-name="Ellipse 32" cx="5.211" cy="5.211" r="5.211" transform="translate(42.735 28.782)" fill="#e2e2ec"/>
    <circle id="Ellipse_33" data-name="Ellipse 33" cx="3.474" cy="3.474" r="3.474" transform="translate(44.306 29.692)" fill="#535461"/>
    <circle id="Ellipse_34" data-name="Ellipse 34" cx="2.316" cy="2.316" r="2.316" transform="translate(27.434 30.85)" fill="none" stroke="#000" stroke-miterlimit="10" stroke-width="2" opacity="0.1"/>
    <circle id="Ellipse_35" data-name="Ellipse 35" cx="2.316" cy="2.316" r="2.316" transform="translate(45.464 30.85)" fill="none" stroke="#000" stroke-miterlimit="10" stroke-width="2" opacity="0.1"/>
    <circle id="Ellipse_36" data-name="Ellipse 36" cx="1.489" cy="1.489" r="1.489" transform="translate(37.607 33.083)" fill="#e2e2ec"/>
    <circle id="Ellipse_37" data-name="Ellipse 37" cx="0.325" cy="0.325" r="0.325" transform="translate(36.495 29.277)" fill="#e2e2ec"/>
    <circle id="Ellipse_38" data-name="Ellipse 38" cx="0.325" cy="0.325" r="0.325" transform="translate(37.713 29.277)" fill="#e2e2ec"/>
    <circle id="Ellipse_39" data-name="Ellipse 39" cx="0.325" cy="0.325" r="0.325" transform="translate(37.55 30.82)" fill="#e2e2ec"/>
    <circle id="Ellipse_40" data-name="Ellipse 40" cx="0.331" cy="0.331" r="0.331" transform="translate(38.682 30.85)" fill="#e2e2ec"/>
    <circle id="Ellipse_41" data-name="Ellipse 41" cx="0.325" cy="0.325" r="0.325" transform="translate(39.823 30.82)" fill="#e2e2ec"/>
    <circle id="Ellipse_42" data-name="Ellipse 42" cx="0.325" cy="0.325" r="0.325" transform="translate(37.063 30.09)" fill="#e2e2ec"/>
    <circle id="Ellipse_43" data-name="Ellipse 43" cx="0.331" cy="0.331" r="0.331" transform="translate(38.103 30.105)" fill="#e2e2ec"/>
    <circle id="Ellipse_44" data-name="Ellipse 44" cx="0.331" cy="0.331" r="0.331" transform="translate(39.178 30.105)" fill="#e2e2ec"/>
    <circle id="Ellipse_45" data-name="Ellipse 45" cx="0.325" cy="0.325" r="0.325" transform="translate(40.31 30.09)" fill="#e2e2ec"/>
    <circle id="Ellipse_46" data-name="Ellipse 46" cx="0.331" cy="0.331" r="0.331" transform="translate(38.682 29.278)" fill="#e2e2ec"/>
    <circle id="Ellipse_47" data-name="Ellipse 47" cx="0.331" cy="0.331" r="0.331" transform="translate(39.84 29.278)" fill="#e2e2ec"/>
    <circle id="Ellipse_48" data-name="Ellipse 48" cx="0.325" cy="0.325" r="0.325" transform="translate(40.798 29.277)" fill="#e2e2ec"/>
    <rect id="Rectangle_26" data-name="Rectangle 26" width="1.82" height="3.143" rx="0.91" transform="translate(26.028 18.609)" fill="#e2e2ec"/>
    <rect id="Rectangle_27" data-name="Rectangle 27" width="1.82" height="3.143" rx="0.91" transform="translate(50.178 18.609)" fill="#e2e2ec"/>
    <circle id="Ellipse_49" data-name="Ellipse 49" cx="1.985" cy="1.985" r="1.985" transform="translate(55.802 19.767)" fill="#535461"/>
    <circle id="Ellipse_50" data-name="Ellipse 50" cx="1.985" cy="1.985" r="1.985" transform="translate(51.584 23.985)" fill="#535461"/>
    <circle id="Ellipse_51" data-name="Ellipse 51" cx="1.985" cy="1.985" r="1.985" transform="translate(60.186 23.737)" fill="#535461"/>
    <circle id="Ellipse_52" data-name="Ellipse 52" cx="1.985" cy="1.985" r="1.985" transform="translate(56.133 28.12)" fill="#535461"/>
    <rect id="Rectangle_28" data-name="Rectangle 28" width="20.594" height="11" rx="5.5" transform="translate(28.674 17.451)" fill="#e2e2ec"/>
    <path id="Path_179" data-name="Path 179" d="M684.68,251.065l1.158-1.985,1.241,1.985Z" transform="translate(-628.092 -228.486)" fill="none" stroke="#e2e2ec" stroke-miterlimit="10" stroke-width="2"/>
    <rect id="Rectangle_29" data-name="Rectangle 29" width="2.068" height="1.82" transform="translate(52.535 25.06)" fill="none" stroke="#e2e2ec" stroke-miterlimit="10" stroke-width="2"/>
    <circle id="Ellipse_53" data-name="Ellipse 53" cx="1.158" cy="1.158" r="1.158" transform="translate(61.013 24.564)" fill="none" stroke="#e2e2ec" stroke-miterlimit="10" stroke-width="2"/>
    <line id="Line_4" data-name="Line 4" x2="1.861" y2="1.861" transform="translate(57.167 29.175)" fill="none" stroke="#e2e2ec" stroke-miterlimit="10" stroke-width="2"/>
    <line id="Line_5" data-name="Line 5" x1="1.902" y2="1.82" transform="translate(57.167 29.175)" fill="none" stroke="#e2e2ec" stroke-miterlimit="10" stroke-width="2"/>
    <path id="Path_180" data-name="Path 180" d="M395.866,670.21a1.411,1.411,0,0,0,.556-.684.579.579,0,0,0-.388-.7,1.245,1.245,0,0,0-1.026.294,1.513,1.513,0,0,1-1,.393,1.11,1.11,0,0,0,.47-1.158.449.449,0,0,0-.131-.236.742.742,0,0,0-.793.037,2.206,2.206,0,0,0-.968,2.019,3.143,3.143,0,0,1-.014-.832.792.792,0,0,0-.383-.736,1.368,1.368,0,0,0-.584-.112,1.4,1.4,0,0,0-.947.22.661.661,0,0,0,.037.949,3.648,3.648,0,0,0,.98.641,2.042,2.042,0,0,1,.7.545.5.5,0,0,1,.052.1h2.123A6.1,6.1,0,0,0,395.866,670.21Z" transform="translate(-367.455 -615.247)" fill="#91549c"/>
    <path id="Path_181" data-name="Path 181" d="M976.792,665.192a3.928,3.928,0,0,1-.834,1.476c-.449.318,0,1.026,1.158.706s1.283-.385,1.8-1.346.449-1.218.449-1.218-.385-.513-.579-.449S976.792,665.192,976.792,665.192Z" transform="translate(-904.357 -611.882)" fill="#603556"/>
    <path id="Path_182" data-name="Path 182" d="M913.094,297.9s-5.195,2.886-3.977,2.052c.819-.56.769-2.046.648-2.962-.038-.285-.083-.515-.11-.644-.016-.073-.026-.113-.026-.113s2.519-1.512,2.378-.6h0a.052.052,0,0,1,0,.025.985.985,0,0,0-.019.184A3.812,3.812,0,0,0,913.094,297.9Z" transform="translate(-843.032 -273.392)" fill="#c87486"/>
    <path id="Path_183" data-name="Path 183" d="M819.031,304.23s-.449.706-1.218,0-3.207-2.822-3.207-2.822-1.09-2.694-1.861-2.18.9,3.015.9,3.015l3.656,3.912s.128.834,1.476.385,2.309-.834,2.309-.834Z" transform="translate(-754.613 -276.895)" fill="#c87486"/>
    <path id="Path_184" data-name="Path 184" d="M915.83,439.53" transform="translate(-849.359 -405.653)" fill="none"/>
    <path id="Path_185" data-name="Path 185" d="M923.67,450.561l-2.564.9-.108.031.045-.224c.385-1.924-1.985-6.349-2.437-6.67s-.835-2.183-.835-2.183-.84-4.233-.969-5.128a1.863,1.863,0,0,0-.292-.649,5.138,5.138,0,0,1-.5-1.188c-.282-.992-.94-2.754-.7-3.751.049-.2-.151.315-.083.117l.039-.109,5.192-.706a3.9,3.9,0,0,1,.242.327c.393.583.367.583.45,1.691a11.438,11.438,0,0,1-.282,1.985c-.7,3.112.878,7.278.878,7.278s1.283,2.95,1.026,4.169S923.67,450.561,923.67,450.561Z" transform="translate(-848.798 -397.829)" fill="#555388"/>
    <path id="Path_186" data-name="Path 186" d="M918.872,431.326c-.768.964-5.69,1.712-5.629,1.406a.651.651,0,0,0-.023-.316q.073-.3.177-.6l.039-.109,5.195-.706A3.847,3.847,0,0,1,918.872,431.326Z" transform="translate(-846.965 -397.829)" opacity="0.1"/>
    <path id="Path_187" data-name="Path 187" d="M913.833,310s-2.117.643-2.7,2.119.439,1.556.439,1.556-1.82,4.8-1.337,7.295a.909.909,0,0,1,.193.641c-.064.32,5.323-.513,5.707-1.539s-1.8-2.886-1.218-4.618S913.833,310,913.833,310Z" transform="translate(-844.155 -286.836)" fill="#dfe5ee"/>
    <path id="Path_188" data-name="Path 188" d="M920.019,297.22a.2.2,0,0,1-.019.055c-.088.165-.366-.016-.27.232-.372.374-.49,1.122-1.058,1.122a2.039,2.039,0,0,1-.892-.2c-.038-.285-.083-.515-.11-.644.248-.147,2.233-1.3,2.352-.716h0A.382.382,0,0,1,920.019,297.22Z" transform="translate(-851.047 -274.824)" opacity="0.1"/>
    <circle id="Ellipse_54" data-name="Ellipse 54" cx="2.052" cy="2.052" r="2.052" transform="translate(65.573 19.575)" fill="#c87486"/>
    <path id="Path_189" data-name="Path 189" d="M891.547,340.689l-3.591,1.667s-2.437-1.859-2.053-2.371A20.6,20.6,0,0,1,889.3,338S892.381,338.637,891.547,340.689Z" transform="translate(-821.87 -312.521)" opacity="0.1"/>
    <path id="Path_190" data-name="Path 190" d="M891.555,339.161l-3.591,1.667s-2.437-1.86-2.052-2.373a20.575,20.575,0,0,1,3.4-1.985S892.388,337.105,891.555,339.161Z" transform="translate(-821.877 -311.117)" fill="#dfe5ee"/>
    <path id="Path_191" data-name="Path 191" d="M909.116,259.967a2.229,2.229,0,0,1-.91-.224.548.548,0,0,1-.308-.424c-.006-.215.175-.383.342-.519a1.247,1.247,0,0,1,.368-.236,2.253,2.253,0,0,1,.56-.055c.553-.046,1.047-.422,1.6-.418a2.391,2.391,0,0,1,1.137.409c.284.16.6.364.646.686a3.013,3.013,0,0,0,.026.311c.059.23.306.364.395.584a.7.7,0,0,1-.2.707c-.179.188-.414.317-.6.492a1.686,1.686,0,0,0-.539,1.269.165.165,0,0,1-.014.092.16.16,0,0,1-.116.058c-.2.038-.457.059-.579-.11s-.026-.45-.165-.616c-.178-.214-.552-.044-.792-.184a.481.481,0,0,1-.182-.217c-.2-.428.029-.763.112-1.172C909.989,259.921,909.453,260,909.116,259.967Z" transform="translate(-842.083 -239.219)" opacity="0.1"/>
    <path id="Path_192" data-name="Path 192" d="M909.9,259.177a2.229,2.229,0,0,1-.91-.224.548.548,0,0,1-.308-.424c-.006-.215.175-.383.342-.519a1.247,1.247,0,0,1,.368-.236,2.251,2.251,0,0,1,.56-.055c.552-.046,1.047-.422,1.6-.419a2.391,2.391,0,0,1,1.137.409c.284.16.6.364.646.686a3,3,0,0,0,.026.311c.059.23.306.364.395.584a.7.7,0,0,1-.2.707c-.179.188-.414.317-.6.492a1.686,1.686,0,0,0-.54,1.272.165.165,0,0,1-.014.092.161.161,0,0,1-.116.058c-.2.038-.457.059-.579-.11s-.026-.45-.165-.616c-.178-.214-.552-.044-.792-.184a.481.481,0,0,1-.182-.217c-.2-.428.028-.767.111-1.179C910.768,259.132,910.232,259.213,909.9,259.177Z" transform="translate(-842.799 -238.495)" fill="#603456"/>
  </g>
</svg>
