<svg id="gift" xmlns="http://www.w3.org/2000/svg" width="70.495" height="65.736" viewBox="0 0 70.495 65.736">
  <path id="Path_315" data-name="Path 315" d="M94.566,227.716h-58.7a1.113,1.113,0,0,0-1.113,1.113v34.536a1.113,1.113,0,0,0,1.113,1.113h58.7a1.113,1.113,0,0,0,1.113-1.113V228.829A1.113,1.113,0,0,0,94.566,227.716Z" transform="translate(-29.969 -198.742)" fill="#f7434c"/>
  <path id="Path_316" data-name="Path 316" d="M94.566,227.716h-58.7a1.113,1.113,0,0,0-1.113,1.113v4.452H95.679v-4.452A1.113,1.113,0,0,0,94.566,227.716Z" transform="translate(-29.969 -198.742)" fill="#db2e37"/>
  <path id="Path_317" data-name="Path 317" d="M219.1,227.716H207.731a1.113,1.113,0,0,0-1.113,1.113v34.536a1.113,1.113,0,0,0,1.113,1.113H219.1a1.113,1.113,0,0,0,1.113-1.113V228.829A1.113,1.113,0,0,0,219.1,227.716Z" transform="translate(-178.17 -198.742)" fill="#ffdb57"/>
  <path id="Path_318" data-name="Path 318" d="M219.1,227.716H207.731a1.113,1.113,0,0,0-1.113,1.113v4.429h13.6v-4.429A1.113,1.113,0,0,0,219.1,227.716Z" transform="translate(-178.17 -198.742)" fill="#f5ba3d"/>
  <path id="Path_319" data-name="Path 319" d="M305.407,25.694a22.493,22.493,0,0,0-4.607-7.432,3.4,3.4,0,0,0-2.553-.979c-3.342.078-8.788,4.272-16.186,12.466a1.113,1.113,0,0,0-.287.746v5.888a1.113,1.113,0,0,0,1.113,1.113H300.01c3.815,0,5.39-1.856,6.038-3.413C306.914,32.007,306.686,29.028,305.407,25.694Z" transform="translate(-242.979 -17.282)" fill="#ffdb57"/>
  <path id="Path_320" data-name="Path 320" d="M333.935,80.42a1.111,1.111,0,0,0-.146-.322c-1.681-2.541-5.312-1.59-8.063-.345-7.991,3.617-11.291,8.6-11.428,8.81a1.113,1.113,0,0,0,.933,1.719H327.9c2.428,0,4.228-.745,5.351-2.215C334.585,86.322,334.821,83.677,333.935,80.42Z" transform="translate(-270.869 -70.069)" fill="#ef9325"/>
  <path id="Path_321" data-name="Path 321" d="M74.68,29.75c-7.4-8.194-12.844-12.389-16.186-12.466a3.392,3.392,0,0,0-2.553.979,22.491,22.491,0,0,0-4.606,7.432c-1.279,3.334-1.507,6.313-.642,8.389.649,1.557,2.223,3.413,6.039,3.413H73.854a1.113,1.113,0,0,0,1.113-1.113V30.5A1.111,1.111,0,0,0,74.68,29.75Z" transform="translate(-43.269 -17.283)" fill="#ffdb57"/>
  <path id="Path_322" data-name="Path 322" d="M70.3,88.564c-.137-.21-3.437-5.193-11.428-8.81-2.751-1.245-6.382-2.2-8.063.345a1.115,1.115,0,0,0-.146.322c-.887,3.257-.651,5.9.683,7.648,1.123,1.47,2.923,2.215,5.351,2.215H69.363a1.113,1.113,0,0,0,.934-1.719Z" transform="translate(-43.231 -70.069)" fill="#ef9325"/>
  <path id="Path_323" data-name="Path 323" d="M224.492,97.175h-9.324a1.113,1.113,0,0,0-1.113,1.113v6.988a1.113,1.113,0,0,0,1.113,1.113h9.324a1.113,1.113,0,0,0,1.113-1.113V98.288A1.113,1.113,0,0,0,224.492,97.175Z" transform="translate(-184.583 -86.175)" fill="#f5ba3d"/>
  <path id="Path_324" data-name="Path 324" d="M69.382,147.943H1.113A1.113,1.113,0,0,0,0,149.056V160.04a1.113,1.113,0,0,0,1.113,1.113H69.382A1.113,1.113,0,0,0,70.5,160.04V149.056A1.113,1.113,0,0,0,69.382,147.943Z" transform="translate(0 -129.953)" fill="#f7434c"/>
  <rect id="Rectangle_55" data-name="Rectangle 55" width="17.1" height="13.21" transform="translate(26.698 17.99)" fill="#ffdb57"/>
</svg>
