<svg xmlns="http://www.w3.org/2000/svg" width="32" height="32" viewBox="0 0 32 32">
  <g id="google" transform="translate(0.277)">
    <circle id="Ellipse_71" data-name="Ellipse 71" cx="16" cy="16" r="16" transform="translate(-0.277)" fill="#ff4051"/>
    <path id="google-2" data-name="google" d="M16.374,16.516a7.727,7.727,0,0,1-8.053,8.126A8.321,8.321,0,0,1,8.321,8a8,8,0,0,1,5.58,2.178l-2.265,2.178C8.673,9.5,3.164,11.644,3.164,16.321a5.212,5.212,0,0,0,5.157,5.254,4.5,4.5,0,0,0,4.724-3.587H8.321V15.127h7.922A7.3,7.3,0,0,1,16.374,16.516Z" transform="translate(8)" fill="#fff"/>
  </g>
</svg>
