<svg xmlns="http://www.w3.org/2000/svg" width="250" height="240" viewBox="0 0 250 240">
  <g id="Group_172" data-name="Group 172" transform="translate(-83 -166)">
    <circle id="Ellipse_76" data-name="Ellipse 76" cx="113.5" cy="113.5" r="113.5" transform="translate(94 179)" fill="#fff"/>
    <path id="Path_708" data-name="Path 708" d="M984.872,681.183l.1-.419c.023-.092,2.377-9.261,9.534-14.253s16.574-4.034,16.669-4.024l.429.047-.1.419c-.023.092-2.377,9.261-9.534,14.253S985.4,681.24,985.3,681.23Zm10.069-14.054c-6.051,4.22-8.559,11.541-9.111,13.386,1.923.117,9.665.289,15.709-3.927s8.557-11.54,9.111-13.386c-1.923-.117-9.664-.289-15.709,3.927Z" transform="translate(-678.608 -311.208)" fill="#3f3d56"/>
    <path id="Path_709" data-name="Path 709" d="M994.854,649.4c-3.6,7.905-12.1,11.769-12.1,11.769s-2.675-8.953.923-16.858,12.1-11.769,12.1-11.769S998.452,641.491,994.854,649.4Z" transform="translate(-676.51 -290.866)" fill="#6c63ff"/>
    <rect id="Rectangle_129" data-name="Rectangle 129" width="227.11" height="0.638" transform="translate(98.433 369.595)" fill="#3f3d56"/>
    <path id="Path_710" data-name="Path 710" d="M216.888,755.832l-.432-.151c-.095-.034-9.536-3.42-13.958-11.1s-2.257-16.927-2.235-17.019l.1-.421.431.151c.095.034,9.535,3.42,13.958,11.1s2.257,16.927,2.235,17.019Zm-13.682-11.609c3.739,6.493,11.2,9.822,13.09,10.581.359-1.9,1.486-9.568-2.249-16.055s-11.2-9.82-13.09-10.581c-.36,1.9-1.486,9.569,2.249,16.055Z" transform="translate(-93.413 -355.293)" fill="#3f3d56"/>
    <path id="Path_711" data-name="Path 711" d="M184.409,768.679c7.948,4.477,11.009,13.371,11.009,13.371s-9.825,1.634-17.773-2.843-11.009-13.371-11.009-13.371S176.461,764.2,184.409,768.679Z" transform="translate(-71.602 -381.447)" fill="#6c63ff"/>
    <circle id="Ellipse_77" data-name="Ellipse 77" cx="96.968" cy="96.968" r="96.968" transform="translate(110.235 197.668)" fill="#3f3d56"/>
    <path id="Path_712" data-name="Path 712" d="M587.781,322.313a76.235,76.235,0,1,1-76.235-76.235A76.235,76.235,0,0,1,587.781,322.313Z" transform="translate(-304.343 -27.677)" opacity="0.2"/>
    <circle id="Ellipse_78" data-name="Ellipse 78" cx="7.336" cy="7.336" r="7.336" transform="translate(164.78 343.12)" fill="#d0cde1"/>
    <circle id="Ellipse_79" data-name="Ellipse 79" cx="7.336" cy="7.336" r="7.336" transform="translate(172.116 344.715)" fill="#d0cde1"/>
    <circle id="Ellipse_80" data-name="Ellipse 80" cx="7.336" cy="7.336" r="7.336" transform="translate(234.635 343.12)" fill="#d0cde1"/>
    <circle id="Ellipse_81" data-name="Ellipse 81" cx="7.336" cy="7.336" r="7.336" transform="translate(219.962 344.715)" fill="#d0cde1"/>
    <circle id="Ellipse_82" data-name="Ellipse 82" cx="10.845" cy="10.845" r="10.845" transform="translate(196.358 339.611)" fill="#d0cde1"/>
    <circle id="Ellipse_83" data-name="Ellipse 83" cx="10.845" cy="10.845" r="10.845" transform="translate(185.513 343.12)" fill="#d0cde1"/>
    <path id="Path_713" data-name="Path 713" d="M617.87,658.748a76.253,76.253,0,0,1-95.619-1.12c12.338-3.458,28.4-5.55,45.951-5.55C587.577,652.078,605.13,654.627,617.87,658.748Z" transform="translate(-363.551 -304.173)" fill="#d0cde1"/>
    <circle id="Ellipse_86" data-name="Ellipse 86" cx="1.62" cy="1.62" r="1.62" transform="translate(240.964 253.524)" fill="#d0cde1"/>
    <circle id="Ellipse_87" data-name="Ellipse 87" cx="1.62" cy="1.62" r="1.62" transform="translate(151.97 273.939)" fill="#d0cde1"/>
    <circle id="Ellipse_88" data-name="Ellipse 88" cx="1.62" cy="1.62" r="1.62" transform="translate(264.249 277.767)" fill="#d0cde1"/>
    <circle id="Ellipse_89" data-name="Ellipse 89" cx="2.196" cy="2.196" r="2.196" transform="translate(172.127 240.827)" fill="#d0cde1"/>
    <circle id="Ellipse_90" data-name="Ellipse 90" cx="2.196" cy="2.196" r="2.196" transform="translate(213.913 231.258)" fill="#d0cde1"/>
    <circle id="Ellipse_91" data-name="Ellipse 91" cx="2.196" cy="2.196" r="2.196" transform="translate(147.566 306.855)" fill="#d0cde1"/>
    <circle id="Ellipse_92" data-name="Ellipse 92" cx="2.196" cy="2.196" r="2.196" transform="translate(249.319 306.855)" fill="#d0cde1"/>
    <rect id="Rectangle_131" data-name="Rectangle 131" width="38.915" height="14.035" rx="7.017" transform="translate(188.384 190.65)" fill="#3f3d56"/>
    <path id="Path_716" data-name="Path 716" d="M640.26,140.975a15.949,15.949,0,1,1,15.949-15.949A15.949,15.949,0,0,1,640.26,140.975Zm0-28.708a12.759,12.759,0,1,0,12.759,12.759A12.759,12.759,0,0,0,640.26,112.268Z" transform="translate(-433.056 65.623)" fill="#3f3d56"/>
    <path id="Path_722" data-name="Path 722" d="M23.821.638,242.543,0V.638H23.821Z" transform="translate(83 399.897)" fill="#3f3d56"/>
    <path id="Path_718" data-name="Path 718" d="M703.424,83.664v14.65a1.864,1.864,0,0,1-2.061,1.853l-20.035-2.376-5.017-.593V85.077l4.97-.648,20.06-2.619a1.867,1.867,0,0,1,2.083,1.853Z" transform="translate(-468.47 84.201)" fill="#6c63ff"/>
    <path id="Path_719" data-name="Path 719" d="M613.743,85.077V97.2l-5.024.587-20.347,2.383a1.864,1.864,0,0,1-2.061-1.853V83.664a1.867,1.867,0,0,1,2.083-1.853l20.37,2.625Z" transform="translate(-407.177 84.201)" fill="#6c63ff"/>
    <path id="Path_720" data-name="Path 720" d="M681.734,91.247v11.017a1.8,1.8,0,0,1-.405,1.145l-5.017-.593V90.7l4.97-.648a1.791,1.791,0,0,1,.453,1.2Z" transform="translate(-468.47 78.583)" opacity="0.2"/>
    <path id="Path_721" data-name="Path 721" d="M660.734,90.709V102.83l-5.024.587a1.8,1.8,0,0,1-.4-1.139V91.261a1.8,1.8,0,0,1,.443-1.193Z" transform="translate(-454.168 78.57)" opacity="0.2"/>
    <rect id="Rectangle_133" data-name="Rectangle 133" width="10.845" height="14.673" rx="5.423" transform="translate(201.781 168.003)" fill="#6c63ff"/>
  </g>
</svg>
