<svg xmlns="http://www.w3.org/2000/svg" xmlns:xlink="http://www.w3.org/1999/xlink" width="297.923" height="205.471" viewBox="0 0 297.923 205.471">
  <defs>
    <linearGradient id="linear-gradient" x1="0.5" y1="1" x2="0.5" gradientUnits="objectBoundingBox">
      <stop offset="0" stop-color="gray" stop-opacity="0.251"/>
      <stop offset="0.54" stop-color="gray" stop-opacity="0.122"/>
      <stop offset="1" stop-color="gray" stop-opacity="0.102"/>
    </linearGradient>
    <linearGradient id="linear-gradient-2" x1="11.47" y1="33.141" x2="11.47" y2="32.127" xlink:href="#linear-gradient"/>
    <linearGradient id="linear-gradient-3" x1="11.544" y1="33.584" x2="11.544" y2="32.57" xlink:href="#linear-gradient"/>
    <linearGradient id="linear-gradient-4" x1="7.8" y1="22.569" x2="7.8" y2="21.562" xlink:href="#linear-gradient"/>
    <linearGradient id="linear-gradient-5" x1="10.897" y1="33.438" x2="10.897" y2="32.452" xlink:href="#linear-gradient"/>
    <linearGradient id="linear-gradient-6" x1="11.176" y1="33.465" x2="11.176" y2="32.452" xlink:href="#linear-gradient"/>
    <linearGradient id="linear-gradient-7" x1="7.509" y1="22.781" x2="7.509" y2="21.774" xlink:href="#linear-gradient"/>
    <linearGradient id="linear-gradient-8" x1="6.632" y1="23.498" x2="6.632" y2="22.491" xlink:href="#linear-gradient"/>
    <linearGradient id="linear-gradient-9" x1="6.008" y1="26.1" x2="6.008" y2="25.093" xlink:href="#linear-gradient"/>
    <linearGradient id="linear-gradient-10" x1="11.623" y1="33.309" x2="11.623" y2="32.322" xlink:href="#linear-gradient"/>
    <linearGradient id="linear-gradient-11" x1="12.431" y1="29.02" x2="12.431" y2="28.034" xlink:href="#linear-gradient"/>
    <linearGradient id="linear-gradient-12" x1="11.313" y1="29.417" x2="11.313" y2="28.431" xlink:href="#linear-gradient"/>
    <linearGradient id="linear-gradient-13" x1="10.236" y1="27.427" x2="10.236" y2="26.441" xlink:href="#linear-gradient"/>
    <linearGradient id="linear-gradient-14" x1="11.03" y1="35.188" x2="11.03" y2="34.202" xlink:href="#linear-gradient"/>
    <linearGradient id="linear-gradient-15" x1="7.653" y1="23.243" x2="7.653" y2="22.23" xlink:href="#linear-gradient"/>
    <linearGradient id="linear-gradient-16" x1="3.07" y1="11.566" x2="3.07" y2="10.532" xlink:href="#linear-gradient"/>
    <linearGradient id="linear-gradient-17" x1="1.664" y1="6.158" x2="1.664" y2="5.134" xlink:href="#linear-gradient"/>
    <linearGradient id="linear-gradient-18" x1="3.627" y1="10.765" x2="3.627" y2="9.763" xlink:href="#linear-gradient"/>
    <linearGradient id="linear-gradient-19" x1="3.611" y1="10.786" x2="3.611" y2="9.783" xlink:href="#linear-gradient"/>
    <linearGradient id="linear-gradient-20" x1="7.529" y1="22.952" x2="7.529" y2="21.939" xlink:href="#linear-gradient"/>
    <linearGradient id="linear-gradient-21" x1="7.548" y1="23.5" x2="7.548" y2="22.486" xlink:href="#linear-gradient"/>
  </defs>
  <g id="intro2_main" transform="translate(-389 -805)">
    <g id="undraw_news_go0e_2_" data-name="undraw_news_go0e (2)" transform="translate(389 805)">
      <rect id="Rectangle_33" data-name="Rectangle 33" width="24.898" height="3.782" transform="translate(5.807 74.217)" fill="#4d8af0"/>
      <path id="Path_201" data-name="Path 201" d="M11.868,235.85,9.05,363.41h1.761l3.9-127.471Z" transform="translate(-6.06 -157.94)" fill="#eee"/>
      <path id="Path_202" data-name="Path 202" d="M87.174,235.85l2.814,127.56H88.231l-3.9-127.471Z" transform="translate(-56.473 -157.94)" fill="#eee"/>
      <path id="Path_203" data-name="Path 203" d="M27.519,235.939,24.5,363.41h2.111L29.4,235.85Z" transform="translate(-16.407 -157.94)" fill="#e0e0e0"/>
      <path id="Path_204" data-name="Path 204" d="M74.666,235.939,77.689,363.41H75.575L72.79,235.85Z" transform="translate(-48.745 -157.94)" fill="#e0e0e0"/>
      <rect id="Rectangle_34" data-name="Rectangle 34" width="16.012" height="1.936" transform="translate(10.558 189.988)" fill="#e0e0e0"/>
      <rect id="Rectangle_35" data-name="Rectangle 35" width="17.244" height="1.936" transform="translate(10.029 179.255)" fill="#e0e0e0"/>
      <rect id="Rectangle_36" data-name="Rectangle 36" width="16.715" height="1.936" transform="translate(10.558 168.697)" fill="#e0e0e0"/>
      <rect id="Rectangle_37" data-name="Rectangle 37" width="16.012" height="1.936" transform="translate(10.558 157.965)" fill="#e0e0e0"/>
      <rect id="Rectangle_38" data-name="Rectangle 38" width="16.012" height="1.761" transform="translate(10.558 146.882)" fill="#e0e0e0"/>
      <rect id="Rectangle_39" data-name="Rectangle 39" width="15.483" height="2.111" transform="translate(11.086 136.324)" fill="#e0e0e0"/>
      <rect id="Rectangle_40" data-name="Rectangle 40" width="14.954" height="1.407" transform="translate(11.086 125.767)" fill="#e0e0e0"/>
      <rect id="Rectangle_41" data-name="Rectangle 41" width="13.197" height="2.286" transform="translate(11.611 114.509)" fill="#e0e0e0"/>
      <rect id="Rectangle_42" data-name="Rectangle 42" width="13.722" height="1.936" transform="translate(11.611 103.951)" fill="#e0e0e0"/>
      <rect id="Rectangle_43" data-name="Rectangle 43" width="13.722" height="2.111" transform="translate(11.611 93.043)" fill="#e0e0e0"/>
      <rect id="Rectangle_44" data-name="Rectangle 44" width="12.493" height="2.111" transform="translate(12.315 82.311)" fill="#e0e0e0"/>
      <rect id="Rectangle_45" data-name="Rectangle 45" width="36.595" height="7.743" transform="translate(0 67.003)" fill="#4d8af0"/>
      <g id="Group_38" data-name="Group 38" transform="translate(6.298 12.553)" opacity="0.5">
        <path id="Path_205" data-name="Path 205" d="M196.5,177l-12.728,8.292a2.4,2.4,0,0,0-.826-1.3,2.1,2.1,0,0,0,.069-1.249.783.783,0,0,0-.135-.33.558.558,0,0,0-.5-.139l-2.022.132a1.061,1.061,0,0,0-.661.192c-.284.238-.37.737-.661.948-.195.139-.443.125-.661.235-.466.248-.568.991-.6,1.6a3.023,3.023,0,0,0,.492,2.312,1.84,1.84,0,0,0,1.434.3l.5-.04a2.382,2.382,0,0,0,.4.188v.7H180.5s-5.7-1.652-11.972,15.605h-.109s-.925,3.138.555,2.587c1.288-.482,1.321-2.091,1.3-2.494h.086s2.587-7.571,6.65-8.5c0,0,2.956,3.693-1.847,11.08h3.759a5.738,5.738,0,0,0,.489,2.4c1.107,2.217-2.217,23.269-2.217,23.269h2.772l1.394-6.977.175,6.977h2.032l2.032-13.415-.277-16.16v-4.185l.37.492v-6.465h5.355l.925-7.2h-.1a8.714,8.714,0,0,0-.063-1.506l6.9-1.45C199.8,178.288,196.5,177,196.5,177Zm-6.045,8.972-1.619,4.139s-4.433-2.032-6.095-1.292h-.092v-.879a2.4,2.4,0,0,0,1.193-1.909l6.656-1.4a4.218,4.218,0,0,0-.046,1.335Z" transform="translate(-168.136 -177)" fill="url(#linear-gradient)"/>
      </g>
      <path id="Path_206" data-name="Path 206" d="M235.974,202.347s.211-3.052-.74-2.382-.542,2.57-.542,2.57Z" transform="translate(-206.349 -179.761)" fill="#fda57d"/>
      <path id="Path_207" data-name="Path 207" d="M170.621,260.07s-.879,2.99.529,2.464,1.232-2.464,1.232-2.464Z" transform="translate(-163.32 -220.076)" fill="#fda57d"/>
      <rect id="Rectangle_46" data-name="Rectangle 46" width="1.936" height="1.761" transform="translate(18.915 23.983)" fill="#fda57d"/>
      <rect id="Rectangle_47" data-name="Rectangle 47" width="1.582" height="7.918" transform="translate(17.33 33.662)" fill="#4d8af0"/>
      <rect id="Rectangle_48" data-name="Rectangle 48" width="1.582" height="7.918" transform="translate(17.33 33.662)" opacity="0.1"/>
      <path id="Path_208" data-name="Path 208" d="M55.716,76.07h1.83a1.9,1.9,0,0,1,1.9,1.9V89.792H53.83V77.969a1.9,1.9,0,0,1,1.886-1.9Z" transform="translate(-36.048 -50.941)" fill="#fff"/>
      <circle id="Ellipse_55" data-name="Ellipse 55" cx="2.286" cy="2.286" r="2.286" transform="translate(17.419 20.025)" fill="#fda57d"/>
      <path id="Path_209" data-name="Path 209" d="M182.876,214.987s-5.454-1.582-11.436,14.954H173.2s2.464-7.215,6.333-8.093c0,0,2.814,3.518-1.761,10.571h3.7v-2.359a41.166,41.166,0,0,1,1.321-10.6,8.588,8.588,0,0,0,.086-4.476Z" transform="translate(-164.05 -189.858)" fill="#4d8af0"/>
      <path id="Path_210" data-name="Path 210" d="M212.45,209.365v.529s1.232,5.454,2.286,8.972l.538.717v-6.171h5.1l.879-6.861H219.85l-1.6,4.043S214.032,208.658,212.45,209.365Z" transform="translate(-191.513 -184.236)" fill="#4d8af0"/>
      <path id="Path_211" data-name="Path 211" d="M198.581,256.583s-1.057,3.872,0,5.982-2.111,22.169-2.111,22.169h2.643l3.782-18.915.614-9.249Z" transform="translate(-180.812 -217.732)" fill="#333"/>
      <path id="Path_212" data-name="Path 212" d="M62.1,117.61,62.365,133l-1.936,12.758H58.494l-.7-28.151Z" transform="translate(-38.7 -78.759)" fill="#333"/>
      <path id="Path_213" data-name="Path 213" d="M201.223,198.706a.913.913,0,0,1,.172-.2.433.433,0,0,1,.218-.059c.479-.04,1.031-.05,1.321-.5a1.817,1.817,0,0,0,.145-1.321.744.744,0,0,0-.129-.33.532.532,0,0,0-.476-.132l-1.926.126a1.011,1.011,0,0,0-.618.182c-.271.228-.35.7-.634.905-.188.132-.423.119-.621.225-.443.235-.538.935-.575,1.52a2.832,2.832,0,0,0,.469,2.19,1.689,1.689,0,0,0,1.364.291l.879-.073a.406.406,0,0,0,.248-.076.66.66,0,0,0,.119-.525,1.808,1.808,0,0,0-.36-1.216,1.138,1.138,0,0,1-.188-.178C200.318,199.036,201.058,198.924,201.223,198.706Z" transform="translate(-181.892 -177.267)" fill="#333"/>
      <path id="Path_214" data-name="Path 214" d="M227.52,181s3.168,1.232,2.111,5.616l-14.251,2.99v-.7Z" transform="translate(-193.475 -167.126)" fill="#f55f44"/>
      <rect id="Rectangle_49" data-name="Rectangle 49" width="24.808" height="0.704" transform="translate(5.893 74.657)" opacity="0.1"/>
      <rect id="Rectangle_50" data-name="Rectangle 50" width="1.936" height="0.353" transform="translate(9.94 124.273)" opacity="0.1"/>
      <rect id="Rectangle_51" data-name="Rectangle 51" width="1.936" height="0.353" transform="translate(25.073 124.273)" opacity="0.1"/>
      <rect id="Rectangle_52" data-name="Rectangle 52" width="24.808" height="2.99" transform="translate(5.807 121.37)" fill="#eee"/>
      <path id="Path_215" data-name="Path 215" d="M137.676,36.287l.248-.126-.059-.007.02-.013-.036.01-6.818-.882.145,2.256.215,2,.42-.215.39.885Z" transform="translate(-87.746 -23.619)" fill="url(#linear-gradient-2)"/>
      <path id="Path_216" data-name="Path 216" d="M132.16,39.425l.2,1.833,6.095-3.089-5.292.116Z" transform="translate(-88.502 -25.561)" fill="#5b29b3"/>
      <path id="Path_217" data-name="Path 217" d="M132.16,39.425l.2,1.833,6.095-3.089-5.292.116Z" transform="translate(-88.502 -25.561)" opacity="0.2"/>
      <path id="Path_218" data-name="Path 218" d="M131.75,35.72l6.428.809-6.293,1.255Z" transform="translate(-88.228 -23.92)" fill="#5b29b3"/>
      <path id="Path_219" data-name="Path 219" d="M133.326,41.826l5.305-3.716-6.151,1.83Z" transform="translate(-88.717 -25.521)" fill="#5b29b3"/>
      <path id="Path_220" data-name="Path 220" d="M237.74,7.7l.248-.126-.059-.01.02-.013-.036.013L231.09,6.68l.149,2.256.215,2,.419-.215.39.885Z" transform="translate(-154.752 -4.473)" fill="url(#linear-gradient-3)"/>
      <path id="Path_221" data-name="Path 221" d="M232.23,10.835l.2,1.833,6.095-3.089-5.292.116Z" transform="translate(-155.515 -6.415)" fill="#5b29b3"/>
      <path id="Path_222" data-name="Path 222" d="M232.23,10.835l.2,1.833,6.095-3.089-5.292.116Z" transform="translate(-155.515 -6.415)" opacity="0.2"/>
      <path id="Path_223" data-name="Path 223" d="M231.82,7.13l6.428.809-6.293,1.255Z" transform="translate(-155.241 -4.775)" fill="#5b29b3"/>
      <path id="Path_224" data-name="Path 224" d="M233.4,13.236,238.7,9.52l-6.151,1.827Z" transform="translate(-155.73 -6.375)" fill="#5b29b3"/>
      <path id="Path_225" data-name="Path 225" d="M405.717.277l.34-.254-.089,0L405.991,0l-.05.026-10.5.433.806,3.363.839,2.957.578-.433.813,1.232Z" transform="translate(-264.811)" fill="url(#linear-gradient-4)"/>
      <path id="Path_226" data-name="Path 226" d="M398.89,4.058l.77,2.709L408.044.54,400.1,2.083Z" transform="translate(-267.121 -0.362)" fill="#5b29b3"/>
      <path id="Path_227" data-name="Path 227" d="M398.89,4.058l.77,2.709L408.044.54,400.1,2.083Z" transform="translate(-267.121 -0.362)" opacity="0.2"/>
      <path id="Path_228" data-name="Path 228" d="M396.66.983,406.55.54,397.4,4.058Z" transform="translate(-265.628 -0.362)" fill="#5b29b3"/>
      <path id="Path_229" data-name="Path 229" d="M401.561,7.45,408.594.48,399.8,4.824Z" transform="translate(-267.731 -0.321)" fill="#5b29b3"/>
      <path id="Path_230" data-name="Path 230" d="M328.211,53.16l.271-.063-.056-.02.023-.01h-.04L322,50.57l-.4,2.226-.274,1.992.459-.106.162.951Z" transform="translate(-215.182 -33.865)" fill="url(#linear-gradient-5)"/>
      <path id="Path_231" data-name="Path 231" d="M322.351,55.6l-.251,1.823,6.66-1.526L323.6,54.73Z" transform="translate(-215.698 -36.651)" fill="#5b29b3"/>
      <path id="Path_232" data-name="Path 232" d="M322.351,55.6l-.251,1.823,6.66-1.526L323.6,54.73Z" transform="translate(-215.698 -36.651)" opacity="0.2"/>
      <path id="Path_233" data-name="Path 233" d="M323.227,51.18l6.042,2.335-6.409-.3Z" transform="translate(-216.207 -34.273)" fill="#5b29b3"/>
      <path id="Path_234" data-name="Path 234" d="M323.127,60.489l6.045-2.329-6.412.294Z" transform="translate(-216.14 -38.947)" fill="#5b29b3"/>
      <g id="Group_39" data-name="Group 39" transform="translate(68.71 41.801)" opacity="0.5">
        <path id="Path_235" data-name="Path 235" d="M214.65,127.561l.244-.129-.056-.007.017-.013-.036.01L208,126.54l.149,2.26.215,2,.419-.215.387.885Z" transform="translate(-208 -126.54)" fill="url(#linear-gradient-6)"/>
        <path id="Path_236" data-name="Path 236" d="M209.14,130.7l.2,1.83,6.095-3.089-5.292.116Z" transform="translate(-208.763 -128.482)" fill="#5b29b3"/>
        <path id="Path_237" data-name="Path 237" d="M209.14,130.7l.2,1.83,6.095-3.089-5.292.116Z" transform="translate(-208.763 -128.482)" opacity="0.2"/>
        <path id="Path_238" data-name="Path 238" d="M208.73,126.99l6.428.809-6.293,1.259Z" transform="translate(-208.489 -126.841)" fill="#5b29b3"/>
        <path id="Path_239" data-name="Path 239" d="M210.306,133.1l5.305-3.716-6.151,1.83Z" transform="translate(-208.978 -128.442)" fill="#5b29b3"/>
      </g>
      <g id="Group_40" data-name="Group 40" transform="translate(138.987 12.351)" opacity="0.2">
        <path id="Path_240" data-name="Path 240" d="M431.013,37.667l.34-.258-.089,0,.026-.023-.053.026-10.5.429.806,3.363.836,2.96.578-.433.816,1.232Z" transform="translate(-420.74 -37.39)" fill="url(#linear-gradient-7)"/>
        <path id="Path_241" data-name="Path 241" d="M424.18,41.448l.77,2.705,8.384-6.224-7.941,1.543Z" transform="translate(-423.044 -37.752)" fill="#5b29b3"/>
        <path id="Path_242" data-name="Path 242" d="M424.18,41.448l.77,2.705,8.384-6.224-7.941,1.543Z" transform="translate(-423.044 -37.752)" opacity="0.2"/>
        <path id="Path_243" data-name="Path 243" d="M421.95,38.373l9.89-.443-9.154,3.518Z" transform="translate(-421.55 -37.752)" fill="#5b29b3"/>
        <path id="Path_244" data-name="Path 244" d="M426.851,44.84l7.033-6.97-8.794,4.344Z" transform="translate(-423.653 -37.711)" fill="#5b29b3"/>
      </g>
      <g id="Group_41" data-name="Group 41" transform="translate(166.957 49.039)" opacity="0.3">
        <path id="Path_245" data-name="Path 245" d="M515.687,148.727l.337-.254-.089,0,.026-.026-.053.026-10.5.433.806,3.363.839,2.96.575-.436.816,1.235Z" transform="translate(-505.41 -148.45)" fill="url(#linear-gradient-8)"/>
        <path id="Path_246" data-name="Path 246" d="M508.85,152.508l.77,2.709,8.387-6.227-7.944,1.543Z" transform="translate(-507.714 -148.812)" fill="#5b29b3"/>
        <path id="Path_247" data-name="Path 247" d="M508.85,152.508l.77,2.709,8.387-6.227-7.944,1.543Z" transform="translate(-507.714 -148.812)" opacity="0.2"/>
        <path id="Path_248" data-name="Path 248" d="M506.62,149.433l9.894-.443-9.157,3.518Z" transform="translate(-506.22 -148.812)" fill="#5b29b3"/>
        <path id="Path_249" data-name="Path 249" d="M511.521,155.907l7.033-6.967-8.794,4.341Z" transform="translate(-508.323 -148.778)" fill="#5b29b3"/>
      </g>
      <g id="Group_42" data-name="Group 42" transform="translate(253.413 67.204)" opacity="0.3">
        <path id="Path_250" data-name="Path 250" d="M777.4,203.717l.34-.258-.089,0,.027-.023-.053.023-10.5.433.806,3.363.836,2.96.578-.433.813,1.232Z" transform="translate(-767.13 -203.44)" fill="url(#linear-gradient-9)"/>
        <path id="Path_251" data-name="Path 251" d="M770.57,207.491l.77,2.705,8.384-6.227-7.941,1.543Z" transform="translate(-769.433 -203.795)" fill="#5b29b3"/>
        <path id="Path_252" data-name="Path 252" d="M770.57,207.491l.77,2.705,8.384-6.227-7.941,1.543Z" transform="translate(-769.433 -203.795)" opacity="0.2"/>
        <path id="Path_253" data-name="Path 253" d="M768.34,204.416l9.89-.446-9.154,3.521Z" transform="translate(-767.94 -203.795)" fill="#5b29b3"/>
        <path id="Path_254" data-name="Path 254" d="M773.241,210.89l7.033-6.97-8.794,4.341Z" transform="translate(-770.043 -203.761)" fill="#5b29b3"/>
      </g>
      <g id="Group_43" data-name="Group 43" transform="translate(107.238 46.129)" opacity="0.5">
        <path id="Path_255" data-name="Path 255" d="M331.511,142.233l.271-.066-.056-.02.023-.01-.04,0-6.405-2.5-.4,2.226-.274,2,.456-.109.165.951Z" transform="translate(-324.63 -139.64)" fill="url(#linear-gradient-10)"/>
        <path id="Path_256" data-name="Path 256" d="M325.651,144.665l-.251,1.823,6.66-1.526L326.9,143.8Z" transform="translate(-325.146 -142.426)" fill="#5b29b3"/>
        <path id="Path_257" data-name="Path 257" d="M325.651,144.665l-.251,1.823,6.66-1.526L326.9,143.8Z" transform="translate(-325.146 -142.426)" opacity="0.2"/>
        <path id="Path_258" data-name="Path 258" d="M326.527,140.25l6.042,2.335-6.409-.3Z" transform="translate(-325.655 -140.049)" fill="#5b29b3"/>
        <path id="Path_259" data-name="Path 259" d="M326.427,149.569l6.045-2.329-6.412.291Z" transform="translate(-325.588 -144.729)" fill="#5b29b3"/>
      </g>
      <g id="Group_44" data-name="Group 44" transform="translate(226.021 89.357)" opacity="0.5">
        <path id="Path_260" data-name="Path 260" d="M691.091,273.09l.271-.063-.053-.023.02-.007h-.04l-6.4-2.5-.4,2.227-.274,1.992.459-.109.165.955Z" transform="translate(-684.21 -270.5)" fill="url(#linear-gradient-11)"/>
        <path id="Path_261" data-name="Path 261" d="M685.238,275.525l-.248,1.823,6.66-1.526-5.166-1.163Z" transform="translate(-684.732 -273.286)" fill="#5b29b3"/>
        <path id="Path_262" data-name="Path 262" d="M685.238,275.525l-.248,1.823,6.66-1.526-5.166-1.163Z" transform="translate(-684.732 -273.286)" opacity="0.2"/>
        <path id="Path_263" data-name="Path 263" d="M686.107,271.11l6.045,2.336-6.412-.3Z" transform="translate(-685.234 -270.908)" fill="#5b29b3"/>
        <path id="Path_264" data-name="Path 264" d="M686.013,280.419l6.045-2.329-6.409.294Z" transform="translate(-685.174 -275.583)" fill="#5b29b3"/>
      </g>
      <g id="Group_45" data-name="Group 45" transform="translate(218.757 43.585)" opacity="0.5">
        <path id="Path_265" data-name="Path 265" d="M669.1,134.533l.271-.066-.056-.02.023-.01-.04,0-6.405-2.5-.4,2.226-.274,2,.459-.109.165.951Z" transform="translate(-662.22 -131.94)" fill="url(#linear-gradient-12)"/>
        <path id="Path_266" data-name="Path 266" d="M663.241,136.965l-.251,1.823,6.663-1.526-5.167-1.163Z" transform="translate(-662.736 -134.726)" fill="#5b29b3"/>
        <path id="Path_267" data-name="Path 267" d="M663.241,136.965l-.251,1.823,6.663-1.526-5.167-1.163Z" transform="translate(-662.736 -134.726)" opacity="0.2"/>
        <path id="Path_268" data-name="Path 268" d="M664.117,132.56l6.045,2.332-6.412-.3Z" transform="translate(-663.245 -132.355)" fill="#5b29b3"/>
        <path id="Path_269" data-name="Path 269" d="M664.017,141.869l6.045-2.329-6.412.291Z" transform="translate(-663.177 -137.029)" fill="#5b29b3"/>
      </g>
      <g id="Group_46" data-name="Group 46" transform="translate(279.057 5.444)" opacity="0.2">
        <path id="Path_270" data-name="Path 270" d="M851.641,19.07l.271-.063-.053-.02.02-.01-.04,0-6.405-2.5-.4,2.226-.274,2,.459-.109.165.951Z" transform="translate(-844.76 -16.48)" fill="url(#linear-gradient-13)"/>
        <path id="Path_271" data-name="Path 271" d="M845.781,21.505l-.251,1.823,6.663-1.526-5.167-1.163Z" transform="translate(-845.276 -19.266)" fill="#5b29b3"/>
        <path id="Path_272" data-name="Path 272" d="M845.781,21.505l-.251,1.823,6.663-1.526-5.167-1.163Z" transform="translate(-845.276 -19.266)" opacity="0.2"/>
        <path id="Path_273" data-name="Path 273" d="M846.656,17.09l6.045,2.335-6.412-.3Z" transform="translate(-845.784 -16.888)" fill="#5b29b3"/>
        <path id="Path_274" data-name="Path 274" d="M846.563,26.4l6.045-2.332-6.409.294Z" transform="translate(-845.724 -21.563)" fill="#5b29b3"/>
      </g>
      <g id="Group_47" data-name="Group 47" transform="translate(56.016 17.795)" opacity="0.2">
        <path id="Path_275" data-name="Path 275" d="M176.454,56.46l.271-.063-.056-.023.023-.007h-.04l-6.405-2.5-.4,2.226-.277,1.992.462-.109.162.955Z" transform="translate(-169.57 -53.87)" fill="url(#linear-gradient-14)"/>
        <path id="Path_276" data-name="Path 276" d="M170.6,58.9l-.251,1.823,6.66-1.526-5.163-1.163Z" transform="translate(-170.092 -56.656)" fill="#5b29b3"/>
        <path id="Path_277" data-name="Path 277" d="M170.6,58.9l-.251,1.823,6.66-1.526-5.163-1.163Z" transform="translate(-170.092 -56.656)" opacity="0.2"/>
        <path id="Path_278" data-name="Path 278" d="M171.477,54.48l6.042,2.335-6.409-.3Z" transform="translate(-170.601 -54.278)" fill="#5b29b3"/>
        <path id="Path_279" data-name="Path 279" d="M171.377,63.789l6.045-2.329-6.412.294Z" transform="translate(-170.534 -58.953)" fill="#5b29b3"/>
      </g>
      <path id="Path_280" data-name="Path 280" d="M561.221,34.029l.377-.195-.089-.013.03-.02-.056.017L551.06,32.47l.228,3.452.327,3.059.641-.334L552.85,40Z" transform="translate(-369.023 -21.744)" fill="url(#linear-gradient-15)"/>
      <path id="Path_281" data-name="Path 281" d="M552.8,38.823l.3,2.8,9.315-4.721-8.087.178Z" transform="translate(-370.189 -24.71)" fill="#5b29b3"/>
      <path id="Path_282" data-name="Path 282" d="M552.8,38.823l.3,2.8,9.315-4.721-8.087.178Z" transform="translate(-370.189 -24.71)" opacity="0.2"/>
      <path id="Path_283" data-name="Path 283" d="M552.17,33.16l9.824,1.235-9.616,1.923Z" transform="translate(-369.767 -22.206)" fill="#5b29b3"/>
      <path id="Path_284" data-name="Path 284" d="M554.582,42.492l8.11-5.682-9.4,2.795Z" transform="translate(-370.517 -24.65)" fill="#5b29b3"/>
      <path id="Path_285" data-name="Path 285" d="M605.24,168.438l.971.059-.162-.126.083-.007-.132-.033L587.1,153.47l-3.6,7.043-2.943,6.4,1.648.1-.416,3.356Z" transform="translate(-388.778 -102.773)" fill="url(#linear-gradient-16)"/>
      <path id="Path_286" data-name="Path 286" d="M586.326,172.322l-2.686,5.85,23.837,1.648-16.1-9.131Z" transform="translate(-390.841 -114.304)" fill="#5b29b3"/>
      <path id="Path_287" data-name="Path 287" d="M586.326,172.322l-2.686,5.85,23.837,1.648-16.1-9.131Z" transform="translate(-390.841 -114.304)" opacity="0.2"/>
      <path id="Path_288" data-name="Path 288" d="M595.063,156.13l17.858,13.94-21.151-7.5Z" transform="translate(-396.285 -104.554)" fill="#5b29b3"/>
      <path id="Path_289" data-name="Path 289" d="M587.17,188.408l22.6-1.658-21.75-5.53Z" transform="translate(-393.205 -121.356)" fill="#5b29b3"/>
      <path id="Path_290" data-name="Path 290" d="M791.1,308.074l2.031.066-.344-.254.165-.02-.274-.059L752.3,277.98l-7.069,14.931-5.738,13.531,3.442.109-.654,7.026Z" transform="translate(-495.208 -186.152)" fill="url(#linear-gradient-17)"/>
      <path id="Path_291" data-name="Path 291" d="M751.1,317.229l-5.239,12.381,49.861,1.932L761.534,313.5Z" transform="translate(-499.473 -209.939)" fill="#5b29b3"/>
      <path id="Path_292" data-name="Path 292" d="M751.1,317.229l-5.239,12.381,49.861,1.932L761.534,313.5Z" transform="translate(-499.473 -209.939)" opacity="0.2"/>
      <path id="Path_293" data-name="Path 293" d="M768.185,283.45l38.157,27.97L761.72,297.106Z" transform="translate(-510.094 -189.815)" fill="#5b29b3"/>
      <path id="Path_294" data-name="Path 294" d="M753.85,351.643l47.053-4.892L755.161,336.59Z" transform="translate(-504.824 -225.401)" fill="#5b29b3"/>
      <path id="Path_295" data-name="Path 295" d="M744.381,15.59l.885-.4-.2-.036.069-.043-.132.033-23.652-4.3.112,7.912.386,7.026,1.5-.681,1.2,3.161Z" transform="translate(-483.06 -7.259)" fill="url(#linear-gradient-18)"/>
      <path id="Path_296" data-name="Path 296" d="M724.12,26.736l.36,6.428,21.842-9.692-18.5-.542Z" transform="translate(-484.915 -15.355)" fill="#5b29b3"/>
      <path id="Path_297" data-name="Path 297" d="M724.12,26.736l.36,6.428,21.842-9.692-18.5-.542Z" transform="translate(-484.915 -15.355)" opacity="0.2"/>
      <path id="Path_298" data-name="Path 298" d="M723.81,12.55l22.3,3.971-22.2,3.264Z" transform="translate(-484.707 -8.404)" fill="#5b29b3"/>
      <path id="Path_299" data-name="Path 299" d="M727.543,36.384l19.2-12.034L724.93,29.635Z" transform="translate(-485.457 -16.306)" fill="#5b29b3"/>
      <path id="Path_300" data-name="Path 300" d="M820.258,95.86l.889-.4-.2-.036.066-.046-.129.033-23.652-4.3.112,7.912.386,7.026,1.5-.677,1.2,3.158Z" transform="translate(-533.874 -61.013)" fill="url(#linear-gradient-19)"/>
      <path id="Path_301" data-name="Path 301" d="M800,107.015l.357,6.428,21.842-9.692-18.5-.542Z" transform="translate(-535.729 -69.116)" fill="#5b29b3"/>
      <path id="Path_302" data-name="Path 302" d="M800,107.015l.357,6.428,21.842-9.692-18.5-.542Z" transform="translate(-535.729 -69.116)" opacity="0.2"/>
      <path id="Path_303" data-name="Path 303" d="M799.68,92.83l22.3,3.971-22.2,3.264Z" transform="translate(-535.514 -62.165)" fill="#5b29b3"/>
      <path id="Path_304" data-name="Path 304" d="M803.423,116.661l19.193-12.031-21.806,5.282Z" transform="translate(-536.271 -70.067)" fill="#5b29b3"/>
      <path id="Path_305" data-name="Path 305" d="M461.958,97.576l.38-.195-.089-.01.026-.02-.056.017L451.8,96.02l.228,3.449.324,3.059.641-.33.595,1.354Z" transform="translate(-302.553 -64.301)" fill="url(#linear-gradient-20)"/>
      <path id="Path_306" data-name="Path 306" d="M453.54,102.373l.3,2.795,9.316-4.717-8.087.178Z" transform="translate(-303.718 -67.267)" fill="#5b29b3"/>
      <path id="Path_307" data-name="Path 307" d="M453.54,102.373l.3,2.795,9.316-4.717-8.087.178Z" transform="translate(-303.718 -67.267)" opacity="0.2"/>
      <path id="Path_308" data-name="Path 308" d="M452.91,96.71l9.824,1.235-9.616,1.923Z" transform="translate(-303.296 -64.763)" fill="#5b29b3"/>
      <path id="Path_309" data-name="Path 309" d="M455.312,106.042l8.11-5.682-9.4,2.795Z" transform="translate(-304.04 -67.207)" fill="#5b29b3"/>
      <path id="Path_310" data-name="Path 310" d="M652.2,83.279l.377-.195-.086-.013.026-.02-.056.017L642.04,81.72l.225,3.452.327,3.059.641-.33.594,1.351Z" transform="translate(-429.949 -54.725)" fill="url(#linear-gradient-21)"/>
      <path id="Path_311" data-name="Path 311" d="M643.78,88.073l.3,2.8L653.4,86.15l-8.087.178Z" transform="translate(-431.114 -57.691)" fill="#5b29b3"/>
      <path id="Path_312" data-name="Path 312" d="M643.78,88.073l.3,2.8L653.4,86.15l-8.087.178Z" transform="translate(-431.114 -57.691)" opacity="0.2"/>
      <path id="Path_313" data-name="Path 313" d="M643.15,82.42l9.824,1.232-9.616,1.923Z" transform="translate(-430.692 -55.193)" fill="#5b29b3"/>
      <path id="Path_314" data-name="Path 314" d="M645.552,91.742l8.11-5.682-9.4,2.8Z" transform="translate(-431.436 -57.631)" fill="#5b29b3"/>
    </g>
  </g>
</svg>
