<svg xmlns="http://www.w3.org/2000/svg" xmlns:xlink="http://www.w3.org/1999/xlink" width="329.399" height="337.361" viewBox="0 0 329.399 337.361">
  <defs>
    <linearGradient id="linear-gradient" x1="0.884" y1="0.054" x2="-0.035" y2="0.776" gradientUnits="objectBoundingBox">
      <stop offset="0" stop-color="#f6c1c1"/>
      <stop offset="1" stop-color="#c629e3"/>
    </linearGradient>
  </defs>
  <g id="intro3_main" transform="translate(0 -199.639)">
    <g id="Group_136" data-name="Group 136">
      <path id="Path_39" data-name="Path 39" d="M0,0S208.043-139.922,277.391-112.9c34.4,13.4,52.008,33.229,52.008,88.479S312.342,66.033,277.391,108.1C208.043,191.578,0,221,0,221Z" transform="translate(0 316)" fill="url(#linear-gradient)"/>
      <g id="Group_10" data-name="Group 10" transform="translate(-1152 -261)">
        <g id="undraw_Mobile_application_mr4r" transform="translate(1143 465)">
          <path id="Path_41" data-name="Path 41" d="M536.425,643.519q-15.812-2.475-30.406-4.211l3.747-7.493c-1.3-.433-6.936,3.9-6.936,3.9l4.768-21.675c-6.5.867-9.537,22.975-9.537,22.975l-7.369-7.369,3.628,8.344a671.831,671.831,0,0,0-77.06-3.881l3.207-6.413c-1.3-.434-6.936,3.9-6.936,3.9l4.768-21.675c-6.5.867-9.537,22.975-9.537,22.975l-7.369-7.369,3.842,8.837a432.547,432.547,0,0,0-44.226,3.562c3.2-9.969,14.374-19.551,14.374-19.551-8.592,2.673-13.062,7.028-15.376,11.065a174.074,174.074,0,0,1,9.307-60.266s-17.34,39.014-14.739,65.024l.33,4.62c-15.085,2.353-22.655,4.7-22.655,4.7Z" transform="translate(-257.689 -391.507)" fill="#3f3d56"/>
          <path id="Path_193" data-name="Path 193" d="M0,0V0Z" transform="translate(9.395 250.846)" fill="#3f3d56"/>
          <path id="Path_45" data-name="Path 45" d="M548.317,217.309v28.472a1,1,0,0,1-.993.993h-.707v148.32a15.476,15.476,0,0,1-15.475,15.476H438.465a15.473,15.473,0,0,1-15.471-15.474V251.976h-.512a.7.7,0,0,1-.7-.7v-16.2a.7.7,0,0,1,.7-.7h.511v-6.1h-.516a.735.735,0,0,1-.733-.737V211.548a.734.734,0,0,1,.733-.733h.516v-8.332h-.525a.649.649,0,0,1-.65-.65v-8.722a.653.653,0,0,1,.65-.655h.524V174.8a15.472,15.472,0,0,1,15.471-15.471h92.677A15.476,15.476,0,0,1,546.617,174.8v41.52h.707A1,1,0,0,1,548.317,217.309Z" transform="translate(-308.389 -159.325)" fill="#3f3d56"/>
          <rect id="Rectangle_17" data-name="Rectangle 17" width="17.263" height="3.505" rx="1.753" transform="translate(164.718 7.936)" fill="#e6e8ec"/>
          <circle id="Ellipse_13" data-name="Ellipse 13" cx="1.988" cy="1.988" r="1.988" transform="translate(184.592 7.7)" fill="#e6e8ec"/>
          <path id="Path_46" data-name="Path 46" d="M551.112,189.244v218.52a9.819,9.819,0,0,1-9.819,9.814H452.579a9.791,9.791,0,0,1-4.534-1.105,9.166,9.166,0,0,1-.954-.564,9.826,9.826,0,0,1-4.331-8.145V189.244a9.818,9.818,0,0,1,9.819-9.819h13.278v1.7a8.085,8.085,0,0,0,8.085,8.085h45.118a8.085,8.085,0,0,0,8.085-8.085v-1.7h14.149A9.815,9.815,0,0,1,551.112,189.244Z" transform="translate(-320.294 -170.712)" fill="#91549c"/>
          <path id="Path_47" data-name="Path 47" d="M551.112,606.875v31.281a9.819,9.819,0,0,1-9.819,9.814H452.579a9.791,9.791,0,0,1-4.534-1.105,9.182,9.182,0,0,1-.954-.564,9.826,9.826,0,0,1-4.331-8.145V606.888a81.051,81.051,0,0,1,108.352-.013Z" transform="translate(-320.294 -401.104)" fill="#fff" opacity="0.3"/>
          <path id="Path_48" data-name="Path 48" d="M552.742,683.611a9.715,9.715,0,0,1-4.543,1.114H459.484a9.791,9.791,0,0,1-4.534-1.105,52.956,52.956,0,0,1,97.794,0Z" transform="translate(-327.199 -437.859)" fill="#fff" opacity="0.3"/>
          <path id="Path_49" data-name="Path 49" d="M558.666,701.652a5.879,5.879,0,0,1-2.749.674H502.234a5.924,5.924,0,0,1-2.744-.669,32.045,32.045,0,0,1,59.177,0Z" transform="translate(-352.432 -455.376)" fill="#fff" opacity="0.3"/>
          <path id="Path_50" data-name="Path 50" d="M519.242,354.826c-8.9,0-18.665-1.695-26.29-7.413-10.615-7.961-23.693-7.536-32.8-5.778a71.465,71.465,0,0,0-17.459,5.815l-.4-.769a72.376,72.376,0,0,1,17.673-5.893c9.281-1.8,22.627-2.225,33.5,5.931,20.374,15.28,56.856,1.556,57.222,1.416l.311.809a105.062,105.062,0,0,1-21.114,5.14A80.712,80.712,0,0,1,519.242,354.826Z" transform="translate(-320.032 -261.516)" fill="#fff"/>
          <path id="Path_51" data-name="Path 51" d="M442.75,353.339s29.911-7.245,50.719,2.675,57.655-.074,57.655-.074" transform="translate(-320.288 -267.789)" fill="#fff" opacity="0.3"/>
          <path id="Path_52" data-name="Path 52" d="M470.732,362.887a56.987,56.987,0,0,1-10.762-1.075,72.376,72.376,0,0,1-17.673-5.893l.4-.769a71.465,71.465,0,0,0,17.459,5.815c9.1,1.759,22.18,2.184,32.8-5.778,10.866-8.15,26.086-8.127,36.939-6.672A105.06,105.06,0,0,1,551,353.656l-.311.809c-.366-.14-36.847-13.865-57.222,1.416C486.34,361.23,478.145,362.887,470.732,362.887Z" transform="translate(-320.031 -266.083)" fill="#fff" opacity="0.3"/>
          <path id="Path_53" data-name="Path 53" d="M470.925,358.826a85.089,85.089,0,0,1-28.546-5.469l.33-.8c.3.122,29.949,12.094,50.329.028,20.732-12.276,57.614-1.318,57.984-1.206l-.251.83c-.366-.111-36.887-10.959-57.291,1.122C486.516,357.452,478.506,358.826,470.925,358.826Z" transform="translate(-320.078 -265.513)" fill="#fff" opacity="0.3"/>
          <path id="Path_54" data-name="Path 54" d="M442.76,353.408s29.907,9.919,50.714,0,57.637-.937,57.637-.937" transform="translate(-320.294 -266.631)" fill="#fff" opacity="0.3"/>
          <ellipse id="Ellipse_15" data-name="Ellipse 15" cx="0.885" cy="2.275" rx="0.885" ry="2.275" transform="translate(265.709 63.65)" fill="#ffb8b8"/>
          <path id="Path_68" data-name="Path 68" d="M197.487,677.719C202.875,687.71,214.309,692,214.309,692s2.7-11.91-2.688-21.9S194.8,655.817,194.8,655.817,192.1,667.727,197.487,677.719Z" transform="translate(-136.439 -440.59)" fill="#3f3d56"/>
          <path id="Path_69" data-name="Path 69" d="M182,693.4c9.727,5.852,13.473,17.476,13.473,17.476s-12.024,2.136-21.751-3.716-13.473-17.476-13.473-17.476S172.274,687.552,182,693.4Z" transform="translate(-117.25 -459.563)" fill="#91549c"/>
          <path id="Path_70" data-name="Path 70" d="M442.76,347.611s29.907-15.606,50.714,0,57.637,1.475,57.637,1.475" transform="translate(-320.294 -262.061)" fill="#fff" opacity="0.3"/>
          <circle id="Ellipse_16" data-name="Ellipse 16" cx="4.768" cy="4.768" r="4.768" transform="translate(171.989 234.813)" fill="#fff"/>
        </g>
      </g>
    </g>
    <g id="coin" transform="translate(140 318)">
      <path id="Path_196" data-name="Path 196" d="M42.421,7.278A24.85,24.85,0,0,0,7.278,42.421,24.85,24.85,0,0,0,42.421,7.278Z" transform="translate(0 0)" fill="#3f3d56"/>
      <g id="Group_36" data-name="Group 36" transform="translate(17.155 0)">
        <path id="Path_197" data-name="Path 197" d="M280.85,24.85A24.85,24.85,0,0,0,256,0V49.7a24.85,24.85,0,0,0,24.85-24.85Z" transform="translate(-248.306 0)" fill="#722fa4"/>
        <path id="Path_198" data-name="Path 198" d="M185.988,110.437h-3.119a3.223,3.223,0,1,1,0-6.445h6.238a1.456,1.456,0,1,0,0-2.912h-3.223V97.857a1.456,1.456,0,0,0-2.912,0v3.223h-.1a6.135,6.135,0,1,0,0,12.269h3.119a3.223,3.223,0,0,1,0,6.445H179.75a1.456,1.456,0,1,0,0,2.912h3.223v3.223a1.456,1.456,0,1,0,2.912,0v-3.223h.1a6.135,6.135,0,0,0,0-12.27Z" transform="translate(-176.734 -87.043)" fill="#722fa4"/>
      </g>
      <g id="Group_37" data-name="Group 37" transform="translate(24.85 9.358)">
        <path id="Path_199" data-name="Path 199" d="M260.679,103.992a1.456,1.456,0,0,0,0-2.912h-3.223V97.857A1.456,1.456,0,0,0,256,96.4v7.591Z" transform="translate(-256 -96.401)" fill="#3f3d56"/>
        <path id="Path_200" data-name="Path 200" d="M257.56,241H256v2.912h1.56a3.223,3.223,0,0,1,0,6.445H256v7.591a1.456,1.456,0,0,0,1.456-1.456V253.27h.1a6.135,6.135,0,0,0,0-12.27Z" transform="translate(-256 -226.964)" fill="#3f3d56"/>
      </g>
    </g>
  </g>
</svg>
