<svg xmlns="http://www.w3.org/2000/svg" xmlns:xlink="http://www.w3.org/1999/xlink" width="237.473" height="222.706" viewBox="0 0 237.473 222.706">
  <defs>
    <linearGradient id="linear-gradient" x1="0.5" y1="1" x2="0.5" gradientUnits="objectBoundingBox">
      <stop offset="0" stop-color="gray" stop-opacity="0.251"/>
      <stop offset="0.54" stop-color="gray" stop-opacity="0.122"/>
      <stop offset="1" stop-color="gray" stop-opacity="0.102"/>
    </linearGradient>
  </defs>
  <g id="intro1_main" transform="translate(-128 -224)">
    <g id="undraw_gift1_sgf8" transform="translate(128 224)">
      <g id="Group_1" data-name="Group 1" transform="translate(27.545 10.506)" opacity="0.5">
        <rect id="Rectangle_1" data-name="Rectangle 1" width="0.922" height="5.222" transform="translate(2.15)" fill="#47e6b1"/>
        <rect id="Rectangle_2" data-name="Rectangle 2" width="0.922" height="5.222" transform="translate(5.222 2.15) rotate(90)" fill="#47e6b1"/>
      </g>
      <g id="Group_2" data-name="Group 2" transform="translate(222.476 212.998)" opacity="0.5">
        <rect id="Rectangle_3" data-name="Rectangle 3" width="0.922" height="5.222" transform="translate(2.15)" fill="#47e6b1"/>
        <rect id="Rectangle_4" data-name="Rectangle 4" width="0.922" height="5.222" transform="translate(5.222 2.15) rotate(90)" fill="#47e6b1"/>
      </g>
      <g id="Group_3" data-name="Group 3" transform="translate(222.841 59.626)" opacity="0.5">
        <rect id="Rectangle_5" data-name="Rectangle 5" width="0.922" height="5.222" transform="translate(2.15)" fill="#47e6b1"/>
        <rect id="Rectangle_6" data-name="Rectangle 6" width="0.922" height="5.222" transform="translate(5.222 2.15) rotate(90)" fill="#47e6b1"/>
      </g>
      <g id="Group_4" data-name="Group 4" transform="translate(232.25 12.579)" opacity="0.5">
        <rect id="Rectangle_7" data-name="Rectangle 7" width="0.922" height="5.222" transform="translate(2.15)" fill="#47e6b1"/>
        <rect id="Rectangle_8" data-name="Rectangle 8" width="0.922" height="5.222" transform="translate(5.222 2.15) rotate(90)" fill="#47e6b1"/>
      </g>
      <g id="Group_5" data-name="Group 5" transform="translate(71.761 10.069)" opacity="0.5">
        <rect id="Rectangle_9" data-name="Rectangle 9" width="0.922" height="5.222" transform="translate(2.153)" fill="#47e6b1"/>
        <rect id="Rectangle_10" data-name="Rectangle 10" width="0.922" height="5.222" transform="translate(5.222 2.15) rotate(90)" fill="#47e6b1"/>
      </g>
      <path id="Path_1" data-name="Path 1" d="M220.493,352.33a1.129,1.129,0,0,1-.628-1.364.554.554,0,0,0,.025-.125h0a.554.554,0,0,0-1.016-.376h0a.556.556,0,0,0-.064.111,1.129,1.129,0,0,1-1.364.628.549.549,0,0,0-.125-.025h0a.553.553,0,0,0-.376,1.016h0a.556.556,0,0,0,.111.064,1.129,1.129,0,0,1,.628,1.364.554.554,0,0,0-.025.125h0a.553.553,0,0,0,1.016.376h0a.555.555,0,0,0,.064-.111,1.129,1.129,0,0,1,1.364-.628.555.555,0,0,0,.125.025h0a.553.553,0,0,0,.376-1.016h0A.553.553,0,0,0,220.493,352.33Z" transform="translate(-203.553 -264.238)" fill="#4d8af0" opacity="0.5"/>
      <path id="Path_2" data-name="Path 2" d="M281.973,730.67a1.129,1.129,0,0,1-.628-1.364.56.56,0,0,0,.025-.125h0a.554.554,0,0,0-1.016-.376h0a.557.557,0,0,0-.064.111,1.129,1.129,0,0,1-1.364.628.562.562,0,0,0-.125-.025h0a.553.553,0,0,0-.376,1.016h0a.554.554,0,0,0,.111.064,1.129,1.129,0,0,1,.628,1.365.559.559,0,0,0-.025.124h0a.554.554,0,0,0,1.016.376h0a.557.557,0,0,0,.064-.111,1.129,1.129,0,0,1,1.364-.628.555.555,0,0,0,.125.025h0a.553.553,0,0,0,.376-1.016h0A.554.554,0,0,0,281.973,730.67Z" transform="translate(-248.019 -537.872)" fill="#4d8af0" opacity="0.5"/>
      <path id="Path_3" data-name="Path 3" d="M840.973,229.67a1.129,1.129,0,0,1-.628-1.364.549.549,0,0,0,.025-.125h0a.553.553,0,0,0-1.016-.376h0a.549.549,0,0,0-.064.111,1.129,1.129,0,0,1-1.364.628.551.551,0,0,0-.125-.025h0a.553.553,0,0,0-.376,1.016h0a.552.552,0,0,0,.111.064,1.129,1.129,0,0,1,.628,1.364.555.555,0,0,0-.025.125h0a.554.554,0,0,0,1.016.376h0a.566.566,0,0,0,.064-.111,1.129,1.129,0,0,1,1.364-.628.557.557,0,0,0,.125.025h0a.553.553,0,0,0,.376-1.016h0A.554.554,0,0,0,840.973,229.67Z" transform="translate(-652.316 -175.524)" fill="#4d8af0" opacity="0.5"/>
      <path id="Path_4" data-name="Path 4" d="M833.523,320.06a1.129,1.129,0,0,1-.628-1.364.569.569,0,0,0,.025-.125h0a.554.554,0,0,0-1.016-.376h0a.554.554,0,0,0-.064.111,1.129,1.129,0,0,1-1.365.628.552.552,0,0,0-.124-.025h0a.554.554,0,0,0-.376,1.016h0a.548.548,0,0,0,.111.064,1.129,1.129,0,0,1,.628,1.364.548.548,0,0,0-.025.125h0a.553.553,0,0,0,1.016.376h0a.552.552,0,0,0,.064-.111,1.129,1.129,0,0,1,1.364-.628.553.553,0,0,0,.125.025h0a.554.554,0,0,0,.376-1.016h0A.554.554,0,0,0,833.523,320.06Z" transform="translate(-646.928 -240.898)" fill="#4d8af0" opacity="0.5"/>
      <path id="Path_5" data-name="Path 5" d="M834.06,41.69a1.129,1.129,0,0,1-.628-1.364.555.555,0,0,0,.025-.125h0a.553.553,0,0,0-1.016-.376h0a.554.554,0,0,0-.064.111,1.129,1.129,0,0,1-1.362.631.552.552,0,0,0-.125-.025h0a.554.554,0,0,0-.376,1.016h0a.554.554,0,0,0,.111.064,1.129,1.129,0,0,1,.628,1.364.555.555,0,0,0-.025.125h0a.554.554,0,0,0,1.016.376h0a.559.559,0,0,0,.064-.111,1.129,1.129,0,0,1,1.353-.645.553.553,0,0,0,.125.025h0a.553.553,0,0,0,.376-1.016h0A.554.554,0,0,0,834.06,41.69Z" transform="translate(-647.319 -39.567)" fill="#4d8af0" opacity="0.5"/>
      <path id="Path_6" data-name="Path 6" d="M1002.213,498.73a1.129,1.129,0,0,1-.628-1.364.549.549,0,0,0,.025-.125h0a.553.553,0,0,0-1.016-.376h0a.558.558,0,0,0-.064.111,1.129,1.129,0,0,1-1.364.628.554.554,0,0,0-.125-.025h0a.554.554,0,0,0-.376,1.016h0a.557.557,0,0,0,.111.064,1.129,1.129,0,0,1,.625,1.378.549.549,0,0,0-.025.125h0a.553.553,0,0,0,1.016.376h0a.554.554,0,0,0,.064-.111,1.129,1.129,0,0,1,1.364-.628.553.553,0,0,0,.125.025h0a.553.553,0,0,0,.376-1.016h0A.55.55,0,0,0,1002.213,498.73Z" transform="translate(-768.933 -370.122)" fill="#4d8af0" opacity="0.5"/>
      <circle id="Ellipse_1" data-name="Ellipse 1" cx="1.843" cy="1.843" r="1.843" transform="translate(15.252 44.162)" fill="#f55f44" opacity="0.5"/>
      <circle id="Ellipse_2" data-name="Ellipse 2" cx="1.843" cy="1.843" r="1.843" transform="translate(1.738 176.533)" fill="#f55f44" opacity="0.5"/>
      <circle id="Ellipse_3" data-name="Ellipse 3" cx="1.843" cy="1.843" r="1.843" transform="translate(119.832 10.83)" fill="#f55f44" opacity="0.5"/>
      <circle id="Ellipse_4" data-name="Ellipse 4" cx="1.843" cy="1.843" r="1.843" transform="translate(138.374 45.977)" fill="#f55f44" opacity="0.5"/>
      <circle id="Ellipse_5" data-name="Ellipse 5" cx="1.843" cy="1.843" r="1.843" transform="translate(0 130.662)" fill="#f55f44" opacity="0.5"/>
      <circle id="Ellipse_6" data-name="Ellipse 6" cx="1.843" cy="1.843" r="1.843" transform="translate(72.187 41.178)" fill="#47e6b1" opacity="0.5"/>
      <circle id="Ellipse_7" data-name="Ellipse 7" cx="1.843" cy="1.843" r="1.843" transform="translate(198.966 163.615)" fill="#f55f44" opacity="0.5"/>
      <g id="Group_6" data-name="Group 6" transform="translate(79.512 54.458)" opacity="0.5">
        <path id="Path_7" data-name="Path 7" d="M527.726,241.161c-3.57-3.581-8.776-5.006-14.668-4.013a29.332,29.332,0,0,0-15.5,8.394,18.123,18.123,0,0,0-3.244,4.45,18.164,18.164,0,0,0-3.216-4.611h0a29.455,29.455,0,0,0-15.36-8.659c-5.864-1.107-11.092.238-14.723,3.758s-5.134,8.7-4.22,14.587a29.307,29.307,0,0,0,8.17,15.634c9.293,9.587,27.838,5.842,28.624,5.676l.232-.047.714.163c.783.177,19.259,4.24,28.713-5.184a29.407,29.407,0,0,0,8.444-15.481C532.7,249.953,531.3,244.742,527.726,241.161Zm-37.275,29.681c-4.481.6-15.65,1.422-21.2-4.3a23.414,23.414,0,0,1-6.562-12.385c-.609-3.93.277-7.27,2.474-9.409a8.283,8.283,0,0,1,3.022-1.851,12.451,12.451,0,0,1,6.454-.327,23.45,23.45,0,0,1,12.177,6.946C492.366,255.253,491.193,266.392,490.451,270.842Zm35.363-16.032a23.411,23.411,0,0,1-6.775,12.268c-5.646,5.626-16.8,4.613-21.265,3.933-.667-4.472-1.644-15.628,4-21.254a23.424,23.424,0,0,1,12.29-6.736,12.5,12.5,0,0,1,6.448.437,8.284,8.284,0,0,1,2.989,1.9c2.167,2.184,2.989,5.538,2.314,9.454Z" transform="translate(-456.537 -236.344)" fill="url(#linear-gradient)"/>
      </g>
      <path id="Path_8" data-name="Path 8" d="M499.6,277.531l-1.766.374c-.75.158-18.5,3.739-27.4-5.433a28.139,28.139,0,0,1-7.821-14.944c-.872-5.64.553-10.6,4.035-13.97s8.48-4.644,14.089-3.6a28.119,28.119,0,0,1,14.7,8.286h0c8.889,9.174,4.755,26.8,4.572,27.542Zm-26.073-31.657a7.927,7.927,0,0,0-2.892,1.771c-2.109,2.042-2.95,5.239-2.369,9a22.4,22.4,0,0,0,6.279,11.85c5.305,5.474,15.993,4.7,20.28,4.112.711-4.265,1.829-14.925-3.476-20.4h0a22.373,22.373,0,0,0-11.648-6.642A11.881,11.881,0,0,0,473.529,245.873Z" transform="translate(-381.242 -184.243)" fill="#c629e3"/>
      <path id="Path_9" data-name="Path 9" d="M583.925,278.822l-.4-1.76c-.169-.75-4-18.443,5.048-27.459h0a28.088,28.088,0,0,1,14.839-8.026c5.626-.952,10.608.412,14.026,3.839s4.763,8.413,3.794,14.037a28.214,28.214,0,0,1-8.078,14.814c-9.041,9-26.72,5.128-27.47,4.957Zm26.615-31.2a11.937,11.937,0,0,0-6.169-.421,22.354,22.354,0,0,0-11.762,6.445h0c-5.4,5.383-4.467,16.051-3.827,20.338,4.276.65,14.944,1.622,20.349-3.764a22.409,22.409,0,0,0,6.484-11.74c.648-3.75-.138-6.96-2.214-9.039a7.927,7.927,0,0,0-2.864-1.821Z" transform="translate(-468.183 -185.457)" fill="#c629e3"/>
      <g id="Group_7" data-name="Group 7" transform="translate(30.224 88.649)" opacity="0.5">
        <path id="Path_10" data-name="Path 10" d="M281.254,320.21H109.21v34.425h8.939v99.632H272.315V354.635h8.939Z" transform="translate(-109.21 -320.21)" fill="url(#linear-gradient)"/>
      </g>
      <rect id="Rectangle_11" data-name="Rectangle 11" width="150.263" height="121.955" transform="translate(41.114 99.058)" fill="#f5f5f5"/>
      <rect id="Rectangle_12" data-name="Rectangle 12" width="28.311" height="100.178" transform="translate(102.09 120.835)" fill="#c629e3"/>
      <rect id="Rectangle_13" data-name="Rectangle 13" width="150.263" height="30.489" transform="translate(41.114 92.524)" opacity="0.1"/>
      <rect id="Rectangle_14" data-name="Rectangle 14" width="167.685" height="30.489" transform="translate(32.402 90.345)" fill="#f5f5f5"/>
      <rect id="Rectangle_15" data-name="Rectangle 15" width="28.311" height="30.489" transform="translate(102.09 90.345)" fill="#c629e3"/>
      <path id="Path_11" data-name="Path 11" d="M749.219,238.417c-.531-1.536-6.343,2.79-6.343,2.79l-1.339-.08-2.577-2.386,1.8-1.8-15.108-12.949a3.811,3.811,0,0,0-2.953-.888l-12.556,1.569a5.315,5.315,0,0,0-1.124-2.446,27.038,27.038,0,0,0-5-5.35l-1.531-10.325,1.3-1.951a6.571,6.571,0,0,1-.708-.238l.277-.412-.1-.028.13-.149h-.017l3.257-3.758a1.423,1.423,0,0,0-.108-1.97l-7.254-5.5a4,4,0,0,0,.31-1.66,3.11,3.11,0,0,0-2.076-3.028,16.026,16.026,0,0,0-3.177-1.121,10.425,10.425,0,0,0-5.493.08l-.094-.111c-2.233-2.552-5.159,1.107-5.272,1.259l-11.441,12.73a2.325,2.325,0,0,0,.565,3.1l6.055,4.541-.019.039.343.257a1.433,1.433,0,0,1-1.068.9l.927.465a1.069,1.069,0,0,1-.493.185l4.245,2.123c0,2.214.227,12.307,3.816,17.266a9.168,9.168,0,0,0,1.3,1.674s.3-.166.864-.434l.642,1.281a7.5,7.5,0,0,0,7.774,4.074l19.926-2.848-.21.634.114-.017-6.459,19.372,1.068.357-.019.039.149.064L710.2,256.3l-4.229,3.252s12.36,6.2,13.66,5.219-4.555-5.206-4.555-5.206l-.327-1.3,1.422-3,1.193.4,9.578-19.162h0l.327-.65,6.476,8.106,1.827-1.827.2.2.017-.017,2.532,2.563,1.835,5.009S749.759,239.95,749.219,238.417Zm-50.28-37.253-.127-.147a12.145,12.145,0,0,1-3.661,2.928V202.88l.072-.064v-.462a7.03,7.03,0,0,0,1.99-7.137l4.2,3.235Zm-14.283-12.011-.1-.1.1.1Zm-3.362,6.775q-.042.5-.033,1.018a10.591,10.591,0,0,0,.083,1.486c.216,1.721.83,3.127,2.1,3.8,1.107.581,1.835.554,2.3.152l.05.044a4.983,4.983,0,0,0,.515,1.937,20.481,20.481,0,0,1-6.689-2.693s0,.086.017.241L677.9,200.17Z" transform="translate(-532.611 -145.331)" fill="url(#linear-gradient)"/>
      <path id="Path_12" data-name="Path 12" d="M644.555,378.3l-2.845,5.372,4.422,1.9,2.845-6Z" transform="translate(-464.118 -273.575)" fill="#fda57d"/>
      <path id="Path_13" data-name="Path 13" d="M804.6,439.286l.316,1.265s5.687,4.107,4.428,5.056-13.284-5.056-13.284-5.056l4.107-3.16Z" transform="translate(-622.586 -327.293)" fill="#333"/>
      <path id="Path_14" data-name="Path 14" d="M651.7,380.982l-4.472-1.492L645.9,382l4.422,1.9Z" transform="translate(-467.148 -274.435)" opacity="0.1"/>
      <path id="Path_15" data-name="Path 15" d="M725,331.9l4.27,4.323,3.135-3.65-4.874-4.514Z" transform="translate(-524.357 -237.238)" fill="#fda57d"/>
      <path id="Path_16" data-name="Path 16" d="M728.162,328.82l-2.532,3.841,1.619,1.641,3.285-3.285Z" transform="translate(-524.813 -237.788)" opacity="0.1"/>
      <path id="Path_17" data-name="Path 17" d="M912.813,376.35l1.3.078s5.624-4.193,6.149-2.7-8.8,11.145-8.8,11.145L909.68,380Z" transform="translate(-704.762 -281.015)" fill="#333"/>
      <path id="Path_18" data-name="Path 18" d="M749.672,214.068l6.564-7.594a1.384,1.384,0,0,0-.105-1.912L741.848,193.73l-1.738,2.707,11.07,8.521-4.7,5.153Z" transform="translate(-582.12 -151.066)" fill="#fda57d"/>
      <path id="Path_19" data-name="Path 19" d="M765.937,243.31l-2.3,2.518,3.191,3.96,3.291-3.8A9.6,9.6,0,0,1,765.937,243.31Z" transform="translate(-599.138 -186.924)" opacity="0.1"/>
      <path id="Path_20" data-name="Path 20" d="M684.006,218.386l-7.431-5.585a2.258,2.258,0,0,1-.554-3.008l11.12-12.373,2.275,2.275-7.68,9.587,4.544,4.558Z" transform="translate(-535.516 -153.734)" fill="#fda57d"/>
      <path id="Path_21" data-name="Path 21" d="M700.12,252.17l1.215.913,2.275-4.547-2.856-2.856C700.815,246.649,700.986,250.407,700.12,252.17Z" transform="translate(-553.197 -188.638)" opacity="0.1"/>
      <path id="Path_22" data-name="Path 22" d="M649.042,307.312l-6.822,20.463,6.822,2.275,11.369-22.738-9.094-2.272Z" transform="translate(-464.486 -220.589)" fill="#4d8af0"/>
      <path id="Path_23" data-name="Path 23" d="M664.84,309.592l-.34,1.024,7.162-1.024,2.8,3.5,1.749-3.5-9.1-2.272Z" transform="translate(-480.6 -222.238)" opacity="0.1"/>
      <path id="Path_24" data-name="Path 24" d="M717.07,192.015s2.914-3.755,5.125-1.229-3.484,2.842-3.484,2.842Z" transform="translate(-565.456 -148.304)" fill="#fda57d"/>
      <path id="Path_25" data-name="Path 25" d="M729.29,325.056l2.2,4.4a7.29,7.29,0,0,0,7.55,3.955l26.631-3.805,9.1,11.366,6.822-6.822L766.92,321.569a3.7,3.7,0,0,0-2.867-.863Z" transform="translate(-574.294 -242.88)" fill="#4d8af0"/>
      <path id="Path_26" data-name="Path 26" d="M700.764,246.228s.6,7.384-1.674,7.638l4.547,2.275s-.252,13.389,4.547,18.191c0,0,8.856-4.8,18.191-4.547s-2.275-9.094-2.275-9.094l-1.536-10.35,1.265-1.9A9.5,9.5,0,0,1,719.4,245.6h0c-1.265,1.58-4.151,3.722-6.675,3.722h-1.088a20.45,20.45,0,0,1-10.882-2.767Z" transform="translate(-552.452 -188.581)" opacity="0.1"/>
      <path id="Path_27" data-name="Path 27" d="M699.244,243.941s.6,7.384-1.674,7.638l4.547,2.272s-.252,13.389,4.547,18.191c0,0,8.856-4.8,18.191-4.547s-2.275-9.094-2.275-9.094l-1.536-10.35,1.265-1.9a9.5,9.5,0,0,1-4.428-2.845h0c-1.265,1.58-4.151,3.722-6.675,3.722h-1.088a20.686,20.686,0,0,1-10.886-3.094Z" transform="translate(-551.353 -186.924)" fill="#3ad29f"/>
      <path id="Path_28" data-name="Path 28" d="M725.26,238.056v2.538a4.851,4.851,0,0,0,1.42,3.429l5.4,5.4,1.8-3.6a4.507,4.507,0,0,0,.476-2.017V238.05Z" transform="translate(-571.379 -183.12)" fill="#fda57d"/>
      <path id="Path_29" data-name="Path 29" d="M725.51,242v.277a6.819,6.819,0,0,0,9.086,0V239.46H725.51Z" transform="translate(-571.56 -184.14)" opacity="0.1"/>
      <circle id="Ellipse_8" data-name="Ellipse 8" cx="6.822" cy="6.822" r="6.822" transform="translate(151.606 45.839)" fill="#fda57d"/>
      <path id="Path_30" data-name="Path 30" d="M713.766,201.387h11.369s4.547-4.547,0-6.822a15.566,15.566,0,0,0-3.086-1.09,10.149,10.149,0,0,0-12.6,11.045c.21,1.66.811,3.044,2.042,3.686C716.293,210.736,713.766,201.387,713.766,201.387Z" transform="translate(-559.885 -150.65)" opacity="0.1"/>
      <path id="Path_31" data-name="Path 31" d="M713.766,200.247h11.369s4.547-4.547,0-6.822a15.566,15.566,0,0,0-3.086-1.09,10.149,10.149,0,0,0-12.6,11.045c.21,1.661.811,3.044,2.042,3.686C716.293,209.6,713.766,200.247,713.766,200.247Z" transform="translate(-559.885 -149.825)" fill="#333"/>
      <ellipse id="Ellipse_9" data-name="Ellipse 9" cx="0.631" cy="1.107" rx="0.631" ry="1.107" transform="translate(153.582 51.642)" fill="#fda57d"/>
      <path id="Path_32" data-name="Path 32" d="M544.67,238.819l.315-.949.947.634Z" transform="translate(-393.933 -172.008)" opacity="0.1"/>
      <path id="Path_33" data-name="Path 33" d="M776.529,297.85s-3.44,1.661-4.389,3.23" transform="translate(-605.285 -226.37)" opacity="0.1"/>
      <path id="Path_34" data-name="Path 34" d="M610.689,220.75l-.315.947-.634-.947Z" transform="translate(-440.995 -159.626)" opacity="0.1"/>
      <path id="Path_35" data-name="Path 35" d="M713.766,200.247h11.369s4.547-4.547,0-6.822a15.566,15.566,0,0,0-3.086-1.09,10.149,10.149,0,0,0-12.6,11.045c.21,1.661.811,3.044,2.042,3.686C716.293,209.6,713.766,200.247,713.766,200.247Z" transform="translate(-559.885 -149.825)" fill="#333"/>
    </g>
  </g>
</svg>
