<svg xmlns="http://www.w3.org/2000/svg" width="301.222" height="253.801" viewBox="0 0 301.222 253.801">
  <g id="login_main" transform="translate(0 0)">
    <ellipse id="Ellipse_72" data-name="Ellipse 72" cx="122.086" cy="4.956" rx="122.086" ry="4.956" transform="translate(25.427 228.923)" fill="#d0cde1"/>
    <path id="Path_683" data-name="Path 683" d="M529.736,123.942V326.025A15.944,15.944,0,0,1,513.8,341.966H435.262a15.947,15.947,0,0,1-15.948-15.944V123.942A15.946,15.946,0,0,1,435.262,108h9.526a7.582,7.582,0,0,0,7.014,10.437h44.774A7.581,7.581,0,0,0,503.59,108h10.2a15.944,15.944,0,0,1,15.942,15.938Z" transform="translate(-335.747 -108)" fill="#3f3d56"/>
    <path id="Path_684" data-name="Path 684" d="M546.59,332.863a38.833,38.833,0,0,0-15.5,4.782,38.762,38.762,0,0,0-3.356-16.081,38.536,38.536,0,0,0-11.4,12.947,38.536,38.536,0,0,0-11.4-12.947,38.763,38.763,0,0,0-3.356,16.081,38.833,38.833,0,0,0-15.5-4.782s1.021,12.505,9.378,20.64c7.438,7.241,18.173,8.577,20.445,8.784l.064.044.017-.037c.23.02.358.027.358.027s-.02-.24-.074-.663l.074-.175.074.175c-.054.423-.074.663-.074.663s.128-.007.358-.027l.017.037.064-.044c2.273-.207,13.007-1.544,20.445-8.784C545.569,345.368,546.59,332.863,546.59,332.863Z" transform="translate(-377.73 -242.32)" fill="#fff"/>
    <circle id="Ellipse_73" data-name="Ellipse 73" cx="8.642" cy="8.642" r="8.642" transform="translate(130.168 48.736)" fill="#fff"/>
    <rect id="Rectangle_127" data-name="Rectangle 127" width="46.535" height="46.535" transform="translate(115.332 147.223)" fill="#6c63ff"/>
    <path id="Path_685" data-name="Path 685" d="M326.947,551.255v-3.989h34.569v3.989" transform="translate(-205.632 -344.201)" fill="#6c63ff"/>
    <path id="Path_686" data-name="Path 686" d="M879.577,337.608l.944,9.912s-.472,24.072-.944,25.488a31.438,31.438,0,0,1-1.416,3.3l-5.192-14.16v-23.6Z" transform="translate(-621.072 -252.411)" fill="#a0616a"/>
    <path id="Path_687" data-name="Path 687" d="M573.287,595.635l.944,9.912,8.024-.944-1.888-9.912Z" transform="translate(-360.566 -374.028)" fill="#a0616a"/>
    <path id="Path_688" data-name="Path 688" d="M760.828,717.7s-3.3,0-3.776,1.888S752.8,731.86,752.8,731.86s-5.664,12.272,2.832,13.216,11.328-5.192,11.328-7.08.472-7.552.944-8.024,1.888-4.248.944-4.72-2.832-4.707-2.832-4.707S764.132,716.756,760.828,717.7Z" transform="translate(-544.331 -491.373)" fill="#2f2e41"/>
    <path id="Path_689" data-name="Path 689" d="M705.582,609.326l2.633,14.062,9.4-6.392-3.761-8.948Z" transform="translate(-443.773 -382.429)" fill="#a0616a"/>
    <path id="Path_690" data-name="Path 690" d="M905.442,737.4s-4.149-3.734-3.734-1.245,0,15.766,2.9,15.766,37.34-4.979,35.68-8.713-10.372-5.394-10.372-5.394-17.425-9.127-18.255-6.638a9.081,9.081,0,0,1-1.66,3.319Z" transform="translate(-639.129 -499.671)" fill="#2f2e41"/>
    <circle id="Ellipse_74" data-name="Ellipse 74" cx="12.744" cy="12.744" r="12.744" transform="translate(230.185 12.98)" fill="#a0616a"/>
    <path id="Path_691" data-name="Path 691" d="M812.727,193.824s.944,8.024-8.968,10.856,24.072,13.216,26.432,8.024c0,0-4.248-5.192-3.3-10.384s0-12.272,0-12.272Z" transform="translate(-576.405 -159.604)" fill="#a0616a"/>
    <path id="Path_692" data-name="Path 692" d="M877.977,262.556s5.664.472,6.136,3.3,0,11.328,0,11.328,3.776,11.328,0,14.16-13.688,3.3-13.688,3.3Z" transform="translate(-619.472 -205.207)" fill="#575a89"/>
    <path id="Path_693" data-name="Path 693" d="M752.226,435.557l-5.192,8.5s1.416,3.3.944,5.664-.472,3.776,0,4.72,2.36,21.24,1.888,23.6-.944,3.3-.472,4.248a2.838,2.838,0,0,1,.472,1.888v5.192l1.416,45.312s-3.776,1.888.944,3.3,10.856,1.888,11.8-2.832-.944-38.7,0-39.649,1.888.472,1.416-1.888a21.39,21.39,0,0,1-.472-3.776l.472-1.888,7.552-27.848,17.464,38.7,10.384,43.425s17.464,0,14.632-6.136-11.328-50.033-11.328-50.033a7.022,7.022,0,0,0,0-3.3c-.472-1.416-1.416-1.416-1.416-2.36s-.472-1.416-.472-2.36-.472-3.776-.472-3.776l-3.3-29.736Z" transform="translate(-541.866 -314.016)" fill="#2f2e41"/>
    <path id="Path_694" data-name="Path 694" d="M819.212,135.96a4.658,4.658,0,0,1-2.192-.327,1.6,1.6,0,0,1-.9-1.837l.863-.148-.5-1.815,1.067-.128,0-1.9,1.294.1-.482-2.33c4.621-1.3,9.427-2.506,14.177-1.811s9.47,3.743,10.707,8.382a14.82,14.82,0,0,1-.308,7.39c-1.225,4.861-2.583,9.448-5.75,13.334-.111-2.1-1.166-4.2-1.276-6.3a11.3,11.3,0,0,0-.4-2.88c-.555-1.723-1.887-3.061-2.911-4.554a7.854,7.854,0,0,1-1.29-3.864c-.209-1.742-.547-1.456-2.407-1.431Q824.057,135.9,819.212,135.96Z" transform="translate(-585.27 -119.042)" fill="#2f2e41"/>
    <path id="Path_695" data-name="Path 695" d="M776.835,223.122s3.821,10.467,21.263,6.413c0,0,11.777,7.747,12.249,9.635s-8.968,25.96-8.968,25.96l-.944,18.408s6.136,13.688,5.192,22.656,5.664,9.44-2.832,9.912c-7.376.41-37.24-9.3-44.6-13.452-1.119-.631-3.727,2.15-3.54,1.652,1.416-3.776,0-3.3,1.416-4.248s3.776-33.984,3.776-33.984-2.832-35.872.472-36.816S776.835,223.122,776.835,223.122Z" transform="translate(-546.65 -180.405)" fill="#575a89"/>
    <path id="Path_696" data-name="Path 696" d="M542.574,207.983l-2.36,14.16,3.776,33.985,2.36,3.776,4.484-6.372-.236-26.2L555.79,212.7Z" transform="translate(-339.765 -130.81)" fill="#a0616a"/>
    <path id="Path_697" data-name="Path 697" d="M742.818,240.909s-5.664-.472-7.08,4.248-13.216,22.656-10.856,24.544,20.3,8.5,20.768,8.024S742.818,240.909,742.818,240.909Z" transform="translate(-527.737 -191.584)" fill="#575a89"/>
    <path id="Path_698" data-name="Path 698" d="M245.022,696.311s-14.9-27.5-50.922-15.607Z" transform="translate(-194.1 -466.324)" fill="#d0cde1"/>
    <path id="Path_699" data-name="Path 699" d="M323.221,636.8s-18.423-23.417,8.168-52.63Z" transform="translate(-271.401 -407.486)" fill="#d0cde1"/>
  </g>
</svg>
