<svg id="message_tab" xmlns="http://www.w3.org/2000/svg" width="20.399" height="17.484" viewBox="0 0 20.399 17.484">
  <path id="Path_500" data-name="Path 500" d="M19.033,40.174a9.226,9.226,0,0,0-3.711-2.652,13.232,13.232,0,0,0-5.122-.973,13.232,13.232,0,0,0-5.122.973,9.225,9.225,0,0,0-3.711,2.652A5.677,5.677,0,0,0,0,43.834a5.523,5.523,0,0,0,1.03,3.2,8.357,8.357,0,0,0,2.817,2.5,7.266,7.266,0,0,1-.3.865q-.171.41-.307.672a4.62,4.62,0,0,1-.37.58q-.233.319-.353.45l-.393.433q-.273.3-.353.393a.8.8,0,0,0-.091.1l-.08.1-.068.1c-.038.057-.055.093-.051.108a.3.3,0,0,1-.023.114.15.15,0,0,0,.006.137V53.6a.58.58,0,0,0,.182.313.456.456,0,0,0,.307.119h.057a8.583,8.583,0,0,0,1.3-.25,12.44,12.44,0,0,0,5.236-2.755,15.564,15.564,0,0,0,1.65.091,13.229,13.229,0,0,0,5.122-.973,9.226,9.226,0,0,0,3.711-2.652,5.585,5.585,0,0,0,0-7.319Zm-1.281,6.562a8.176,8.176,0,0,1-3.21,2.134,11.809,11.809,0,0,1-4.343.791,12.852,12.852,0,0,1-1.48-.091L8.07,49.5l-.489.433a11.224,11.224,0,0,1-3.13,1.947,8.167,8.167,0,0,0,.8-1.958l.307-1.093-.99-.569a6.942,6.942,0,0,1-2.294-2,4.154,4.154,0,0,1-.814-2.43,4.3,4.3,0,0,1,1.189-2.9A8.175,8.175,0,0,1,5.857,38.8a11.8,11.8,0,0,1,4.343-.791,11.8,11.8,0,0,1,4.342.791,8.177,8.177,0,0,1,3.21,2.134,4.137,4.137,0,0,1,0,5.805Z" transform="translate(0 -36.549)" fill="#f77"/>
</svg>
