<svg xmlns="http://www.w3.org/2000/svg" width="11.481" height="20.26" viewBox="0 0 11.481 20.26">
  <g id="time" transform="translate(0)">
    <g id="hourglass" transform="translate(0 0)">
      <g id="Group_76" data-name="Group 76" transform="translate(1.116)">
        <path id="Path_471" data-name="Path 471" d="M82.471,13V8H73.222v5a4.653,4.653,0,0,0,2.613,4.191,1.015,1.015,0,0,1,.576.911v.061a1.015,1.015,0,0,1-.576.911,4.653,4.653,0,0,0-2.613,4.191v5h9.249v-5a4.653,4.653,0,0,0-2.613-4.191,1.015,1.015,0,0,1-.576-.911V18.1a1.015,1.015,0,0,1,.576-.911A4.652,4.652,0,0,0,82.471,13Z" transform="translate(-73.222 -8)" fill="#ffeacf"/>
      </g>
      <g id="Group_77" data-name="Group 77" transform="translate(7.203 11.426)">
        <path id="Path_472" data-name="Path 472" d="M147.814,147.44a.253.253,0,0,1-.253-.253,3.747,3.747,0,0,0-2.09-3.356.253.253,0,1,1,.221-.456,4.256,4.256,0,0,1,2.375,3.811A.253.253,0,0,1,147.814,147.44Z" transform="translate(-145.328 -143.35)" fill="#fcf9de"/>
      </g>
      <g id="Group_78" data-name="Group 78" transform="translate(1.116)">
        <path id="Path_473" data-name="Path 473" d="M78.2,19.072a1.015,1.015,0,0,0,.576-.911V18.1a1.015,1.015,0,0,0-.576-.911A4.653,4.653,0,0,1,75.586,13V8H73.222v5a4.653,4.653,0,0,0,2.613,4.191,1.015,1.015,0,0,1,.576.911v.061a1.015,1.015,0,0,1-.576.911,4.653,4.653,0,0,0-2.613,4.191v5h2.364v-5A4.653,4.653,0,0,1,78.2,19.072Z" transform="translate(-73.222 -8)" fill="#ffd59a"/>
      </g>
      <g id="Group_79" data-name="Group 79" transform="translate(2.322 6.727)">
        <path id="Path_474" data-name="Path 474" d="M87.509,87.683A3.814,3.814,0,0,0,90.914,89.8h.026a3.814,3.814,0,0,0,3.405-2.117Z" transform="translate(-87.509 -87.683)" fill="#f9bb32"/>
      </g>
      <g id="Group_80" data-name="Group 80" transform="translate(1.913 14.472)">
        <path id="Path_475" data-name="Path 475" d="M90.32,183.9v-.629a3.835,3.835,0,0,0-3.814-3.846H86.48a3.835,3.835,0,0,0-3.814,3.846v.629Z" transform="translate(-82.666 -179.429)" fill="#f9bb32"/>
      </g>
      <g id="Group_81" data-name="Group 81" transform="translate(5.403 8.04)">
        <rect id="Rectangle_84" data-name="Rectangle 84" width="0.675" height="6.753" fill="#f9bb32"/>
      </g>
      <g id="Group_82" data-name="Group 82" transform="translate(1.914 15.212)">
        <path id="Path_476" data-name="Path 476" d="M84.233,188.254c0-.017,0-.033,0-.05a3.853,3.853,0,0,0-1.567,3.105v.629h1.566v-3.684Z" transform="translate(-82.667 -188.204)" fill="#db9c2e"/>
      </g>
      <g id="Group_83" data-name="Group 83" transform="translate(5.403 8.775)">
        <path id="Path_477" data-name="Path 477" d="M124,114.656a4.6,4.6,0,0,1,.675-.406v-1.9a4.594,4.594,0,0,1-.675-.406Z" transform="translate(-124 -111.946)" fill="#db9c2e"/>
      </g>
      <g id="Group_84" data-name="Group 84" transform="translate(2.322 6.727)">
        <path id="Path_478" data-name="Path 478" d="M90.677,89.792A4.657,4.657,0,0,1,89,87.683H87.509A3.818,3.818,0,0,0,90.677,89.792Z" transform="translate(-87.509 -87.683)" fill="#db9c2e"/>
      </g>
      <g id="Group_85" data-name="Group 85" transform="translate(0 0.013)">
        <path id="Path_479" data-name="Path 479" d="M71,9.928H60.48a.48.48,0,0,1-.48-.48V8.639a.48.48,0,0,1,.48-.48H71a.48.48,0,0,1,.48.48v.808A.48.48,0,0,1,71,9.928Z" transform="translate(-60 -8.159)" fill="#bf6c0d"/>
      </g>
      <g id="Group_86" data-name="Group 86" transform="translate(0 18.478)">
        <path id="Path_480" data-name="Path 480" d="M60.48,226.889H71a.48.48,0,0,1,.48.48v.808a.48.48,0,0,1-.48.48H60.48a.48.48,0,0,1-.48-.48v-.808A.48.48,0,0,1,60.48,226.889Z" transform="translate(-60 -226.889)" fill="#bf6c0d"/>
      </g>
      <g id="Group_87" data-name="Group 87" transform="translate(3.893 2.207)">
        <circle id="Ellipse_57" data-name="Ellipse 57" cx="0.76" cy="0.76" r="0.76" transform="translate(0 0)" fill="#ffd59a"/>
      </g>
      <g id="Group_88" data-name="Group 88" transform="translate(3.893 16.713)">
        <circle id="Ellipse_58" data-name="Ellipse 58" cx="0.76" cy="0.76" r="0.76" transform="translate(0 0)" fill="#db9c2e"/>
      </g>
      <g id="Group_89" data-name="Group 89" transform="translate(0 0.013)">
        <path id="Path_481" data-name="Path 481" d="M62.364,9.447V8.639a.48.48,0,0,1,.48-.48H60.48a.48.48,0,0,0-.48.48v.808a.48.48,0,0,0,.48.48h2.364A.48.48,0,0,1,62.364,9.447Z" transform="translate(-60 -8.159)" fill="#a56021"/>
      </g>
      <g id="Group_90" data-name="Group 90" transform="translate(0 18.478)">
        <path id="Path_482" data-name="Path 482" d="M62.364,228.177v-.808a.48.48,0,0,1,.48-.48H60.48a.48.48,0,0,0-.48.48v.808a.48.48,0,0,0,.48.48h2.364A.48.48,0,0,1,62.364,228.177Z" transform="translate(-60 -226.889)" fill="#a56021"/>
      </g>
    </g>
  </g>
</svg>
