<svg xmlns="http://www.w3.org/2000/svg" xmlns:xlink="http://www.w3.org/1999/xlink" width="358.166" height="274.106" viewBox="0 0 358.166 274.106">
  <defs>
    <linearGradient id="linear-gradient" x1="0.141" y1="1.022" x2="0.929" y2="-0.011" gradientUnits="objectBoundingBox">
      <stop offset="0" stop-color="gray" stop-opacity="0.251"/>
      <stop offset="0.54" stop-color="gray" stop-opacity="0.122"/>
      <stop offset="1" stop-color="gray" stop-opacity="0.102"/>
    </linearGradient>
    <linearGradient id="linear-gradient-2" x1="5.25" y1="1" x2="5.25" y2="0.001" xlink:href="#linear-gradient"/>
    <linearGradient id="linear-gradient-3" x1="2.739" y1="1" x2="2.739" y2="0" xlink:href="#linear-gradient"/>
  </defs>
  <g id="welcome_main" transform="translate(0.011 0)">
    <path id="Path_613" data-name="Path 613" d="M316.507,661.817c4.8.316,9.877,1.981,14.246-.035,1.127-.519,2.149-1.268,3.319-1.685,2.688-.96,5.641-.028,8.348.87a370.081,370.081,0,0,0,65.088,15.186c4.556.636,9.311,1.17,13.653-.312,3.175-1.08,5.925-3.167,9.069-4.338,5.141-1.907,10.821-1.2,16.293-.9a104.369,104.369,0,0,0,42.128-6.417l.706-.269a21.3,21.3,0,0,1,20.319,2.73,49.88,49.88,0,0,0,7.248,4.42,17.651,17.651,0,0,1,8.032,23.26l-.094.2c-2.231,4.865-4.092,10.31-8.465,13.4-4.123,2.914-9.534,3.035-14.581,3.046l-30.984.074a40.615,40.615,0,0,1-9.588-.757,39.341,39.341,0,0,1-8-3.272l-13.863-6.877c-5.582-2.773-11.7-5.629-17.811-4.354-6.241,1.3-10.739,6.55-16.177,9.857a28.589,28.589,0,0,1-28.273.5c-4.127-2.317-7.712-5.7-12.213-7.15-7.435-2.407-15.334.925-22.983,2.52-14.885,3.1-32.419-1.143-43.825-11.414C283.409,676.878,300.659,660.78,316.507,661.817Z" transform="translate(-233.385 -440.843)" fill="#f0e4e4"/>
    <path id="Path_614" data-name="Path 614" d="M202.7,529.355s-11.355-38.532,2.13-66.921a60.863,60.863,0,0,0,4.923-38.2,102.386,102.386,0,0,0-5.406-17.943" transform="translate(-175.87 -286.287)" fill="none" stroke="#535461" stroke-miterlimit="10" stroke-width="2"/>
    <path id="Path_615" data-name="Path 615" d="M208.659,346.984c0,4.724-8.554,18.423-8.554,18.423s-8.554-13.7-8.554-18.423a8.554,8.554,0,0,1,17.109,0Z" transform="translate(-171.796 -244.898)" fill="#6c63ff"/>
    <path id="Path_616" data-name="Path 616" d="M244.775,406.8c-2.567,3.967-17.194,10.817-17.194,10.817s.265-16.149,2.832-20.116a8.555,8.555,0,1,1,14.363,9.3Z" transform="translate(-193.771 -278.544)" fill="#6c63ff"/>
    <path id="Path_617" data-name="Path 617" d="M238.364,516.769c-4.217,2.126-20.284.659-20.284.659s8.383-13.809,12.6-15.935a8.554,8.554,0,1,1,7.7,15.276Z" transform="translate(-187.977 -343.794)" fill="#6c63ff"/>
    <path id="Path_618" data-name="Path 618" d="M218.244,604.441c-3.8,2.808-19.894,4.08-19.894,4.08s5.929-15.025,9.724-17.834a8.554,8.554,0,1,1,10.174,13.754Z" transform="translate(-175.943 -397.732)" fill="#6c63ff"/>
    <path id="Path_619" data-name="Path 619" d="M177.484,434.55c3.39,3.292,19.176,6.7,19.176,6.7s-3.866-15.681-7.255-18.973a8.554,8.554,0,0,0-11.921,12.272Z" transform="translate(-161.634 -294.564)" fill="#6c63ff"/>
    <path id="Path_620" data-name="Path 620" d="M151.6,533.878c4.217,2.126,20.284.659,20.284.659s-8.383-13.809-12.6-15.934a8.554,8.554,0,0,0-7.684,15.275Z" transform="translate(-144.705 -354.307)" fill="#6c63ff"/>
    <path id="Path_621" data-name="Path 621" d="M144.351,636.491c3.8,2.808,19.894,4.08,19.894,4.08s-5.929-15.026-9.725-17.834a8.554,8.554,0,1,0-10.174,13.755Z" transform="translate(-140.89 -417.28)" fill="#6c63ff"/>
    <path id="Path_622" data-name="Path 622" d="M208.659,346.984c0,4.724-8.554,18.423-8.554,18.423s-8.554-13.7-8.554-18.423a8.554,8.554,0,0,1,17.109,0Z" transform="translate(-171.796 -244.898)" opacity="0.25"/>
    <path id="Path_623" data-name="Path 623" d="M244.775,406.8c-2.567,3.967-17.194,10.817-17.194,10.817s.265-16.149,2.832-20.116a8.555,8.555,0,1,1,14.363,9.3Z" transform="translate(-193.771 -278.544)" opacity="0.25"/>
    <path id="Path_624" data-name="Path 624" d="M238.364,516.769c-4.217,2.126-20.284.659-20.284.659s8.383-13.809,12.6-15.935a8.554,8.554,0,1,1,7.7,15.276Z" transform="translate(-187.977 -343.794)" opacity="0.25"/>
    <path id="Path_625" data-name="Path 625" d="M218.244,604.441c-3.8,2.808-19.894,4.08-19.894,4.08s5.929-15.025,9.724-17.834a8.554,8.554,0,1,1,10.174,13.754Z" transform="translate(-175.943 -397.732)" opacity="0.25"/>
    <path id="Path_626" data-name="Path 626" d="M177.484,434.55c3.39,3.292,19.176,6.7,19.176,6.7s-3.866-15.681-7.255-18.973a8.554,8.554,0,0,0-11.921,12.272Z" transform="translate(-161.634 -294.564)" opacity="0.25"/>
    <path id="Path_627" data-name="Path 627" d="M151.6,533.878c4.217,2.126,20.284.659,20.284.659s-8.383-13.809-12.6-15.934a8.554,8.554,0,0,0-7.684,15.275Z" transform="translate(-144.705 -354.307)" opacity="0.25"/>
    <path id="Path_628" data-name="Path 628" d="M144.351,636.491c3.8,2.808,19.894,4.08,19.894,4.08s-5.929-15.026-9.725-17.834a8.554,8.554,0,1,0-10.174,13.755Z" transform="translate(-140.89 -417.28)" opacity="0.25"/>
    <path id="Path_629" data-name="Path 629" d="M723.962,278.935c-1.443-11.312,3.078-22.956.39-34.03-2.067-8.554-8.192-15.7-10.2-24.267-2.957-12.7,3.807-25.745,12.44-35.5,5.937-6.721,13.387-12.822,22.269-14.043a30.032,30.032,0,0,1,16.185,2.66,41.064,41.064,0,0,1,22.078,24.251c1.17,3.472,1.845,7.1,3.284,10.47,2.477,5.8,7.021,10.481,9.849,16.122a30.589,30.589,0,0,1,1.038,24.719c-3.273,8.168-10.142,15-11.156,23.744-.737,6.3,1.627,13.2-1.443,18.751-2.317,4.189-7.088,6.3-11.6,7.887-10.508,3.667-25.2,9.6-35.731,3.951A33.479,33.479,0,0,1,723.962,278.935Z" transform="translate(-490.111 -142.693)" fill="#6c63ff"/>
    <path id="Path_630" data-name="Path 630" d="M816,415.467s15.47-6.241,17.421-9.752S838.1,381.53,838.1,381.53" transform="translate(-552.663 -271.185)" fill="none" stroke="#333" stroke-miterlimit="10" stroke-width="3"/>
    <line id="Line_6" data-name="Line 6" y1="134.576" transform="translate(263.189 105.281)" fill="none" stroke="#333" stroke-miterlimit="10" stroke-width="3"/>
    <g id="Group_138" data-name="Group 138" transform="translate(109.71 0)" opacity="0.5">
      <path id="Path_631" data-name="Path 631" d="M557.177,98.65l-129.7.316a5.328,5.328,0,0,0-5.317,5.34l.589,242.569a5.328,5.328,0,0,0,5.344,5.317l129.7-.316a5.329,5.329,0,0,0,5.317-5.34l-.585-242.569a5.329,5.329,0,0,0-5.348-5.317Z" transform="translate(-422.16 -98.65)" fill="url(#linear-gradient)"/>
    </g>
    <rect id="Rectangle_99" data-name="Rectangle 99" width="136.569" height="246.508" rx="13.64" transform="translate(111.603 3.634) rotate(-0.14)" fill="#535461"/>
    <path id="Path_632" data-name="Path 632" d="M566.1,351.957a5.188,5.188,0,0,1-5.172,5.2l-119.363.289a5.188,5.188,0,0,1-5.2-5.172l-.082-35.009L435.83,128.5A5.188,5.188,0,0,1,441,123.3l24.965-.058a11.074,11.074,0,0,0,10.922,9.389l47.168-.113a11.078,11.078,0,0,0,10.918-9.444l25.355-.062a5.188,5.188,0,0,1,5.2,5.172l.488,189.082Z" transform="translate(-320.788 -113.508)" fill="#fff"/>
    <path id="Path_633" data-name="Path 633" d="M566.817,655.693a5.188,5.188,0,0,1-5.172,5.2l-119.363.289a5.188,5.188,0,0,1-5.2-5.173L437,621H566.732Z" transform="translate(-321.502 -417.244)" fill="#e6e6e6"/>
    <rect id="Rectangle_100" data-name="Rectangle 100" width="30.434" height="1.904" rx="0.952" transform="translate(163.444 12.842) rotate(-0.86)" fill="#fff"/>
    <circle id="Ellipse_69" data-name="Ellipse 69" cx="1.143" cy="1.143" r="1.143" transform="translate(199.188 11.919) rotate(-0.86)" fill="#fff"/>
    <path id="Path_634" data-name="Path 634" d="M838.962,278.935c-1.443-11.312,3.078-22.956.39-34.03-2.067-8.554-8.191-15.7-10.2-24.267-2.957-12.7,3.807-25.745,12.44-35.5,5.937-6.721,13.387-12.822,22.269-14.043a30.029,30.029,0,0,1,16.184,2.66,41.063,41.063,0,0,1,22.079,24.251c1.17,3.472,1.845,7.1,3.285,10.47,2.477,5.8,7.021,10.481,9.849,16.122a30.589,30.589,0,0,1,1.026,24.735c-3.272,8.168-10.142,15-11.156,23.744-.737,6.3,1.627,13.2-1.443,18.751-2.317,4.189-7.087,6.3-11.6,7.887-10.5,3.651-25.187,9.58-35.719,3.936A33.478,33.478,0,0,1,838.962,278.935Z" transform="translate(-560.252 -142.693)" fill="#6c63ff"/>
    <path id="Path_635" data-name="Path 635" d="M838.962,278.935c-1.443-11.312,3.078-22.956.39-34.03-2.067-8.554-8.191-15.7-10.2-24.267-2.957-12.7,3.807-25.745,12.44-35.5,5.937-6.721,13.387-12.822,22.269-14.043a30.029,30.029,0,0,1,16.184,2.66,41.063,41.063,0,0,1,22.079,24.251c1.17,3.472,1.845,7.1,3.285,10.47,2.477,5.8,7.021,10.481,9.849,16.122a30.589,30.589,0,0,1,1.026,24.735c-3.272,8.168-10.142,15-11.156,23.744-.737,6.3,1.627,13.2-1.443,18.751-2.317,4.189-7.087,6.3-11.6,7.887-10.5,3.651-25.187,9.58-35.719,3.936A33.478,33.478,0,0,1,838.962,278.935Z" transform="translate(-560.252 -142.693)" opacity="0.2"/>
    <path id="Path_636" data-name="Path 636" d="M931,415.467s15.47-6.241,17.421-9.752S953.1,381.53,953.1,381.53" transform="translate(-622.804 -271.185)" fill="none" stroke="#333" stroke-miterlimit="10" stroke-width="3"/>
    <line id="Line_7" data-name="Line 7" y1="134.576" transform="translate(308.048 105.281)" fill="none" stroke="#333" stroke-miterlimit="10" stroke-width="3"/>
    <path id="Path_637" data-name="Path 637" d="M279.285,677.9s-4.962-16.847.928-29.255a26.607,26.607,0,0,0,2.153-16.692A44.735,44.735,0,0,0,280,624.12" transform="translate(-224.116 -419.147)" fill="none" stroke="#535461" stroke-miterlimit="10" stroke-width="2"/>
    <path id="Path_638" data-name="Path 638" d="M281.894,598.214c0,2.063-3.737,8.051-3.737,8.051s-3.737-5.988-3.737-8.051a3.739,3.739,0,0,1,7.478,0Z" transform="translate(-222.34 -401.066)" fill="#6c63ff"/>
    <path id="Path_639" data-name="Path 639" d="M297.683,624.356c-1.124,1.732-7.513,4.728-7.513,4.728s.117-7.057,1.236-8.792a3.739,3.739,0,1,1,6.276,4.064Z" transform="translate(-231.947 -415.771)" fill="#6c63ff"/>
    <path id="Path_640" data-name="Path 640" d="M294.854,672.417c-1.845.928-8.874.289-8.874.289s3.663-6.035,5.508-6.963a3.737,3.737,0,1,1,3.366,6.674Z" transform="translate(-229.391 -444.289)" fill="#6c63ff"/>
    <path id="Path_641" data-name="Path 641" d="M286.075,710.713c-1.662,1.229-8.695,1.782-8.695,1.782s2.59-6.565,4.252-7.8a3.739,3.739,0,0,1,4.447,6.011Z" transform="translate(-224.146 -467.844)" fill="#6c63ff"/>
    <path id="Path_642" data-name="Path 642" d="M268.227,636.492c1.482,1.439,8.379,2.93,8.379,2.93s-1.689-6.854-3.171-8.293a3.738,3.738,0,1,0-5.208,5.363Z" transform="translate(-217.871 -422.778)" fill="#6c63ff"/>
    <path id="Path_643" data-name="Path 643" d="M256.787,679.787c1.845.928,8.874.289,8.874.289s-3.663-6.035-5.508-6.963a3.738,3.738,0,1,0-3.366,6.674Z" transform="translate(-210.332 -448.784)" fill="#6c63ff"/>
    <path id="Path_644" data-name="Path 644" d="M253.784,724.722c1.662,1.229,8.695,1.782,8.695,1.782s-2.59-6.565-4.252-7.8a3.739,3.739,0,0,0-4.447,6.011Z" transform="translate(-208.827 -476.388)" fill="#6c63ff"/>
    <path id="Path_645" data-name="Path 645" d="M281.894,598.214c0,2.063-3.737,8.051-3.737,8.051s-3.737-5.988-3.737-8.051a3.739,3.739,0,0,1,7.478,0Z" transform="translate(-222.34 -401.066)" opacity="0.25"/>
    <path id="Path_646" data-name="Path 646" d="M297.683,624.356c-1.124,1.732-7.513,4.728-7.513,4.728s.117-7.057,1.236-8.792a3.739,3.739,0,1,1,6.276,4.064Z" transform="translate(-231.947 -415.771)" opacity="0.25"/>
    <path id="Path_647" data-name="Path 647" d="M294.854,672.417c-1.845.928-8.874.289-8.874.289s3.663-6.035,5.508-6.963a3.737,3.737,0,1,1,3.366,6.674Z" transform="translate(-229.391 -444.289)" opacity="0.25"/>
    <path id="Path_648" data-name="Path 648" d="M286.075,710.713c-1.662,1.229-8.695,1.782-8.695,1.782s2.59-6.565,4.252-7.8a3.739,3.739,0,0,1,4.447,6.011Z" transform="translate(-224.146 -467.844)" opacity="0.25"/>
    <path id="Path_649" data-name="Path 649" d="M268.227,636.492c1.482,1.439,8.379,2.93,8.379,2.93s-1.689-6.854-3.171-8.293a3.738,3.738,0,1,0-5.208,5.363Z" transform="translate(-217.871 -422.778)" opacity="0.25"/>
    <path id="Path_650" data-name="Path 650" d="M256.787,679.787c1.845.928,8.874.289,8.874.289s-3.663-6.035-5.508-6.963a3.738,3.738,0,1,0-3.366,6.674Z" transform="translate(-210.332 -448.784)" opacity="0.25"/>
    <path id="Path_651" data-name="Path 651" d="M253.784,724.722c1.662,1.229,8.695,1.782,8.695,1.782s-2.59-6.565-4.252-7.8a3.739,3.739,0,0,0-4.447,6.011Z" transform="translate(-208.827 -476.388)" opacity="0.25"/>
    <path id="Path_652" data-name="Path 652" d="M983.283,633.409s-6.148-20.869,1.17-36.23a32.967,32.967,0,0,0,2.665-20.674,55.429,55.429,0,0,0-2.93-9.705" transform="translate(-653.219 -384.186)" fill="none" stroke="#535461" stroke-miterlimit="10" stroke-width="2"/>
    <path id="Path_653" data-name="Path 653" d="M986.521,534.637c0,2.559-4.63,9.974-4.63,9.974s-4.63-7.412-4.63-9.974a4.632,4.632,0,1,1,9.264,0Z" transform="translate(-651.019 -361.744)" fill="#6c63ff"/>
    <path id="Path_654" data-name="Path 654" d="M1006.057,567.014c-1.388,2.145-9.307,5.851-9.307,5.851s.145-8.742,1.533-10.891a4.631,4.631,0,0,1,7.774,5.036Z" transform="translate(-662.907 -379.954)" fill="#6c63ff"/>
    <path id="Path_655" data-name="Path 655" d="M1002.572,626.556c-2.282,1.17-10.992.355-10.992.355s4.537-7.474,6.822-8.628a4.631,4.631,0,1,1,4.17,8.27Z" transform="translate(-659.753 -415.284)" fill="#6c63ff"/>
    <path id="Path_656" data-name="Path 656" d="M991.684,674.027c-2.056,1.521-10.774,2.208-10.774,2.208s3.21-8.133,5.266-9.655a4.631,4.631,0,0,1,5.508,7.447Z" transform="translate(-653.246 -444.49)" fill="#6c63ff"/>
    <path id="Path_657" data-name="Path 657" d="M969.809,582.224c1.833,1.782,10.383,3.628,10.383,3.628s-2.094-8.492-3.928-10.271a4.63,4.63,0,0,0-6.456,6.631Z" transform="translate(-645.69 -388.808)" fill="#6c63ff"/>
    <path id="Path_658" data-name="Path 658" d="M955.408,635.7c2.282,1.17,10.992.355,10.992.355s-4.536-7.474-6.822-8.628a4.631,4.631,0,1,0-4.17,8.27Z" transform="translate(-636.138 -420.859)" fill="#6c63ff"/>
    <path id="Path_659" data-name="Path 659" d="M951.695,691.377c2.056,1.521,10.773,2.208,10.773,2.208s-3.21-8.133-5.266-9.654a4.631,4.631,0,0,0-5.508,7.447Z" transform="translate(-634.281 -455.073)" fill="#6c63ff"/>
    <path id="Path_660" data-name="Path 660" d="M986.521,534.637c0,2.559-4.63,9.974-4.63,9.974s-4.63-7.412-4.63-9.974a4.632,4.632,0,1,1,9.264,0Z" transform="translate(-651.019 -361.744)" fill="#fff" opacity="0.5"/>
    <path id="Path_661" data-name="Path 661" d="M1006.057,567.014c-1.388,2.145-9.307,5.851-9.307,5.851s.145-8.742,1.533-10.891a4.631,4.631,0,0,1,7.774,5.036Z" transform="translate(-662.907 -379.954)" fill="#fff" opacity="0.5"/>
    <path id="Path_662" data-name="Path 662" d="M1002.572,626.556c-2.282,1.17-10.992.355-10.992.355s4.537-7.474,6.822-8.628a4.631,4.631,0,1,1,4.17,8.27Z" transform="translate(-659.753 -415.284)" fill="#fff" opacity="0.5"/>
    <path id="Path_663" data-name="Path 663" d="M991.684,674.027c-2.056,1.521-10.774,2.208-10.774,2.208s3.21-8.133,5.266-9.655a4.631,4.631,0,0,1,5.508,7.447Z" transform="translate(-653.246 -444.49)" fill="#fff" opacity="0.5"/>
    <path id="Path_664" data-name="Path 664" d="M969.809,582.224c1.833,1.782,10.383,3.628,10.383,3.628s-2.094-8.492-3.928-10.271a4.63,4.63,0,0,0-6.456,6.631Z" transform="translate(-645.69 -388.808)" fill="#fff" opacity="0.5"/>
    <path id="Path_665" data-name="Path 665" d="M955.408,635.7c2.282,1.17,10.992.355,10.992.355s-4.536-7.474-6.822-8.628a4.631,4.631,0,1,0-4.17,8.27Z" transform="translate(-636.138 -420.859)" fill="#fff" opacity="0.5"/>
    <path id="Path_666" data-name="Path 666" d="M951.695,691.377c2.056,1.521,10.773,2.208,10.773,2.208s-3.21-8.133-5.266-9.654a4.631,4.631,0,0,0-5.508,7.447Z" transform="translate(-634.281 -455.073)" fill="#fff" opacity="0.5"/>
    <g id="Group_139" data-name="Group 139" transform="translate(121.732 39.733)" opacity="0.6">
      <rect id="Rectangle_101" data-name="Rectangle 101" width="24.965" height="24.965" rx="10.5" fill="#6c63ff"/>
      <rect id="Rectangle_102" data-name="Rectangle 102" width="24.965" height="24.965" rx="10.5" transform="translate(30.816)" fill="#6c63ff"/>
      <rect id="Rectangle_103" data-name="Rectangle 103" width="24.965" height="24.965" rx="10.5" transform="translate(61.632)" fill="#6c63ff"/>
      <rect id="Rectangle_104" data-name="Rectangle 104" width="24.965" height="24.965" rx="10.5" transform="translate(92.448)" fill="#6c63ff"/>
    </g>
    <rect id="Rectangle_105" data-name="Rectangle 105" width="24.965" height="24.965" rx="10.5" transform="translate(121.603 77.18)" fill="#6c63ff"/>
    <rect id="Rectangle_106" data-name="Rectangle 106" width="24.965" height="24.965" rx="10.5" transform="translate(152.419 77.18)" fill="#6c63ff" opacity="0.6"/>
    <rect id="Rectangle_107" data-name="Rectangle 107" width="24.965" height="24.965" rx="10.5" transform="translate(183.235 77.18)" fill="#6c63ff" opacity="0.6"/>
    <rect id="Rectangle_108" data-name="Rectangle 108" width="24.965" height="24.965" rx="10.5" transform="translate(214.051 77.18)" fill="#6c63ff" opacity="0.6"/>
    <g id="Group_140" data-name="Group 140" transform="translate(121.474 114.628)" opacity="0.6">
      <rect id="Rectangle_109" data-name="Rectangle 109" width="24.965" height="24.965" rx="10.5" fill="#6c63ff"/>
      <rect id="Rectangle_110" data-name="Rectangle 110" width="24.965" height="24.965" rx="10.5" transform="translate(30.816)" fill="#6c63ff"/>
      <rect id="Rectangle_111" data-name="Rectangle 111" width="24.965" height="24.965" rx="10.5" transform="translate(61.632)" fill="#6c63ff"/>
      <rect id="Rectangle_112" data-name="Rectangle 112" width="24.965" height="24.965" rx="10.5" transform="translate(92.448)" fill="#6c63ff"/>
    </g>
    <g id="Group_141" data-name="Group 141" transform="translate(121.35 152.075)" opacity="0.6">
      <rect id="Rectangle_113" data-name="Rectangle 113" width="24.965" height="24.965" rx="10.5" fill="#6c63ff"/>
      <rect id="Rectangle_114" data-name="Rectangle 114" width="24.965" height="24.965" rx="10.5" transform="translate(30.816)" fill="#6c63ff"/>
      <rect id="Rectangle_115" data-name="Rectangle 115" width="24.965" height="24.965" rx="10.5" transform="translate(61.632)" fill="#6c63ff"/>
      <rect id="Rectangle_116" data-name="Rectangle 116" width="24.965" height="24.965" rx="10.5" transform="translate(92.448)" fill="#6c63ff"/>
    </g>
    <path id="Path_667" data-name="Path 667" d="M471.13,328.2v2.255l-9.51-6.007,1-1.252.464.273,7.361-10.786v-6.272l2.8.25v-1c7.411-8.511,8.156,1,6.631,3.756a16.718,16.718,0,0,1-4.334,4.755c-1.56,1.311-4.291,11.219-4.95,13.7Z" transform="translate(-336.518 -222.795)" fill="url(#linear-gradient-2)"/>
    <path id="Path_668" data-name="Path 668" d="M300.518,321.4h0s7.259,14.2,5,28.405c-.757,4.775-.441,7.692.316,9.471a17.412,17.412,0,0,1-1.56,5.547c-2.754,5.758-2.754,11.765.749,18.774l1,36.277s1.252,17.019,0,20.526.5,20.284.5,20.284h-.25v9.26l18.755.5s4.4-2.087,5.176-3.647l9.424,2.9s10.372-1.786,4.291-4.26c-4.529-1.841-5.652-4.474-5.933-5.691l14.823-42.62s-2.754-36.277-12.767-48.81l-1.014-7.38h.14l2.126-43.092.176.023h-.051a47.784,47.784,0,0,0,16.524-.254,25.743,25.743,0,0,0,4.786-1.338l.285-.113h.059a14.492,14.492,0,0,0,3.253-1.857l6.241-9.561-9.51-6.553-3.253,4.642s-10.193-2.153-15.79-4.423a23.909,23.909,0,0,0-8.192-1.759l-6.112-.211-3.047-1.829.952-2.461c.094-.043.187-.086.281-.137l.086-.526A14.6,14.6,0,0,0,338.64,273.8h.2c-.086-5.071-1.638-5.566-1.638-5.566,0-5.157-4.505-8.929-9.639-9.362a25.52,25.52,0,0,0-7.915.694,9.209,9.209,0,0,0-7.021,8c-6.705,1.845-4.458,5.356-4.564,6.7-.515,6.553,1.56,10.427,3.862,12.685a12.1,12.1,0,0,0,3.382,2.481l-1.463,2.929h-.429l-1.194,3.511h-.058l-1.3.842A24.454,24.454,0,0,0,300.518,321.4Zm20.022,139.284V449.42l4.755-33.289V399.108l8.515,17.76-9.167,38.524-.48-.133-2.11,7.583a4.98,4.98,0,0,1-1.51-2.161Z" transform="translate(-238.011 -196.339)" fill="url(#linear-gradient-3)"/>
    <path id="Path_669" data-name="Path 669" d="M469.912,315.207v6.011l-7.162,10.493,7.162,4.661s3.183-12.264,4.9-13.707a16.1,16.1,0,0,0,4.162-4.568c1.467-2.645.733-11.784-6.37-3.608v.963Z" transform="translate(-337.207 -228.266)" fill="#fda57d"/>
    <path id="Path_670" data-name="Path 670" d="M334.761,347.651l2.836-5.672a1.049,1.049,0,0,1,.885-.581l10.77-.55a1.049,1.049,0,0,1,1.034,1.428l-2.777,7.181a1.05,1.05,0,0,1-1.073.667l-10.824-.964a1.05,1.05,0,0,1-.85-1.51Z" transform="translate(-259.077 -246.371)" fill="#fda57d"/>
    <path id="Path_671" data-name="Path 671" d="M193.22,253.4l-1.83,5.364,18.786-.675-7.216-4.33Z" transform="translate(-116.74 -154.555)" fill="#edeef9"/>
    <path id="Path_672" data-name="Path 672" d="M318.47,265.392l.96-1.2,8.176,4.81v2.165Z" transform="translate(-194.25 -161.136)" fill="#edeef9"/>
    <path id="Path_673" data-name="Path 673" d="M312.765,502.32a17.868,17.868,0,0,1-1.268,11.008c-2.645,5.531-2.645,11.312.722,18.037l.963,34.873s1.2,16.356,0,19.722.472,19.484.472,19.484h13.469V594.62l4.568-31.986v-16.36l8.192,17.078L330.521,602.8l12.264,5.052,15.392-44.254S355.509,528.72,345.89,516.7l-1.81-13.11Z" transform="translate(-243.794 -344.858)" fill="#7a7478"/>
    <path id="Path_674" data-name="Path 674" d="M319.4,775.588v-8.9h13.707s.964,3.608,7.216,4.33-2.886,5.052-2.886,5.052Z" transform="translate(-249.775 -506.104)" fill="#333"/>
    <path id="Path_675" data-name="Path 675" d="M357.36,761.882l2.387-8.582,13.208,3.679s-.043,3.733,5.789,6.1-4.135,4.092-4.135,4.092Z" transform="translate(-272.927 -497.937)" fill="#333"/>
    <path id="Path_676" data-name="Path 676" d="M349.029,505.438,317.71,504.17a17.524,17.524,0,0,1,.238,5.679,3.757,3.757,0,0,0,4.505,2.45l27.4-.843Z" transform="translate(-248.744 -345.987)" opacity="0.1"/>
    <path id="Path_677" data-name="Path 677" d="M315.8,360.68l-1.248.847a23.5,23.5,0,0,0-9.935,23.693h0s6.975,13.653,4.81,27.305,4.81,11.546,4.81,11.546l27.539-.846,2.044-41.406s16.594,2.36,24.052-3.413l6.011-9.186-9.139-6.308-3.121,4.462s-9.795-2.067-15.174-4.252a22.977,22.977,0,0,0-7.887-1.689Z" transform="translate(-240.522 -258.468)" fill="#4d8af0"/>
    <path id="Path_678" data-name="Path 678" d="M334.333,531.47s-1.685,8.418,7.938,22.367" transform="translate(-258.813 -362.637)" opacity="0.1"/>
    <path id="Path_679" data-name="Path 679" d="M406,408.926s11.542-3.846,16.594-3.846,4.209,2.181,4.209,2.181S418.76,410.849,406,408.926Z" transform="translate(-302.594 -285.549)" opacity="0.1"/>
    <path id="Path_680" data-name="Path 680" d="M364.73,342.1l-4.6.55c-.144,0-.277.2-.355.484,1.01,1.822,2.274,2.906,3.647,2.906a2.836,2.836,0,0,0,1.393-.39l.351-2.126C365.288,342.816,365.054,342.059,364.73,342.1Z" transform="translate(-274.403 -247.134)" opacity="0.1"/>
    <circle id="Ellipse_70" data-name="Ellipse 70" cx="14.027" cy="14.027" r="14.027" transform="translate(73.093 70.366)" fill="#fda57d"/>
    <path id="Path_681" data-name="Path 681" d="M351.457,279.661h0l-.718.647a2.426,2.426,0,0,0,.706,4.03h0s-6.284,6.284-7.158,7.45.144,4.236.144,4.236,2.777,5.114-11.835,3.944c0,0-9.642-2.044-8.62-15.049.1-1.3-2.044-4.681,4.384-6.428h0a8.848,8.848,0,0,1,6.776-7.685,24.527,24.527,0,0,1,7.607-.667A9.549,9.549,0,0,1,351.457,279.661Z" transform="translate(-252.404 -203.21)" opacity="0.1"/>
    <path id="Path_682" data-name="Path 682" d="M351.377,278.524h0s1.49.46,1.56,5.348l-2.118-.144s-4.9,13.107-4.385,11.4c1.9-6.284-1.9-5.114-2.777-3.944s.144,4.236.144,4.236,2.777,5.114-11.835,3.944c0,0-9.643-2.044-8.621-15.049.1-1.3-2.044-4.681,4.385-6.428h0a8.847,8.847,0,0,1,6.764-7.688,24.523,24.523,0,0,1,7.606-.667C347.047,269.947,351.377,273.578,351.377,278.524Z" transform="translate(-252.02 -202.838)" fill="#72351c"/>
    <g id="Group_142" data-name="Group 142" transform="translate(121.74 211.558)" opacity="0.6">
      <rect id="Rectangle_117" data-name="Rectangle 117" width="24.965" height="24.965" rx="10.5" fill="#6c63ff"/>
      <rect id="Rectangle_118" data-name="Rectangle 118" width="24.965" height="24.965" rx="10.5" transform="translate(30.816)" fill="#6c63ff"/>
      <rect id="Rectangle_119" data-name="Rectangle 119" width="24.965" height="24.965" rx="10.5" transform="translate(61.632)" fill="#6c63ff"/>
      <rect id="Rectangle_120" data-name="Rectangle 120" width="24.965" height="24.965" rx="10.5" transform="translate(92.448)" fill="#6c63ff"/>
    </g>
    <g id="Group_143" data-name="Group 143" transform="translate(121.74 211.558)" opacity="0.1">
      <rect id="Rectangle_121" data-name="Rectangle 121" width="24.965" height="24.965" rx="10.5"/>
      <rect id="Rectangle_122" data-name="Rectangle 122" width="24.965" height="24.965" rx="10.5" transform="translate(30.816)"/>
      <rect id="Rectangle_123" data-name="Rectangle 123" width="24.965" height="24.965" rx="10.5" transform="translate(61.632)"/>
      <rect id="Rectangle_124" data-name="Rectangle 124" width="24.965" height="24.965" rx="10.5" transform="translate(92.448)"/>
    </g>
  </g>
</svg>
